<svg width="383" height="158" viewBox="0 0 383 158" fill="none" xmlns="http://www.w3.org/2000/svg">
<rect width="383.001" height="158" rx="34" fill="#272831"/>
<rect x="0.5" y="0.5" width="382.001" height="157" rx="33.5" stroke="#686868" stroke-opacity="0.43"/>
<rect x="4.0918" y="2.88208" width="374.818" height="152.236" rx="32.5" stroke="black" stroke-width="3"/>
<g clip-path="url(#clip0_403_2)">
<path d="M189 15.2266C190.273 15.2266 191.46 15.8492 192.186 16.8892L192.326 17.1026L203.145 35.1666C203.474 35.736 203.653 36.3796 203.665 37.037C203.677 37.6944 203.522 38.3442 203.215 38.9255C202.908 39.5068 202.458 40.0005 201.907 40.3605C201.357 40.7205 200.725 40.935 200.069 40.9839L199.809 40.9946H178.176C177.519 40.9872 176.875 40.8136 176.304 40.49C175.733 40.1665 175.253 39.7035 174.909 39.1443C174.566 38.5851 174.369 37.9479 174.338 37.2921C174.307 36.6364 174.443 35.9836 174.733 35.3946L174.865 35.1479L185.678 17.0972C186.024 16.5263 186.512 16.0543 187.094 15.7266C187.676 15.3989 188.332 15.2267 189 15.2266ZM189.013 32.9999L188.844 33.0092C188.52 33.0478 188.221 33.2038 188.004 33.4478C187.787 33.6919 187.668 34.0069 187.668 34.3332C187.668 34.6596 187.787 34.9746 188.004 35.2186C188.221 35.4626 188.52 35.6187 188.844 35.6572L189 35.6666L189.169 35.6572C189.493 35.6187 189.792 35.4626 190.008 35.2186C190.225 34.9746 190.345 34.6596 190.345 34.3332C190.345 34.0069 190.225 33.6919 190.008 33.4478C189.792 33.2038 189.493 33.0478 189.169 33.0092L189.013 32.9999ZM189 23.6666C188.673 23.6666 188.358 23.7865 188.114 24.0035C187.87 24.2205 187.714 24.5196 187.676 24.8439L187.666 24.9999V30.3332L187.676 30.4892C187.714 30.8133 187.87 31.112 188.114 31.3287C188.358 31.5454 188.673 31.6651 189 31.6651C189.326 31.6651 189.641 31.5454 189.885 31.3287C190.129 31.112 190.285 30.8133 190.324 30.4892L190.333 30.3332V24.9999L190.324 24.8439C190.285 24.5196 190.129 24.2205 189.885 24.0035C189.641 23.7865 189.326 23.6666 189 23.6666Z" fill="#D9D9D9"/>
</g>
<path d="M40.1951 110.278C41.0091 110.278 41.7205 110.439 42.3291 110.762C42.9378 111.085 43.4071 111.539 43.7371 112.126C44.0745 112.705 44.2431 113.376 44.2431 114.139C44.2431 114.894 44.0745 115.565 43.7371 116.152C43.4071 116.739 42.9341 117.193 42.3181 117.516C41.7095 117.839 41.0018 118 40.1951 118H37.3021V110.278H40.1951ZM40.0741 116.372C40.7855 116.372 41.3391 116.178 41.7351 115.789C42.1311 115.4 42.3291 114.85 42.3291 114.139C42.3291 113.428 42.1311 112.874 41.7351 112.478C41.3391 112.082 40.7855 111.884 40.0741 111.884H39.1831V116.372H40.0741ZM48.0883 118.088C47.487 118.088 46.9443 117.96 46.4603 117.703C45.9836 117.446 45.606 117.08 45.3273 116.603C45.056 116.126 44.9203 115.569 44.9203 114.931C44.9203 114.3 45.0596 113.747 45.3383 113.27C45.617 112.786 45.9983 112.416 46.4823 112.159C46.9663 111.902 47.509 111.774 48.1103 111.774C48.7116 111.774 49.2543 111.902 49.7383 112.159C50.2223 112.416 50.6036 112.786 50.8823 113.27C51.161 113.747 51.3003 114.3 51.3003 114.931C51.3003 115.562 51.1573 116.119 50.8713 116.603C50.5926 117.08 50.2076 117.446 49.7163 117.703C49.2323 117.96 48.6896 118.088 48.0883 118.088ZM48.0883 116.46C48.4476 116.46 48.752 116.328 49.0013 116.064C49.258 115.8 49.3863 115.422 49.3863 114.931C49.3863 114.44 49.2616 114.062 49.0123 113.798C48.7703 113.534 48.4696 113.402 48.1103 113.402C47.7436 113.402 47.4393 113.534 47.1973 113.798C46.9553 114.055 46.8343 114.432 46.8343 114.931C46.8343 115.422 46.9516 115.8 47.1863 116.064C47.4283 116.328 47.729 116.46 48.0883 116.46ZM56.0382 111.796C56.7569 111.796 57.3289 112.031 57.7542 112.5C58.1869 112.962 58.4032 113.6 58.4032 114.414V118H56.5332V114.667C56.5332 114.256 56.4269 113.937 56.2142 113.71C56.0015 113.483 55.7155 113.369 55.3562 113.369C54.9969 113.369 54.7109 113.483 54.4982 113.71C54.2855 113.937 54.1792 114.256 54.1792 114.667V118H52.2982V111.862H54.1792V112.676C54.3699 112.405 54.6265 112.192 54.9492 112.038C55.2719 111.877 55.6349 111.796 56.0382 111.796ZM60.1393 110.278H62.0643L60.8323 113.226H59.5673L60.1393 110.278ZM66.5903 116.405V118H65.6333C64.9513 118 64.4196 117.835 64.0383 117.505C63.657 117.168 63.4663 116.621 63.4663 115.866V113.424H62.7183V111.862H63.4663V110.366H65.3473V111.862H66.5793V113.424H65.3473V115.888C65.3473 116.071 65.3913 116.203 65.4793 116.284C65.5673 116.365 65.714 116.405 65.9193 116.405H66.5903ZM69.5951 114.931C69.5951 114.293 69.7234 113.736 69.9801 113.259C70.2441 112.782 70.6071 112.416 71.0691 112.159C71.5384 111.902 72.0738 111.774 72.6751 111.774C73.4451 111.774 74.0868 111.976 74.6001 112.379C75.1208 112.782 75.4618 113.351 75.6231 114.084H73.6211C73.4524 113.615 73.1261 113.38 72.6421 113.38C72.2974 113.38 72.0224 113.516 71.8171 113.787C71.6118 114.051 71.5091 114.432 71.5091 114.931C71.5091 115.43 71.6118 115.815 71.8171 116.086C72.0224 116.35 72.2974 116.482 72.6421 116.482C73.1261 116.482 73.4524 116.247 73.6211 115.778H75.6231C75.4618 116.497 75.1208 117.061 74.6001 117.472C74.0794 117.883 73.4378 118.088 72.6751 118.088C72.0738 118.088 71.5384 117.96 71.0691 117.703C70.6071 117.446 70.2441 117.08 69.9801 116.603C69.7234 116.126 69.5951 115.569 69.5951 114.931ZM79.4233 118.088C78.8219 118.088 78.2793 117.96 77.7953 117.703C77.3186 117.446 76.9409 117.08 76.6623 116.603C76.3909 116.126 76.2553 115.569 76.2553 114.931C76.2553 114.3 76.3946 113.747 76.6733 113.27C76.9519 112.786 77.3333 112.416 77.8173 112.159C78.3013 111.902 78.8439 111.774 79.4453 111.774C80.0466 111.774 80.5893 111.902 81.0733 112.159C81.5573 112.416 81.9386 112.786 82.2173 113.27C82.4959 113.747 82.6353 114.3 82.6353 114.931C82.6353 115.562 82.4923 116.119 82.2063 116.603C81.9276 117.08 81.5426 117.446 81.0513 117.703C80.5673 117.96 80.0246 118.088 79.4233 118.088ZM79.4233 116.46C79.7826 116.46 80.0869 116.328 80.3363 116.064C80.5929 115.8 80.7213 115.422 80.7213 114.931C80.7213 114.44 80.5966 114.062 80.3473 113.798C80.1053 113.534 79.8046 113.402 79.4453 113.402C79.0786 113.402 78.7743 113.534 78.5323 113.798C78.2903 114.055 78.1693 114.432 78.1693 114.931C78.1693 115.422 78.2866 115.8 78.5213 116.064C78.7633 116.328 79.0639 116.46 79.4233 116.46ZM91.4652 111.796C92.2278 111.796 92.8328 112.027 93.2802 112.489C93.7348 112.951 93.9622 113.593 93.9622 114.414V118H92.0922V114.667C92.0922 114.271 91.9858 113.967 91.7732 113.754C91.5678 113.534 91.2818 113.424 90.9152 113.424C90.5485 113.424 90.2588 113.534 90.0462 113.754C89.8408 113.967 89.7382 114.271 89.7382 114.667V118H87.8682V114.667C87.8682 114.271 87.7618 113.967 87.5492 113.754C87.3438 113.534 87.0578 113.424 86.6912 113.424C86.3245 113.424 86.0348 113.534 85.8222 113.754C85.6168 113.967 85.5142 114.271 85.5142 114.667V118H83.6332V111.862H85.5142V112.632C85.7048 112.375 85.9542 112.174 86.2622 112.027C86.5702 111.873 86.9185 111.796 87.3072 111.796C87.7692 111.796 88.1798 111.895 88.5392 112.093C88.9058 112.291 89.1918 112.573 89.3972 112.94C89.6098 112.603 89.8995 112.328 90.2662 112.115C90.6328 111.902 91.0325 111.796 91.4652 111.796ZM97.1587 112.731C97.342 112.445 97.595 112.214 97.9177 112.038C98.2404 111.862 98.618 111.774 99.0507 111.774C99.5567 111.774 100.015 111.902 100.426 112.159C100.836 112.416 101.159 112.782 101.394 113.259C101.636 113.736 101.757 114.289 101.757 114.92C101.757 115.551 101.636 116.108 101.394 116.592C101.159 117.069 100.836 117.439 100.426 117.703C100.015 117.96 99.5567 118.088 99.0507 118.088C98.6254 118.088 98.2477 118 97.9177 117.824C97.595 117.648 97.342 117.421 97.1587 117.142V120.926H95.2777V111.862H97.1587V112.731ZM99.8427 114.92C99.8427 114.451 99.7107 114.084 99.4467 113.82C99.19 113.549 98.871 113.413 98.4897 113.413C98.1157 113.413 97.7967 113.549 97.5327 113.82C97.276 114.091 97.1477 114.462 97.1477 114.931C97.1477 115.4 97.276 115.771 97.5327 116.042C97.7967 116.313 98.1157 116.449 98.4897 116.449C98.8637 116.449 99.1827 116.313 99.4467 116.042C99.7107 115.763 99.8427 115.389 99.8427 114.92ZM104.625 109.86V118H102.744V109.86H104.625ZM105.614 114.92C105.614 114.289 105.731 113.736 105.966 113.259C106.208 112.782 106.534 112.416 106.945 112.159C107.355 111.902 107.814 111.774 108.32 111.774C108.752 111.774 109.13 111.862 109.453 112.038C109.783 112.214 110.036 112.445 110.212 112.731V111.862H112.093V118H110.212V117.131C110.028 117.417 109.772 117.648 109.442 117.824C109.119 118 108.741 118.088 108.309 118.088C107.81 118.088 107.355 117.96 106.945 117.703C106.534 117.439 106.208 117.069 105.966 116.592C105.731 116.108 105.614 115.551 105.614 114.92ZM110.212 114.931C110.212 114.462 110.08 114.091 109.816 113.82C109.559 113.549 109.244 113.413 108.87 113.413C108.496 113.413 108.177 113.549 107.913 113.82C107.656 114.084 107.528 114.451 107.528 114.92C107.528 115.389 107.656 115.763 107.913 116.042C108.177 116.313 108.496 116.449 108.87 116.449C109.244 116.449 109.559 116.313 109.816 116.042C110.08 115.771 110.212 115.4 110.212 114.931ZM114.399 111.224C114.069 111.224 113.798 111.129 113.585 110.938C113.38 110.74 113.277 110.498 113.277 110.212C113.277 109.919 113.38 109.677 113.585 109.486C113.798 109.288 114.069 109.189 114.399 109.189C114.722 109.189 114.986 109.288 115.191 109.486C115.404 109.677 115.51 109.919 115.51 110.212C115.51 110.498 115.404 110.74 115.191 110.938C114.986 111.129 114.722 111.224 114.399 111.224ZM115.334 111.862V118H113.453V111.862H115.334ZM120.438 111.796C121.156 111.796 121.728 112.031 122.154 112.5C122.586 112.962 122.803 113.6 122.803 114.414V118H120.933V114.667C120.933 114.256 120.826 113.937 120.614 113.71C120.401 113.483 120.115 113.369 119.756 113.369C119.396 113.369 119.11 113.483 118.898 113.71C118.685 113.937 118.579 114.256 118.579 114.667V118H116.698V111.862H118.579V112.676C118.769 112.405 119.026 112.192 119.349 112.038C119.671 111.877 120.034 111.796 120.438 111.796ZM126.134 116.262L124.913 119.419H123.714L124.352 116.262H126.134ZM135.869 111.862L132.019 120.915H129.995L131.403 117.791L128.906 111.862H131.007L132.426 115.701L133.834 111.862H135.869ZM139.343 118.088C138.742 118.088 138.199 117.96 137.715 117.703C137.239 117.446 136.861 117.08 136.582 116.603C136.311 116.126 136.175 115.569 136.175 114.931C136.175 114.3 136.315 113.747 136.593 113.27C136.872 112.786 137.253 112.416 137.737 112.159C138.221 111.902 138.764 111.774 139.365 111.774C139.967 111.774 140.509 111.902 140.993 112.159C141.477 112.416 141.859 112.786 142.137 113.27C142.416 113.747 142.555 114.3 142.555 114.931C142.555 115.562 142.412 116.119 142.126 116.603C141.848 117.08 141.463 117.446 140.971 117.703C140.487 117.96 139.945 118.088 139.343 118.088ZM139.343 116.46C139.703 116.46 140.007 116.328 140.256 116.064C140.513 115.8 140.641 115.422 140.641 114.931C140.641 114.44 140.517 114.062 140.267 113.798C140.025 113.534 139.725 113.402 139.365 113.402C138.999 113.402 138.694 113.534 138.452 113.798C138.21 114.055 138.089 114.432 138.089 114.931C138.089 115.422 138.207 115.8 138.441 116.064C138.683 116.328 138.984 116.46 139.343 116.46ZM149.614 111.862V118H147.733V117.164C147.542 117.435 147.282 117.655 146.952 117.824C146.629 117.985 146.27 118.066 145.874 118.066C145.405 118.066 144.99 117.963 144.631 117.758C144.272 117.545 143.993 117.241 143.795 116.845C143.597 116.449 143.498 115.983 143.498 115.448V111.862H145.368V115.195C145.368 115.606 145.474 115.925 145.687 116.152C145.9 116.379 146.186 116.493 146.545 116.493C146.912 116.493 147.201 116.379 147.414 116.152C147.627 115.925 147.733 115.606 147.733 115.195V111.862H149.614ZM152.922 114.92C152.922 114.289 153.04 113.736 153.274 113.259C153.516 112.782 153.843 112.416 154.253 112.159C154.664 111.902 155.122 111.774 155.628 111.774C156.061 111.774 156.439 111.862 156.761 112.038C157.091 112.214 157.344 112.445 157.52 112.731V111.862H159.401V118H157.52V117.131C157.337 117.417 157.08 117.648 156.75 117.824C156.428 118 156.05 118.088 155.617 118.088C155.119 118.088 154.664 117.96 154.253 117.703C153.843 117.439 153.516 117.069 153.274 116.592C153.04 116.108 152.922 115.551 152.922 114.92ZM157.52 114.931C157.52 114.462 157.388 114.091 157.124 113.82C156.868 113.549 156.552 113.413 156.178 113.413C155.804 113.413 155.485 113.549 155.221 113.82C154.965 114.084 154.836 114.451 154.836 114.92C154.836 115.389 154.965 115.763 155.221 116.042C155.485 116.313 155.804 116.449 156.178 116.449C156.552 116.449 156.868 116.313 157.124 116.042C157.388 115.771 157.52 115.4 157.52 114.931ZM162.643 112.885C162.863 112.548 163.138 112.284 163.468 112.093C163.798 111.895 164.165 111.796 164.568 111.796V113.787H164.051C163.582 113.787 163.23 113.89 162.995 114.095C162.76 114.293 162.643 114.645 162.643 115.151V118H160.762V111.862H162.643V112.885ZM171.253 114.832C171.253 115.008 171.242 115.191 171.22 115.382H166.963C166.992 115.763 167.113 116.057 167.326 116.262C167.546 116.46 167.814 116.559 168.129 116.559C168.598 116.559 168.925 116.361 169.108 115.965H171.11C171.007 116.368 170.82 116.731 170.549 117.054C170.285 117.377 169.951 117.63 169.548 117.813C169.145 117.996 168.694 118.088 168.195 118.088C167.594 118.088 167.058 117.96 166.589 117.703C166.12 117.446 165.753 117.08 165.489 116.603C165.225 116.126 165.093 115.569 165.093 114.931C165.093 114.293 165.221 113.736 165.478 113.259C165.742 112.782 166.109 112.416 166.578 112.159C167.047 111.902 167.586 111.774 168.195 111.774C168.789 111.774 169.317 111.899 169.779 112.148C170.241 112.397 170.6 112.753 170.857 113.215C171.121 113.677 171.253 114.216 171.253 114.832ZM169.328 114.337C169.328 114.014 169.218 113.758 168.998 113.567C168.778 113.376 168.503 113.281 168.173 113.281C167.858 113.281 167.59 113.373 167.37 113.556C167.157 113.739 167.025 114 166.974 114.337H169.328ZM174.203 114.92C174.203 114.289 174.32 113.736 174.555 113.259C174.797 112.782 175.123 112.416 175.534 112.159C175.944 111.902 176.403 111.774 176.909 111.774C177.341 111.774 177.719 111.862 178.042 112.038C178.372 112.214 178.625 112.445 178.801 112.731V111.862H180.682V118H178.801V117.131C178.617 117.417 178.361 117.648 178.031 117.824C177.708 118 177.33 118.088 176.898 118.088C176.399 118.088 175.944 117.96 175.534 117.703C175.123 117.439 174.797 117.069 174.555 116.592C174.32 116.108 174.203 115.551 174.203 114.92ZM178.801 114.931C178.801 114.462 178.669 114.091 178.405 113.82C178.148 113.549 177.833 113.413 177.459 113.413C177.085 113.413 176.766 113.549 176.502 113.82C176.245 114.084 176.117 114.451 176.117 114.92C176.117 115.389 176.245 115.763 176.502 116.042C176.766 116.313 177.085 116.449 177.459 116.449C177.833 116.449 178.148 116.313 178.405 116.042C178.669 115.771 178.801 115.4 178.801 114.931ZM183.999 114.92C183.999 114.289 184.117 113.736 184.351 113.259C184.593 112.782 184.92 112.416 185.33 112.159C185.741 111.902 186.199 111.774 186.705 111.774C187.109 111.774 187.475 111.858 187.805 112.027C188.143 112.196 188.407 112.423 188.597 112.709V109.86H190.478V118H188.597V117.12C188.421 117.413 188.168 117.648 187.838 117.824C187.516 118 187.138 118.088 186.705 118.088C186.199 118.088 185.741 117.96 185.33 117.703C184.92 117.439 184.593 117.069 184.351 116.592C184.117 116.108 183.999 115.551 183.999 114.92ZM188.597 114.931C188.597 114.462 188.465 114.091 188.201 113.82C187.945 113.549 187.629 113.413 187.255 113.413C186.881 113.413 186.562 113.549 186.298 113.82C186.042 114.084 185.913 114.451 185.913 114.92C185.913 115.389 186.042 115.763 186.298 116.042C186.562 116.313 186.881 116.449 187.255 116.449C187.629 116.449 187.945 116.313 188.201 116.042C188.465 115.771 188.597 115.4 188.597 114.931ZM197.625 114.832C197.625 115.008 197.614 115.191 197.592 115.382H193.335C193.365 115.763 193.486 116.057 193.698 116.262C193.918 116.46 194.186 116.559 194.501 116.559C194.971 116.559 195.297 116.361 195.48 115.965H197.482C197.38 116.368 197.193 116.731 196.921 117.054C196.657 117.377 196.324 117.63 195.92 117.813C195.517 117.996 195.066 118.088 194.567 118.088C193.966 118.088 193.431 117.96 192.961 117.703C192.492 117.446 192.125 117.08 191.861 116.603C191.597 116.126 191.465 115.569 191.465 114.931C191.465 114.293 191.594 113.736 191.85 113.259C192.114 112.782 192.481 112.416 192.95 112.159C193.42 111.902 193.959 111.774 194.567 111.774C195.161 111.774 195.689 111.899 196.151 112.148C196.613 112.397 196.973 112.753 197.229 113.215C197.493 113.677 197.625 114.216 197.625 114.832ZM195.7 114.337C195.7 114.014 195.59 113.758 195.37 113.567C195.15 113.376 194.875 113.281 194.545 113.281C194.23 113.281 193.962 113.373 193.742 113.556C193.53 113.739 193.398 114 193.346 114.337H195.7ZM201.379 116.24L202.71 111.862H204.712L202.534 118H200.213L198.035 111.862H200.048L201.379 116.24ZM211.289 114.832C211.289 115.008 211.278 115.191 211.256 115.382H206.999C207.029 115.763 207.15 116.057 207.362 116.262C207.582 116.46 207.85 116.559 208.165 116.559C208.635 116.559 208.961 116.361 209.144 115.965H211.146C211.044 116.368 210.857 116.731 210.585 117.054C210.321 117.377 209.988 117.63 209.584 117.813C209.181 117.996 208.73 118.088 208.231 118.088C207.63 118.088 207.095 117.96 206.625 117.703C206.156 117.446 205.789 117.08 205.525 116.603C205.261 116.126 205.129 115.569 205.129 114.931C205.129 114.293 205.258 113.736 205.514 113.259C205.778 112.782 206.145 112.416 206.614 112.159C207.084 111.902 207.623 111.774 208.231 111.774C208.825 111.774 209.353 111.899 209.815 112.148C210.277 112.397 210.637 112.753 210.893 113.215C211.157 113.677 211.289 114.216 211.289 114.832ZM209.364 114.337C209.364 114.014 209.254 113.758 209.034 113.567C208.814 113.376 208.539 113.281 208.209 113.281C207.894 113.281 207.626 113.373 207.406 113.556C207.194 113.739 207.062 114 207.01 114.337H209.364ZM214.163 109.86V118H212.282V109.86H214.163ZM218.32 118.088C217.718 118.088 217.176 117.96 216.692 117.703C216.215 117.446 215.837 117.08 215.559 116.603C215.287 116.126 215.152 115.569 215.152 114.931C215.152 114.3 215.291 113.747 215.57 113.27C215.848 112.786 216.23 112.416 216.714 112.159C217.198 111.902 217.74 111.774 218.342 111.774C218.943 111.774 219.486 111.902 219.97 112.159C220.454 112.416 220.835 112.786 221.114 113.27C221.392 113.747 221.532 114.3 221.532 114.931C221.532 115.562 221.389 116.119 221.103 116.603C220.824 117.08 220.439 117.446 219.948 117.703C219.464 117.96 218.921 118.088 218.32 118.088ZM218.32 116.46C218.679 116.46 218.983 116.328 219.233 116.064C219.489 115.8 219.618 115.422 219.618 114.931C219.618 114.44 219.493 114.062 219.244 113.798C219.002 113.534 218.701 113.402 218.342 113.402C217.975 113.402 217.671 113.534 217.429 113.798C217.187 114.055 217.066 114.432 217.066 114.931C217.066 115.422 217.183 115.8 217.418 116.064C217.66 116.328 217.96 116.46 218.32 116.46ZM224.411 112.731C224.594 112.445 224.847 112.214 225.17 112.038C225.492 111.862 225.87 111.774 226.303 111.774C226.809 111.774 227.267 111.902 227.678 112.159C228.088 112.416 228.411 112.782 228.646 113.259C228.888 113.736 229.009 114.289 229.009 114.92C229.009 115.551 228.888 116.108 228.646 116.592C228.411 117.069 228.088 117.439 227.678 117.703C227.267 117.96 226.809 118.088 226.303 118.088C225.877 118.088 225.5 118 225.17 117.824C224.847 117.648 224.594 117.421 224.411 117.142V120.926H222.53V111.862H224.411V112.731ZM227.095 114.92C227.095 114.451 226.963 114.084 226.699 113.82C226.442 113.549 226.123 113.413 225.742 113.413C225.368 113.413 225.049 113.549 224.785 113.82C224.528 114.091 224.4 114.462 224.4 114.931C224.4 115.4 224.528 115.771 224.785 116.042C225.049 116.313 225.368 116.449 225.742 116.449C226.116 116.449 226.435 116.313 226.699 116.042C226.963 115.763 227.095 115.389 227.095 114.92ZM235.781 114.832C235.781 115.008 235.77 115.191 235.748 115.382H231.491C231.521 115.763 231.642 116.057 231.854 116.262C232.074 116.46 232.342 116.559 232.657 116.559C233.127 116.559 233.453 116.361 233.636 115.965H235.638C235.536 116.368 235.349 116.731 235.077 117.054C234.813 117.377 234.48 117.63 234.076 117.813C233.673 117.996 233.222 118.088 232.723 118.088C232.122 118.088 231.587 117.96 231.117 117.703C230.648 117.446 230.281 117.08 230.017 116.603C229.753 116.126 229.621 115.569 229.621 114.931C229.621 114.293 229.75 113.736 230.006 113.259C230.27 112.782 230.637 112.416 231.106 112.159C231.576 111.902 232.115 111.774 232.723 111.774C233.317 111.774 233.845 111.899 234.307 112.148C234.769 112.397 235.129 112.753 235.385 113.215C235.649 113.677 235.781 114.216 235.781 114.832ZM233.856 114.337C233.856 114.014 233.746 113.758 233.526 113.567C233.306 113.376 233.031 113.281 232.701 113.281C232.386 113.281 232.118 113.373 231.898 113.556C231.686 113.739 231.554 114 231.502 114.337H233.856ZM238.655 112.885C238.875 112.548 239.15 112.284 239.48 112.093C239.81 111.895 240.176 111.796 240.58 111.796V113.787H240.063C239.593 113.787 239.241 113.89 239.007 114.095C238.772 114.293 238.655 114.645 238.655 115.151V118H236.774V111.862H238.655V112.885ZM243.503 116.262L242.282 119.419H241.083L241.721 116.262H243.503ZM253.238 111.862L249.388 120.915H247.364L248.772 117.791L246.275 111.862H248.376L249.795 115.701L251.203 111.862H253.238ZM256.712 118.088C256.111 118.088 255.568 117.96 255.084 117.703C254.608 117.446 254.23 117.08 253.951 116.603C253.68 116.126 253.544 115.569 253.544 114.931C253.544 114.3 253.684 113.747 253.962 113.27C254.241 112.786 254.622 112.416 255.106 112.159C255.59 111.902 256.133 111.774 256.734 111.774C257.336 111.774 257.878 111.902 258.362 112.159C258.846 112.416 259.228 112.786 259.506 113.27C259.785 113.747 259.924 114.3 259.924 114.931C259.924 115.562 259.781 116.119 259.495 116.603C259.217 117.08 258.832 117.446 258.34 117.703C257.856 117.96 257.314 118.088 256.712 118.088ZM256.712 116.46C257.072 116.46 257.376 116.328 257.625 116.064C257.882 115.8 258.01 115.422 258.01 114.931C258.01 114.44 257.886 114.062 257.636 113.798C257.394 113.534 257.094 113.402 256.734 113.402C256.368 113.402 256.063 113.534 255.821 113.798C255.579 114.055 255.458 114.432 255.458 114.931C255.458 115.422 255.576 115.8 255.81 116.064C256.052 116.328 256.353 116.46 256.712 116.46ZM266.983 111.862V118H265.102V117.164C264.912 117.435 264.651 117.655 264.321 117.824C263.999 117.985 263.639 118.066 263.243 118.066C262.774 118.066 262.36 117.963 262 117.758C261.641 117.545 261.362 117.241 261.164 116.845C260.966 116.449 260.867 115.983 260.867 115.448V111.862H262.737V115.195C262.737 115.606 262.844 115.925 263.056 116.152C263.269 116.379 263.555 116.493 263.914 116.493C264.281 116.493 264.571 116.379 264.783 116.152C264.996 115.925 265.102 115.606 265.102 115.195V111.862H266.983ZM272.546 109.86V118H270.665V109.86H272.546ZM274.856 111.224C274.526 111.224 274.254 111.129 274.042 110.938C273.836 110.74 273.734 110.498 273.734 110.212C273.734 109.919 273.836 109.677 274.042 109.486C274.254 109.288 274.526 109.189 274.856 109.189C275.178 109.189 275.442 109.288 275.648 109.486C275.86 109.677 275.967 109.919 275.967 110.212C275.967 110.498 275.86 110.74 275.648 110.938C275.442 111.129 275.178 111.224 274.856 111.224ZM275.791 111.862V118H273.91V111.862H275.791ZM280.905 118L279.035 115.426V118H277.154V109.86H279.035V114.359L280.894 111.862H283.215L280.663 114.942L283.237 118H280.905ZM289.739 114.832C289.739 115.008 289.728 115.191 289.706 115.382H285.449C285.479 115.763 285.6 116.057 285.812 116.262C286.032 116.46 286.3 116.559 286.615 116.559C287.085 116.559 287.411 116.361 287.594 115.965H289.596C289.494 116.368 289.307 116.731 289.035 117.054C288.771 117.377 288.438 117.63 288.034 117.813C287.631 117.996 287.18 118.088 286.681 118.088C286.08 118.088 285.545 117.96 285.075 117.703C284.606 117.446 284.239 117.08 283.975 116.603C283.711 116.126 283.579 115.569 283.579 114.931C283.579 114.293 283.708 113.736 283.964 113.259C284.228 112.782 284.595 112.416 285.064 112.159C285.534 111.902 286.073 111.774 286.681 111.774C287.275 111.774 287.803 111.899 288.265 112.148C288.727 112.397 289.087 112.753 289.343 113.215C289.607 113.677 289.739 114.216 289.739 114.832ZM287.814 114.337C287.814 114.014 287.704 113.758 287.484 113.567C287.264 113.376 286.989 113.281 286.659 113.281C286.344 113.281 286.076 113.373 285.856 113.556C285.644 113.739 285.512 114 285.46 114.337H287.814ZM292.689 114.92C292.689 114.289 292.806 113.736 293.041 113.259C293.283 112.782 293.609 112.416 294.02 112.159C294.431 111.902 294.889 111.774 295.395 111.774C295.798 111.774 296.165 111.858 296.495 112.027C296.832 112.196 297.096 112.423 297.287 112.709V109.86H299.168V118H297.287V117.12C297.111 117.413 296.858 117.648 296.528 117.824C296.205 118 295.828 118.088 295.395 118.088C294.889 118.088 294.431 117.96 294.02 117.703C293.609 117.439 293.283 117.069 293.041 116.592C292.806 116.108 292.689 115.551 292.689 114.92ZM297.287 114.931C297.287 114.462 297.155 114.091 296.891 113.82C296.634 113.549 296.319 113.413 295.945 113.413C295.571 113.413 295.252 113.549 294.988 113.82C294.731 114.084 294.603 114.451 294.603 114.92C294.603 115.389 294.731 115.763 294.988 116.042C295.252 116.313 295.571 116.449 295.945 116.449C296.319 116.449 296.634 116.313 296.891 116.042C297.155 115.771 297.287 115.4 297.287 114.931ZM300.155 114.92C300.155 114.289 300.272 113.736 300.507 113.259C300.749 112.782 301.075 112.416 301.486 112.159C301.896 111.902 302.355 111.774 302.861 111.774C303.293 111.774 303.671 111.862 303.994 112.038C304.324 112.214 304.577 112.445 304.753 112.731V111.862H306.634V118H304.753V117.131C304.569 117.417 304.313 117.648 303.983 117.824C303.66 118 303.282 118.088 302.85 118.088C302.351 118.088 301.896 117.96 301.486 117.703C301.075 117.439 300.749 117.069 300.507 116.592C300.272 116.108 300.155 115.551 300.155 114.92ZM304.753 114.931C304.753 114.462 304.621 114.091 304.357 113.82C304.1 113.549 303.785 113.413 303.411 113.413C303.037 113.413 302.718 113.549 302.454 113.82C302.197 114.084 302.069 114.451 302.069 114.92C302.069 115.389 302.197 115.763 302.454 116.042C302.718 116.313 303.037 116.449 303.411 116.449C303.785 116.449 304.1 116.313 304.357 116.042C304.621 115.771 304.753 115.4 304.753 114.931ZM309.876 112.885C310.096 112.548 310.371 112.284 310.701 112.093C311.031 111.895 311.397 111.796 311.801 111.796V113.787H311.284C310.814 113.787 310.462 113.89 310.228 114.095C309.993 114.293 309.876 114.645 309.876 115.151V118H307.995V111.862H309.876V112.885ZM316.451 118L314.581 115.426V118H312.7V109.86H314.581V114.359L316.44 111.862H318.761L316.209 114.942L318.783 118H316.451ZM323.239 111.796C323.958 111.796 324.53 112.031 324.955 112.5C325.388 112.962 325.604 113.6 325.604 114.414V118H323.734V114.667C323.734 114.256 323.628 113.937 323.415 113.71C323.203 113.483 322.917 113.369 322.557 113.369C322.198 113.369 321.912 113.483 321.699 113.71C321.487 113.937 321.38 114.256 321.38 114.667V118H319.499V111.862H321.38V112.676C321.571 112.405 321.828 112.192 322.15 112.038C322.473 111.877 322.836 111.796 323.239 111.796ZM332.697 114.832C332.697 115.008 332.686 115.191 332.664 115.382H328.407C328.437 115.763 328.558 116.057 328.77 116.262C328.99 116.46 329.258 116.559 329.573 116.559C330.043 116.559 330.369 116.361 330.552 115.965H332.554C332.452 116.368 332.265 116.731 331.993 117.054C331.729 117.377 331.396 117.63 330.992 117.813C330.589 117.996 330.138 118.088 329.639 118.088C329.038 118.088 328.503 117.96 328.033 117.703C327.564 117.446 327.197 117.08 326.933 116.603C326.669 116.126 326.537 115.569 326.537 114.931C326.537 114.293 326.666 113.736 326.922 113.259C327.186 112.782 327.553 112.416 328.022 112.159C328.492 111.902 329.031 111.774 329.639 111.774C330.233 111.774 330.761 111.899 331.223 112.148C331.685 112.397 332.045 112.753 332.301 113.215C332.565 113.677 332.697 114.216 332.697 114.832ZM330.772 114.337C330.772 114.014 330.662 113.758 330.442 113.567C330.222 113.376 329.947 113.281 329.617 113.281C329.302 113.281 329.034 113.373 328.814 113.556C328.602 113.739 328.47 114 328.418 114.337H330.772ZM336.187 118.088C335.651 118.088 335.175 117.996 334.757 117.813C334.339 117.63 334.009 117.38 333.767 117.065C333.525 116.742 333.389 116.383 333.36 115.987H335.219C335.241 116.2 335.34 116.372 335.516 116.504C335.692 116.636 335.908 116.702 336.165 116.702C336.399 116.702 336.579 116.658 336.704 116.57C336.836 116.475 336.902 116.354 336.902 116.207C336.902 116.031 336.81 115.903 336.627 115.822C336.443 115.734 336.146 115.639 335.736 115.536C335.296 115.433 334.929 115.327 334.636 115.217C334.342 115.1 334.089 114.92 333.877 114.678C333.664 114.429 333.558 114.095 333.558 113.677C333.558 113.325 333.653 113.006 333.844 112.72C334.042 112.427 334.328 112.196 334.702 112.027C335.083 111.858 335.534 111.774 336.055 111.774C336.825 111.774 337.43 111.965 337.87 112.346C338.317 112.727 338.574 113.233 338.64 113.864H336.902C336.872 113.651 336.777 113.483 336.616 113.358C336.462 113.233 336.256 113.171 336 113.171C335.78 113.171 335.611 113.215 335.494 113.303C335.376 113.384 335.318 113.497 335.318 113.644C335.318 113.82 335.409 113.952 335.593 114.04C335.783 114.128 336.077 114.216 336.473 114.304C336.927 114.421 337.298 114.539 337.584 114.656C337.87 114.766 338.119 114.949 338.332 115.206C338.552 115.455 338.665 115.793 338.673 116.218C338.673 116.577 338.57 116.9 338.365 117.186C338.167 117.465 337.877 117.685 337.496 117.846C337.122 118.007 336.685 118.088 336.187 118.088ZM342.321 118.088C341.785 118.088 341.309 117.996 340.891 117.813C340.473 117.63 340.143 117.38 339.901 117.065C339.659 116.742 339.523 116.383 339.494 115.987H341.353C341.375 116.2 341.474 116.372 341.65 116.504C341.826 116.636 342.042 116.702 342.299 116.702C342.533 116.702 342.713 116.658 342.838 116.57C342.97 116.475 343.036 116.354 343.036 116.207C343.036 116.031 342.944 115.903 342.761 115.822C342.577 115.734 342.28 115.639 341.87 115.536C341.43 115.433 341.063 115.327 340.77 115.217C340.476 115.1 340.223 114.92 340.011 114.678C339.798 114.429 339.692 114.095 339.692 113.677C339.692 113.325 339.787 113.006 339.978 112.72C340.176 112.427 340.462 112.196 340.836 112.027C341.217 111.858 341.668 111.774 342.189 111.774C342.959 111.774 343.564 111.965 344.004 112.346C344.451 112.727 344.708 113.233 344.774 113.864H343.036C343.006 113.651 342.911 113.483 342.75 113.358C342.596 113.233 342.39 113.171 342.134 113.171C341.914 113.171 341.745 113.215 341.628 113.303C341.51 113.384 341.452 113.497 341.452 113.644C341.452 113.82 341.543 113.952 341.727 114.04C341.917 114.128 342.211 114.216 342.607 114.304C343.061 114.421 343.432 114.539 343.718 114.656C344.004 114.766 344.253 114.949 344.466 115.206C344.686 115.455 344.799 115.793 344.807 116.218C344.807 116.577 344.704 116.9 344.499 117.186C344.301 117.465 344.011 117.685 343.63 117.846C343.256 118.007 342.819 118.088 342.321 118.088ZM346.837 118.088C346.507 118.088 346.236 117.993 346.023 117.802C345.818 117.604 345.715 117.362 345.715 117.076C345.715 116.783 345.818 116.537 346.023 116.339C346.236 116.141 346.507 116.042 346.837 116.042C347.16 116.042 347.424 116.141 347.629 116.339C347.842 116.537 347.948 116.783 347.948 117.076C347.948 117.362 347.842 117.604 347.629 117.802C347.424 117.993 347.16 118.088 346.837 118.088Z" fill="#D9D9D9"/>
<path d="M89.8262 62.47C90.9362 62.47 91.9062 62.69 92.7362 63.13C93.5662 63.57 94.2062 64.19 94.6562 64.99C95.1162 65.78 95.3462 66.695 95.3462 67.735C95.3462 68.765 95.1162 69.68 94.6562 70.48C94.2062 71.28 93.5612 71.9 92.7212 72.34C91.8912 72.78 90.9262 73 89.8262 73H85.8812V62.47H89.8262ZM89.6612 70.78C90.6312 70.78 91.3862 70.515 91.9262 69.985C92.4662 69.455 92.7362 68.705 92.7362 67.735C92.7362 66.765 92.4662 66.01 91.9262 65.47C91.3862 64.93 90.6312 64.66 89.6612 64.66H88.4462V70.78H89.6612ZM96.2696 68.8C96.2696 67.94 96.4296 67.185 96.7496 66.535C97.0796 65.885 97.5246 65.385 98.0846 65.035C98.6446 64.685 99.2696 64.51 99.9596 64.51C100.55 64.51 101.065 64.63 101.505 64.87C101.955 65.11 102.3 65.425 102.54 65.815V64.63H105.105V73H102.54V71.815C102.29 72.205 101.94 72.52 101.49 72.76C101.05 73 100.535 73.12 99.9446 73.12C99.2646 73.12 98.6446 72.945 98.0846 72.595C97.5246 72.235 97.0796 71.73 96.7496 71.08C96.4296 70.42 96.2696 69.66 96.2696 68.8ZM102.54 68.815C102.54 68.175 102.36 67.67 102 67.3C101.65 66.93 101.22 66.745 100.71 66.745C100.2 66.745 99.7646 66.93 99.4046 67.3C99.0546 67.66 98.8796 68.16 98.8796 68.8C98.8796 69.44 99.0546 69.95 99.4046 70.33C99.7646 70.7 100.2 70.885 100.71 70.885C101.22 70.885 101.65 70.7 102 70.33C102.36 69.96 102.54 69.455 102.54 68.815ZM109.525 66.025C109.825 65.565 110.2 65.205 110.65 64.945C111.1 64.675 111.6 64.54 112.15 64.54V67.255H111.445C110.805 67.255 110.325 67.395 110.005 67.675C109.685 67.945 109.525 68.425 109.525 69.115V73H106.96V64.63H109.525V66.025ZM118.491 73L115.941 69.49V73H113.376V61.9H115.941V68.035L118.476 64.63H121.641L118.161 68.83L121.671 73H118.491ZM136.507 64.54C137.547 64.54 138.372 64.855 138.982 65.485C139.602 66.115 139.912 66.99 139.912 68.11V73H137.362V68.455C137.362 67.915 137.217 67.5 136.927 67.21C136.647 66.91 136.257 66.76 135.757 66.76C135.257 66.76 134.862 66.91 134.572 67.21C134.292 67.5 134.152 67.915 134.152 68.455V73H131.602V68.455C131.602 67.915 131.457 67.5 131.167 67.21C130.887 66.91 130.497 66.76 129.997 66.76C129.497 66.76 129.102 66.91 128.812 67.21C128.532 67.5 128.392 67.915 128.392 68.455V73H125.827V64.63H128.392V65.68C128.652 65.33 128.992 65.055 129.412 64.855C129.832 64.645 130.307 64.54 130.837 64.54C131.467 64.54 132.027 64.675 132.517 64.945C133.017 65.215 133.407 65.6 133.687 66.1C133.977 65.64 134.372 65.265 134.872 64.975C135.372 64.685 135.917 64.54 136.507 64.54ZM145.516 73.12C144.696 73.12 143.956 72.945 143.296 72.595C142.646 72.245 142.131 71.745 141.751 71.095C141.381 70.445 141.196 69.685 141.196 68.815C141.196 67.955 141.386 67.2 141.766 66.55C142.146 65.89 142.666 65.385 143.326 65.035C143.986 64.685 144.726 64.51 145.546 64.51C146.366 64.51 147.106 64.685 147.766 65.035C148.426 65.385 148.946 65.89 149.326 66.55C149.706 67.2 149.896 67.955 149.896 68.815C149.896 69.675 149.701 70.435 149.311 71.095C148.931 71.745 148.406 72.245 147.736 72.595C147.076 72.945 146.336 73.12 145.516 73.12ZM145.516 70.9C146.006 70.9 146.421 70.72 146.761 70.36C147.111 70 147.286 69.485 147.286 68.815C147.286 68.145 147.116 67.63 146.776 67.27C146.446 66.91 146.036 66.73 145.546 66.73C145.046 66.73 144.631 66.91 144.301 67.27C143.971 67.62 143.806 68.135 143.806 68.815C143.806 69.485 143.966 70 144.286 70.36C144.616 70.72 145.026 70.9 145.516 70.9ZM150.747 68.8C150.747 67.94 150.907 67.185 151.227 66.535C151.557 65.885 152.002 65.385 152.562 65.035C153.122 64.685 153.747 64.51 154.437 64.51C154.987 64.51 155.487 64.625 155.937 64.855C156.397 65.085 156.757 65.395 157.017 65.785V61.9H159.582V73H157.017V71.8C156.777 72.2 156.432 72.52 155.982 72.76C155.542 73 155.027 73.12 154.437 73.12C153.747 73.12 153.122 72.945 152.562 72.595C152.002 72.235 151.557 71.73 151.227 71.08C150.907 70.42 150.747 69.66 150.747 68.8ZM157.017 68.815C157.017 68.175 156.837 67.67 156.477 67.3C156.127 66.93 155.697 66.745 155.187 66.745C154.677 66.745 154.242 66.93 153.882 67.3C153.532 67.66 153.357 68.16 153.357 68.8C153.357 69.44 153.532 69.95 153.882 70.33C154.242 70.7 154.677 70.885 155.187 70.885C155.697 70.885 156.127 70.7 156.477 70.33C156.837 69.96 157.017 69.455 157.017 68.815ZM169.328 68.68C169.328 68.92 169.313 69.17 169.283 69.43H163.478C163.518 69.95 163.683 70.35 163.973 70.63C164.273 70.9 164.638 71.035 165.068 71.035C165.708 71.035 166.153 70.765 166.403 70.225H169.133C168.993 70.775 168.738 71.27 168.368 71.71C168.008 72.15 167.553 72.495 167.003 72.745C166.453 72.995 165.838 73.12 165.158 73.12C164.338 73.12 163.608 72.945 162.968 72.595C162.328 72.245 161.828 71.745 161.468 71.095C161.108 70.445 160.928 69.685 160.928 68.815C160.928 67.945 161.103 67.185 161.453 66.535C161.813 65.885 162.313 65.385 162.953 65.035C163.593 64.685 164.328 64.51 165.158 64.51C165.968 64.51 166.688 64.68 167.318 65.02C167.948 65.36 168.438 65.845 168.788 66.475C169.148 67.105 169.328 67.84 169.328 68.68ZM166.703 68.005C166.703 67.565 166.553 67.215 166.253 66.955C165.953 66.695 165.578 66.565 165.128 66.565C164.698 66.565 164.333 66.69 164.033 66.94C163.743 67.19 163.563 67.545 163.493 68.005H166.703ZM175.15 63.76C174.7 63.76 174.33 63.63 174.04 63.37C173.76 63.1 173.62 62.77 173.62 62.38C173.62 61.98 173.76 61.65 174.04 61.39C174.33 61.12 174.7 60.985 175.15 60.985C175.59 60.985 175.95 61.12 176.23 61.39C176.52 61.65 176.665 61.98 176.665 62.38C176.665 62.77 176.52 63.1 176.23 63.37C175.95 63.63 175.59 63.76 175.15 63.76ZM176.425 64.63V73H173.86V64.63H176.425ZM183.384 64.54C184.364 64.54 185.144 64.86 185.724 65.5C186.314 66.13 186.609 67 186.609 68.11V73H184.059V68.455C184.059 67.895 183.914 67.46 183.624 67.15C183.334 66.84 182.944 66.685 182.454 66.685C181.964 66.685 181.574 66.84 181.284 67.15C180.994 67.46 180.849 67.895 180.849 68.455V73H178.284V64.63H180.849V65.74C181.109 65.37 181.459 65.08 181.899 64.87C182.339 64.65 182.834 64.54 183.384 64.54ZM191.06 68.8C191.06 67.94 191.22 67.185 191.54 66.535C191.87 65.885 192.315 65.385 192.875 65.035C193.435 64.685 194.06 64.51 194.75 64.51C195.3 64.51 195.8 64.625 196.25 64.855C196.71 65.085 197.07 65.395 197.33 65.785V61.9H199.895V73H197.33V71.8C197.09 72.2 196.745 72.52 196.295 72.76C195.855 73 195.34 73.12 194.75 73.12C194.06 73.12 193.435 72.945 192.875 72.595C192.315 72.235 191.87 71.73 191.54 71.08C191.22 70.42 191.06 69.66 191.06 68.8ZM197.33 68.815C197.33 68.175 197.15 67.67 196.79 67.3C196.44 66.93 196.01 66.745 195.5 66.745C194.99 66.745 194.555 66.93 194.195 67.3C193.845 67.66 193.67 68.16 193.67 68.8C193.67 69.44 193.845 69.95 194.195 70.33C194.555 70.7 194.99 70.885 195.5 70.885C196.01 70.885 196.44 70.7 196.79 70.33C197.15 69.96 197.33 69.455 197.33 68.815ZM209.64 68.68C209.64 68.92 209.625 69.17 209.595 69.43H203.79C203.83 69.95 203.995 70.35 204.285 70.63C204.585 70.9 204.95 71.035 205.38 71.035C206.02 71.035 206.465 70.765 206.715 70.225H209.445C209.305 70.775 209.05 71.27 208.68 71.71C208.32 72.15 207.865 72.495 207.315 72.745C206.765 72.995 206.15 73.12 205.47 73.12C204.65 73.12 203.92 72.945 203.28 72.595C202.64 72.245 202.14 71.745 201.78 71.095C201.42 70.445 201.24 69.685 201.24 68.815C201.24 67.945 201.415 67.185 201.765 66.535C202.125 65.885 202.625 65.385 203.265 65.035C203.905 64.685 204.64 64.51 205.47 64.51C206.28 64.51 207 64.68 207.63 65.02C208.26 65.36 208.75 65.845 209.1 66.475C209.46 67.105 209.64 67.84 209.64 68.68ZM207.015 68.005C207.015 67.565 206.865 67.215 206.565 66.955C206.265 66.695 205.89 66.565 205.44 66.565C205.01 66.565 204.645 66.69 204.345 66.94C204.055 67.19 203.875 67.545 203.805 68.005H207.015ZM214.758 70.6L216.573 64.63H219.303L216.333 73H213.168L210.198 64.63H212.943L214.758 70.6ZM228.273 68.68C228.273 68.92 228.258 69.17 228.228 69.43H222.423C222.463 69.95 222.628 70.35 222.918 70.63C223.218 70.9 223.583 71.035 224.013 71.035C224.653 71.035 225.098 70.765 225.348 70.225H228.078C227.938 70.775 227.683 71.27 227.313 71.71C226.953 72.15 226.498 72.495 225.948 72.745C225.398 72.995 224.783 73.12 224.103 73.12C223.283 73.12 222.553 72.945 221.913 72.595C221.273 72.245 220.773 71.745 220.413 71.095C220.053 70.445 219.873 69.685 219.873 68.815C219.873 67.945 220.048 67.185 220.398 66.535C220.758 65.885 221.258 65.385 221.898 65.035C222.538 64.685 223.273 64.51 224.103 64.51C224.913 64.51 225.633 64.68 226.263 65.02C226.893 65.36 227.383 65.845 227.733 66.475C228.093 67.105 228.273 67.84 228.273 68.68ZM225.648 68.005C225.648 67.565 225.498 67.215 225.198 66.955C224.898 66.695 224.523 66.565 224.073 66.565C223.643 66.565 223.278 66.69 222.978 66.94C222.688 67.19 222.508 67.545 222.438 68.005H225.648ZM232.191 61.9V73H229.626V61.9H232.191ZM237.86 73.12C237.04 73.12 236.3 72.945 235.64 72.595C234.99 72.245 234.475 71.745 234.095 71.095C233.725 70.445 233.54 69.685 233.54 68.815C233.54 67.955 233.73 67.2 234.11 66.55C234.49 65.89 235.01 65.385 235.67 65.035C236.33 64.685 237.07 64.51 237.89 64.51C238.71 64.51 239.45 64.685 240.11 65.035C240.77 65.385 241.29 65.89 241.67 66.55C242.05 67.2 242.24 67.955 242.24 68.815C242.24 69.675 242.045 70.435 241.655 71.095C241.275 71.745 240.75 72.245 240.08 72.595C239.42 72.945 238.68 73.12 237.86 73.12ZM237.86 70.9C238.35 70.9 238.765 70.72 239.105 70.36C239.455 70 239.63 69.485 239.63 68.815C239.63 68.145 239.46 67.63 239.12 67.27C238.79 66.91 238.38 66.73 237.89 66.73C237.39 66.73 236.975 66.91 236.645 67.27C236.315 67.62 236.15 68.135 236.15 68.815C236.15 69.485 236.31 70 236.63 70.36C236.96 70.72 237.37 70.9 237.86 70.9ZM246.166 65.815C246.416 65.425 246.761 65.11 247.201 64.87C247.641 64.63 248.156 64.51 248.746 64.51C249.436 64.51 250.061 64.685 250.621 65.035C251.181 65.385 251.621 65.885 251.941 66.535C252.271 67.185 252.436 67.94 252.436 68.8C252.436 69.66 252.271 70.42 251.941 71.08C251.621 71.73 251.181 72.235 250.621 72.595C250.061 72.945 249.436 73.12 248.746 73.12C248.166 73.12 247.651 73 247.201 72.76C246.761 72.52 246.416 72.21 246.166 71.83V76.99H243.601V64.63H246.166V65.815ZM249.826 68.8C249.826 68.16 249.646 67.66 249.286 67.3C248.936 66.93 248.501 66.745 247.981 66.745C247.471 66.745 247.036 66.93 246.676 67.3C246.326 67.67 246.151 68.175 246.151 68.815C246.151 69.455 246.326 69.96 246.676 70.33C247.036 70.7 247.471 70.885 247.981 70.885C248.491 70.885 248.926 70.7 249.286 70.33C249.646 69.95 249.826 69.44 249.826 68.8ZM264.462 64.54C265.502 64.54 266.327 64.855 266.937 65.485C267.557 66.115 267.867 66.99 267.867 68.11V73H265.317V68.455C265.317 67.915 265.172 67.5 264.882 67.21C264.602 66.91 264.212 66.76 263.712 66.76C263.212 66.76 262.817 66.91 262.527 67.21C262.247 67.5 262.107 67.915 262.107 68.455V73H259.557V68.455C259.557 67.915 259.412 67.5 259.122 67.21C258.842 66.91 258.452 66.76 257.952 66.76C257.452 66.76 257.057 66.91 256.767 67.21C256.487 67.5 256.347 67.915 256.347 68.455V73H253.782V64.63H256.347V65.68C256.607 65.33 256.947 65.055 257.367 64.855C257.787 64.645 258.262 64.54 258.792 64.54C259.422 64.54 259.982 64.675 260.472 64.945C260.972 65.215 261.362 65.6 261.642 66.1C261.932 65.64 262.327 65.265 262.827 64.975C263.327 64.685 263.872 64.54 264.462 64.54ZM277.55 68.68C277.55 68.92 277.535 69.17 277.505 69.43H271.7C271.74 69.95 271.905 70.35 272.195 70.63C272.495 70.9 272.86 71.035 273.29 71.035C273.93 71.035 274.375 70.765 274.625 70.225H277.355C277.215 70.775 276.96 71.27 276.59 71.71C276.23 72.15 275.775 72.495 275.225 72.745C274.675 72.995 274.06 73.12 273.38 73.12C272.56 73.12 271.83 72.945 271.19 72.595C270.55 72.245 270.05 71.745 269.69 71.095C269.33 70.445 269.15 69.685 269.15 68.815C269.15 67.945 269.325 67.185 269.675 66.535C270.035 65.885 270.535 65.385 271.175 65.035C271.815 64.685 272.55 64.51 273.38 64.51C274.19 64.51 274.91 64.68 275.54 65.02C276.17 65.36 276.66 65.845 277.01 66.475C277.37 67.105 277.55 67.84 277.55 68.68ZM274.925 68.005C274.925 67.565 274.775 67.215 274.475 66.955C274.175 66.695 273.8 66.565 273.35 66.565C272.92 66.565 272.555 66.69 272.255 66.94C271.965 67.19 271.785 67.545 271.715 68.005H274.925ZM284.004 64.54C284.984 64.54 285.764 64.86 286.344 65.5C286.934 66.13 287.229 67 287.229 68.11V73H284.679V68.455C284.679 67.895 284.534 67.46 284.244 67.15C283.954 66.84 283.564 66.685 283.074 66.685C282.584 66.685 282.194 66.84 281.904 67.15C281.614 67.46 281.469 67.895 281.469 68.455V73H278.904V64.63H281.469V65.74C281.729 65.37 282.079 65.08 282.519 64.87C282.959 64.65 283.454 64.54 284.004 64.54ZM293.676 70.825V73H292.371C291.441 73 290.716 72.775 290.196 72.325C289.676 71.865 289.416 71.12 289.416 70.09V66.76H288.396V64.63H289.416V62.59H291.981V64.63H293.661V66.76H291.981V70.12C291.981 70.37 292.041 70.55 292.161 70.66C292.281 70.77 292.481 70.825 292.761 70.825H293.676ZM298.48 62.095L298.18 69.28H296.005L295.705 62.095H298.48ZM297.13 73.12C296.68 73.12 296.31 72.99 296.02 72.73C295.74 72.46 295.6 72.13 295.6 71.74C295.6 71.34 295.74 71.005 296.02 70.735C296.31 70.465 296.68 70.33 297.13 70.33C297.57 70.33 297.93 70.465 298.21 70.735C298.5 71.005 298.645 71.34 298.645 71.74C298.645 72.13 298.5 72.46 298.21 72.73C297.93 72.99 297.57 73.12 297.13 73.12Z" fill="#D9D9D9"/>
<path d="M89.7527 143.636H86.8707L86.4087 145H84.4397L87.2337 137.278H89.4117L92.2057 145H90.2147L89.7527 143.636ZM89.2687 142.184L88.3117 139.357L87.3657 142.184H89.2687ZM96.477 143.405V145H95.52C94.838 145 94.3064 144.835 93.925 144.505C93.5437 144.168 93.353 143.621 93.353 142.866V140.424H92.605V138.862H93.353V137.366H95.234V138.862H96.466V140.424H95.234V142.888C95.234 143.071 95.278 143.203 95.366 143.284C95.454 143.365 95.6007 143.405 95.806 143.405H96.477ZM101.737 136.86V145H99.8558V136.86H101.737ZM108.886 141.832C108.886 142.008 108.875 142.191 108.853 142.382H104.596C104.625 142.763 104.746 143.057 104.959 143.262C105.179 143.46 105.447 143.559 105.762 143.559C106.231 143.559 106.558 143.361 106.741 142.965H108.743C108.64 143.368 108.453 143.731 108.182 144.054C107.918 144.377 107.584 144.63 107.181 144.813C106.778 144.996 106.327 145.088 105.828 145.088C105.227 145.088 104.691 144.96 104.222 144.703C103.753 144.446 103.386 144.08 103.122 143.603C102.858 143.126 102.726 142.569 102.726 141.931C102.726 141.293 102.854 140.736 103.111 140.259C103.375 139.782 103.742 139.416 104.211 139.159C104.68 138.902 105.219 138.774 105.828 138.774C106.422 138.774 106.95 138.899 107.412 139.148C107.874 139.397 108.233 139.753 108.49 140.215C108.754 140.677 108.886 141.216 108.886 141.832ZM106.961 141.337C106.961 141.014 106.851 140.758 106.631 140.567C106.411 140.376 106.136 140.281 105.806 140.281C105.491 140.281 105.223 140.373 105.003 140.556C104.79 140.739 104.658 141 104.607 141.337H106.961ZM109.504 141.92C109.504 141.289 109.622 140.736 109.856 140.259C110.098 139.782 110.425 139.416 110.835 139.159C111.246 138.902 111.704 138.774 112.21 138.774C112.643 138.774 113.021 138.862 113.343 139.038C113.673 139.214 113.926 139.445 114.102 139.731V138.862H115.983V145H114.102V144.131C113.919 144.417 113.662 144.648 113.332 144.824C113.01 145 112.632 145.088 112.199 145.088C111.701 145.088 111.246 144.96 110.835 144.703C110.425 144.439 110.098 144.069 109.856 143.592C109.622 143.108 109.504 142.551 109.504 141.92ZM114.102 141.931C114.102 141.462 113.97 141.091 113.706 140.82C113.45 140.549 113.134 140.413 112.76 140.413C112.386 140.413 112.067 140.549 111.803 140.82C111.547 141.084 111.418 141.451 111.418 141.92C111.418 142.389 111.547 142.763 111.803 143.042C112.067 143.313 112.386 143.449 112.76 143.449C113.134 143.449 113.45 143.313 113.706 143.042C113.97 142.771 114.102 142.4 114.102 141.931ZM119.841 145.088C119.306 145.088 118.829 144.996 118.411 144.813C117.993 144.63 117.663 144.38 117.421 144.065C117.179 143.742 117.043 143.383 117.014 142.987H118.873C118.895 143.2 118.994 143.372 119.17 143.504C119.346 143.636 119.562 143.702 119.819 143.702C120.054 143.702 120.233 143.658 120.358 143.57C120.49 143.475 120.556 143.354 120.556 143.207C120.556 143.031 120.464 142.903 120.281 142.822C120.098 142.734 119.801 142.639 119.39 142.536C118.95 142.433 118.583 142.327 118.29 142.217C117.997 142.1 117.744 141.92 117.531 141.678C117.318 141.429 117.212 141.095 117.212 140.677C117.212 140.325 117.307 140.006 117.498 139.72C117.696 139.427 117.982 139.196 118.356 139.027C118.737 138.858 119.188 138.774 119.709 138.774C120.479 138.774 121.084 138.965 121.524 139.346C121.971 139.727 122.228 140.233 122.294 140.864H120.556C120.527 140.651 120.431 140.483 120.27 140.358C120.116 140.233 119.911 140.171 119.654 140.171C119.434 140.171 119.265 140.215 119.148 140.303C119.031 140.384 118.972 140.497 118.972 140.644C118.972 140.82 119.064 140.952 119.247 141.04C119.438 141.128 119.731 141.216 120.127 141.304C120.582 141.421 120.952 141.539 121.238 141.656C121.524 141.766 121.773 141.949 121.986 142.206C122.206 142.455 122.32 142.793 122.327 143.218C122.327 143.577 122.224 143.9 122.019 144.186C121.821 144.465 121.531 144.685 121.15 144.846C120.776 145.007 120.34 145.088 119.841 145.088ZM126.899 143.405V145H125.942C125.26 145 124.728 144.835 124.347 144.505C123.966 144.168 123.775 143.621 123.775 142.866V140.424H123.027V138.862H123.775V137.366H125.656V138.862H126.888V140.424H125.656V142.888C125.656 143.071 125.7 143.203 125.788 143.284C125.876 143.365 126.023 143.405 126.228 143.405H126.899ZM132.159 137.278V145H130.278V137.278H132.159ZM135.479 141.92C135.479 141.289 135.596 140.736 135.831 140.259C136.073 139.782 136.399 139.416 136.81 139.159C137.221 138.902 137.679 138.774 138.185 138.774C138.618 138.774 138.995 138.862 139.318 139.038C139.648 139.214 139.901 139.445 140.077 139.731V138.862H141.958V145H140.077V144.131C139.894 144.417 139.637 144.648 139.307 144.824C138.984 145 138.607 145.088 138.174 145.088C137.675 145.088 137.221 144.96 136.81 144.703C136.399 144.439 136.073 144.069 135.831 143.592C135.596 143.108 135.479 142.551 135.479 141.92ZM140.077 141.931C140.077 141.462 139.945 141.091 139.681 140.82C139.424 140.549 139.109 140.413 138.735 140.413C138.361 140.413 138.042 140.549 137.778 140.82C137.521 141.084 137.393 141.451 137.393 141.92C137.393 142.389 137.521 142.763 137.778 143.042C138.042 143.313 138.361 143.449 138.735 143.449C139.109 143.449 139.424 143.313 139.681 143.042C139.945 142.771 140.077 142.4 140.077 141.931ZM151.151 138.796C151.913 138.796 152.518 139.027 152.966 139.489C153.42 139.951 153.648 140.593 153.648 141.414V145H151.778V141.667C151.778 141.271 151.671 140.967 151.459 140.754C151.253 140.534 150.967 140.424 150.601 140.424C150.234 140.424 149.944 140.534 149.732 140.754C149.526 140.967 149.424 141.271 149.424 141.667V145H147.554V141.667C147.554 141.271 147.447 140.967 147.235 140.754C147.029 140.534 146.743 140.424 146.377 140.424C146.01 140.424 145.72 140.534 145.508 140.754C145.302 140.967 145.2 141.271 145.2 141.667V145H143.319V138.862H145.2V139.632C145.39 139.375 145.64 139.174 145.948 139.027C146.256 138.873 146.604 138.796 146.993 138.796C147.455 138.796 147.865 138.895 148.225 139.093C148.591 139.291 148.877 139.573 149.083 139.94C149.295 139.603 149.585 139.328 149.952 139.115C150.318 138.902 150.718 138.796 151.151 138.796ZM159.626 138.774C160.059 138.774 160.437 138.862 160.759 139.038C161.089 139.214 161.342 139.445 161.518 139.731V138.862H163.399V144.989C163.399 145.554 163.286 146.063 163.058 146.518C162.838 146.98 162.497 147.347 162.035 147.618C161.581 147.889 161.012 148.025 160.33 148.025C159.421 148.025 158.684 147.809 158.119 147.376C157.555 146.951 157.232 146.371 157.151 145.638H159.01C159.069 145.873 159.208 146.056 159.428 146.188C159.648 146.327 159.92 146.397 160.242 146.397C160.631 146.397 160.939 146.283 161.166 146.056C161.401 145.836 161.518 145.48 161.518 144.989V144.12C161.335 144.406 161.082 144.641 160.759 144.824C160.437 145 160.059 145.088 159.626 145.088C159.12 145.088 158.662 144.96 158.251 144.703C157.841 144.439 157.514 144.069 157.272 143.592C157.038 143.108 156.92 142.551 156.92 141.92C156.92 141.289 157.038 140.736 157.272 140.259C157.514 139.782 157.841 139.416 158.251 139.159C158.662 138.902 159.12 138.774 159.626 138.774ZM161.518 141.931C161.518 141.462 161.386 141.091 161.122 140.82C160.866 140.549 160.55 140.413 160.176 140.413C159.802 140.413 159.483 140.549 159.219 140.82C158.963 141.084 158.834 141.451 158.834 141.92C158.834 142.389 158.963 142.763 159.219 143.042C159.483 143.313 159.802 143.449 160.176 143.449C160.55 143.449 160.866 143.313 161.122 143.042C161.386 142.771 161.518 142.4 161.518 141.931ZM165.706 138.224C165.376 138.224 165.105 138.129 164.892 137.938C164.687 137.74 164.584 137.498 164.584 137.212C164.584 136.919 164.687 136.677 164.892 136.486C165.105 136.288 165.376 136.189 165.706 136.189C166.029 136.189 166.293 136.288 166.498 136.486C166.711 136.677 166.817 136.919 166.817 137.212C166.817 137.498 166.711 137.74 166.498 137.938C166.293 138.129 166.029 138.224 165.706 138.224ZM166.641 138.862V145H164.76V138.862H166.641ZM170.765 143.24L172.096 138.862H174.098L171.92 145H169.599L167.421 138.862H169.434L170.765 143.24ZM175.836 138.224C175.506 138.224 175.235 138.129 175.022 137.938C174.817 137.74 174.714 137.498 174.714 137.212C174.714 136.919 174.817 136.677 175.022 136.486C175.235 136.288 175.506 136.189 175.836 136.189C176.159 136.189 176.423 136.288 176.628 136.486C176.841 136.677 176.947 136.919 176.947 137.212C176.947 137.498 176.841 137.74 176.628 137.938C176.423 138.129 176.159 138.224 175.836 138.224ZM176.771 138.862V145H174.89V138.862H176.771ZM181.874 138.796C182.593 138.796 183.165 139.031 183.59 139.5C184.023 139.962 184.239 140.6 184.239 141.414V145H182.369V141.667C182.369 141.256 182.263 140.937 182.05 140.71C181.837 140.483 181.551 140.369 181.192 140.369C180.833 140.369 180.547 140.483 180.334 140.71C180.121 140.937 180.015 141.256 180.015 141.667V145H178.134V138.862H180.015V139.676C180.206 139.405 180.462 139.192 180.785 139.038C181.108 138.877 181.471 138.796 181.874 138.796ZM187.878 138.774C188.311 138.774 188.689 138.862 189.011 139.038C189.341 139.214 189.594 139.445 189.77 139.731V138.862H191.651V144.989C191.651 145.554 191.538 146.063 191.31 146.518C191.09 146.98 190.749 147.347 190.287 147.618C189.833 147.889 189.264 148.025 188.582 148.025C187.673 148.025 186.936 147.809 186.371 147.376C185.807 146.951 185.484 146.371 185.403 145.638H187.262C187.321 145.873 187.46 146.056 187.68 146.188C187.9 146.327 188.172 146.397 188.494 146.397C188.883 146.397 189.191 146.283 189.418 146.056C189.653 145.836 189.77 145.48 189.77 144.989V144.12C189.587 144.406 189.334 144.641 189.011 144.824C188.689 145 188.311 145.088 187.878 145.088C187.372 145.088 186.914 144.96 186.503 144.703C186.093 144.439 185.766 144.069 185.524 143.592C185.29 143.108 185.172 142.551 185.172 141.92C185.172 141.289 185.29 140.736 185.524 140.259C185.766 139.782 186.093 139.416 186.503 139.159C186.914 138.902 187.372 138.774 187.878 138.774ZM189.77 141.931C189.77 141.462 189.638 141.091 189.374 140.82C189.118 140.549 188.802 140.413 188.428 140.413C188.054 140.413 187.735 140.549 187.471 140.82C187.215 141.084 187.086 141.451 187.086 141.92C187.086 142.389 187.215 142.763 187.471 143.042C187.735 143.313 188.054 143.449 188.428 143.449C188.802 143.449 189.118 143.313 189.374 143.042C189.638 142.771 189.77 142.4 189.77 141.931ZM201.613 138.862L197.763 147.915H195.739L197.147 144.791L194.65 138.862H196.751L198.17 142.701L199.578 138.862H201.613ZM205.087 145.088C204.486 145.088 203.943 144.96 203.459 144.703C202.983 144.446 202.605 144.08 202.326 143.603C202.055 143.126 201.919 142.569 201.919 141.931C201.919 141.3 202.059 140.747 202.337 140.27C202.616 139.786 202.997 139.416 203.481 139.159C203.965 138.902 204.508 138.774 205.109 138.774C205.711 138.774 206.253 138.902 206.737 139.159C207.221 139.416 207.603 139.786 207.881 140.27C208.16 140.747 208.299 141.3 208.299 141.931C208.299 142.562 208.156 143.119 207.87 143.603C207.592 144.08 207.207 144.446 206.715 144.703C206.231 144.96 205.689 145.088 205.087 145.088ZM205.087 143.46C205.447 143.46 205.751 143.328 206 143.064C206.257 142.8 206.385 142.422 206.385 141.931C206.385 141.44 206.261 141.062 206.011 140.798C205.769 140.534 205.469 140.402 205.109 140.402C204.743 140.402 204.438 140.534 204.196 140.798C203.954 141.055 203.833 141.432 203.833 141.931C203.833 142.422 203.951 142.8 204.185 143.064C204.427 143.328 204.728 143.46 205.087 143.46ZM215.358 138.862V145H213.477V144.164C213.287 144.435 213.026 144.655 212.696 144.824C212.374 144.985 212.014 145.066 211.618 145.066C211.149 145.066 210.735 144.963 210.375 144.758C210.016 144.545 209.737 144.241 209.539 143.845C209.341 143.449 209.242 142.983 209.242 142.448V138.862H211.112V142.195C211.112 142.606 211.219 142.925 211.431 143.152C211.644 143.379 211.93 143.493 212.289 143.493C212.656 143.493 212.946 143.379 213.158 143.152C213.371 142.925 213.477 142.606 213.477 142.195V138.862H215.358ZM218.666 141.92C218.666 141.289 218.784 140.736 219.018 140.259C219.26 139.782 219.587 139.416 219.997 139.159C220.408 138.902 220.866 138.774 221.372 138.774C221.805 138.774 222.183 138.862 222.505 139.038C222.835 139.214 223.088 139.445 223.264 139.731V138.862H225.145V145H223.264V144.131C223.081 144.417 222.824 144.648 222.494 144.824C222.172 145 221.794 145.088 221.361 145.088C220.863 145.088 220.408 144.96 219.997 144.703C219.587 144.439 219.26 144.069 219.018 143.592C218.784 143.108 218.666 142.551 218.666 141.92ZM223.264 141.931C223.264 141.462 223.132 141.091 222.868 140.82C222.612 140.549 222.296 140.413 221.922 140.413C221.548 140.413 221.229 140.549 220.965 140.82C220.709 141.084 220.58 141.451 220.58 141.92C220.58 142.389 220.709 142.763 220.965 143.042C221.229 143.313 221.548 143.449 221.922 143.449C222.296 143.449 222.612 143.313 222.868 143.042C223.132 142.771 223.264 142.4 223.264 141.931ZM232.258 143.405V145H231.301C230.619 145 230.088 144.835 229.706 144.505C229.325 144.168 229.134 143.621 229.134 142.866V140.424H228.386V138.862H229.134V137.366H231.015V138.862H232.247V140.424H231.015V142.888C231.015 143.071 231.059 143.203 231.147 143.284C231.235 143.365 231.382 143.405 231.587 143.405H232.258ZM236.1 145.088C235.499 145.088 234.956 144.96 234.472 144.703C233.995 144.446 233.618 144.08 233.339 143.603C233.068 143.126 232.932 142.569 232.932 141.931C232.932 141.3 233.071 140.747 233.35 140.27C233.629 139.786 234.01 139.416 234.494 139.159C234.978 138.902 235.521 138.774 236.122 138.774C236.723 138.774 237.266 138.902 237.75 139.159C238.234 139.416 238.615 139.786 238.894 140.27C239.173 140.747 239.312 141.3 239.312 141.931C239.312 142.562 239.169 143.119 238.883 143.603C238.604 144.08 238.219 144.446 237.728 144.703C237.244 144.96 236.701 145.088 236.1 145.088ZM236.1 143.46C236.459 143.46 236.764 143.328 237.013 143.064C237.27 142.8 237.398 142.422 237.398 141.931C237.398 141.44 237.273 141.062 237.024 140.798C236.782 140.534 236.481 140.402 236.122 140.402C235.755 140.402 235.451 140.534 235.209 140.798C234.967 141.055 234.846 141.432 234.846 141.931C234.846 142.422 234.963 142.8 235.198 143.064C235.44 143.328 235.741 143.46 236.1 143.46ZM242.191 139.885C242.411 139.548 242.686 139.284 243.016 139.093C243.346 138.895 243.713 138.796 244.116 138.796V140.787H243.599C243.13 140.787 242.778 140.89 242.543 141.095C242.308 141.293 242.191 141.645 242.191 142.151V145H240.31V138.862H242.191V139.885ZM244.641 141.931C244.641 141.293 244.769 140.736 245.026 140.259C245.29 139.782 245.653 139.416 246.115 139.159C246.584 138.902 247.12 138.774 247.721 138.774C248.491 138.774 249.133 138.976 249.646 139.379C250.167 139.782 250.508 140.351 250.669 141.084H248.667C248.498 140.615 248.172 140.38 247.688 140.38C247.343 140.38 247.068 140.516 246.863 140.787C246.658 141.051 246.555 141.432 246.555 141.931C246.555 142.43 246.658 142.815 246.863 143.086C247.068 143.35 247.343 143.482 247.688 143.482C248.172 143.482 248.498 143.247 248.667 142.778H250.669C250.508 143.497 250.167 144.061 249.646 144.472C249.125 144.883 248.484 145.088 247.721 145.088C247.12 145.088 246.584 144.96 246.115 144.703C245.653 144.446 245.29 144.08 245.026 143.603C244.769 143.126 244.641 142.569 244.641 141.931ZM255.448 138.796C256.152 138.796 256.717 139.031 257.142 139.5C257.567 139.962 257.78 140.6 257.78 141.414V145H255.91V141.667C255.91 141.256 255.804 140.937 255.591 140.71C255.378 140.483 255.092 140.369 254.733 140.369C254.374 140.369 254.088 140.483 253.875 140.71C253.662 140.937 253.556 141.256 253.556 141.667V145H251.675V136.86H253.556V139.687C253.747 139.416 254.007 139.199 254.337 139.038C254.667 138.877 255.037 138.796 255.448 138.796ZM260.736 145.77H271.736V134.77H260.736V145.77ZM271.736 145.77H282.736V134.77H271.736V145.77ZM282.736 145.77H293.736V134.77H282.736V145.77Z" fill="#D9D9D9"/>
<defs>
<clipPath id="clip0_403_2">
<rect width="32" height="32" fill="white" transform="translate(173 13)"/>
</clipPath>
</defs>
</svg>
