<svg width="175" height="175" viewBox="0 0 175 175" fill="none" xmlns="http://www.w3.org/2000/svg">
<rect width="175" height="175" rx="20" fill="url(#paint0_linear_442_57)"/>
<g clip-path="url(#clip0_442_57)">
<path d="M37.5 71.125H59.5" stroke="black" stroke-width="2" stroke-linecap="round" stroke-linejoin="round"/>
<path d="M37.5 79.375H59.5" stroke="black" stroke-width="2" stroke-linecap="round" stroke-linejoin="round"/>
<path d="M37.5 87.625H59.5" stroke="black" stroke-width="2" stroke-linecap="round" stroke-linejoin="round"/>
<path d="M37.5 95.875H59.5" stroke="black" stroke-width="2" stroke-linecap="round" stroke-linejoin="round"/>
</g>
<g clip-path="url(#clip1_442_57)">
<path d="M138.333 53.625V111.375L151.166 103.354V61.6458L138.333 53.625Z" stroke="black" stroke-width="5" stroke-linecap="round" stroke-linejoin="round"/>
<path d="M116.404 88.6055L103.042 100.146L96.625 96.9375L110.527 82.5M116.093 76.7186L138.333 53.625V69.6667L122.949 82.9524" stroke="black" stroke-width="5" stroke-linecap="round" stroke-linejoin="round"/>
<path d="M138.333 96.9376L103.042 64.8542L96.625 68.0626L138.333 111.375" stroke="black" stroke-width="5" stroke-linecap="round" stroke-linejoin="round"/>
</g>
<path d="M39.5298 11.5455L41.815 18.7287H41.9027L44.1925 11.5455H46.4084L43.1491 21H40.5732L37.3093 11.5455H39.5298ZM52.6752 14.2646C52.6383 13.8922 52.4798 13.6029 52.1998 13.3967C51.9197 13.1905 51.5396 13.0874 51.0595 13.0874C50.7333 13.0874 50.4578 13.1335 50.2331 13.2259C50.0085 13.3151 49.8361 13.4397 49.7161 13.5998C49.5991 13.7598 49.5407 13.9414 49.5407 14.1445C49.5345 14.3138 49.5699 14.4615 49.6468 14.5877C49.7269 14.7139 49.8361 14.8232 49.9746 14.9155C50.1131 15.0047 50.2731 15.0832 50.4547 15.1509C50.6363 15.2156 50.8302 15.271 51.0364 15.3171L51.8858 15.5202C52.2982 15.6126 52.6768 15.7357 53.0215 15.8896C53.3662 16.0434 53.6647 16.2327 53.9171 16.4574C54.1694 16.6821 54.3649 16.9467 54.5034 17.2514C54.6449 17.5561 54.7173 17.9054 54.7203 18.2994C54.7173 18.878 54.5695 19.3796 54.2772 19.8043C53.9879 20.226 53.5693 20.5537 53.0215 20.7876C52.4767 21.0185 51.8197 21.1339 51.0502 21.1339C50.287 21.1339 49.6222 21.0169 49.0559 20.783C48.4927 20.5491 48.0526 20.2029 47.7356 19.7443C47.4217 19.2827 47.257 18.7118 47.2417 18.0316H49.176C49.1975 18.3486 49.2883 18.6133 49.4483 18.8256C49.6114 19.0349 49.8284 19.1934 50.0993 19.3011C50.3732 19.4058 50.6825 19.4581 51.0272 19.4581C51.3657 19.4581 51.6596 19.4089 51.9089 19.3104C52.1613 19.2119 52.3567 19.0749 52.4952 18.8995C52.6337 18.7241 52.7029 18.5225 52.7029 18.2947C52.7029 18.0824 52.6399 17.9039 52.5137 17.7592C52.3906 17.6146 52.209 17.4915 51.9689 17.3899C51.7319 17.2884 51.4411 17.196 51.0964 17.1129L50.0669 16.8544C49.2698 16.6605 48.6404 16.3574 48.1788 15.945C47.7172 15.5326 47.4879 14.977 47.4909 14.2784C47.4879 13.706 47.6402 13.2058 47.948 12.7781C48.2588 12.3503 48.6851 12.0163 49.2267 11.7763C49.7684 11.5362 50.3839 11.4162 51.0733 11.4162C51.775 11.4162 52.3875 11.5362 52.9107 11.7763C53.437 12.0163 53.8463 12.3503 54.1387 12.7781C54.431 13.2058 54.5819 13.7013 54.5911 14.2646H52.6752ZM67.4157 14.8555H65.3936C65.3567 14.5939 65.2813 14.3615 65.1674 14.1584C65.0536 13.9522 64.9074 13.7768 64.7289 13.6321C64.5504 13.4875 64.3442 13.3767 64.1103 13.2997C63.8794 13.2228 63.6286 13.1843 63.3578 13.1843C62.8684 13.1843 62.4422 13.3059 62.079 13.549C61.7159 13.7891 61.4342 14.1399 61.2342 14.6016C61.0342 15.0601 60.9341 15.6172 60.9341 16.2727C60.9341 16.9467 61.0342 17.513 61.2342 17.9716C61.4373 18.4302 61.7205 18.7764 62.0836 19.0103C62.4468 19.2442 62.8669 19.3612 63.3439 19.3612C63.6117 19.3612 63.8594 19.3258 64.0872 19.255C64.318 19.1842 64.5227 19.0811 64.7012 18.9457C64.8797 18.8072 65.0274 18.6394 65.1444 18.4425C65.2644 18.2455 65.3475 18.0208 65.3936 17.7685L67.4157 17.7777C67.3633 18.2116 67.2325 18.6302 67.0233 19.0334C66.8171 19.4335 66.5385 19.792 66.1877 20.109C65.8399 20.4229 65.4244 20.6722 64.9412 20.8569C64.4611 21.0385 63.9179 21.1293 63.3116 21.1293C62.4683 21.1293 61.7143 20.9384 61.0495 20.5568C60.3878 20.1752 59.8646 19.6228 59.4799 18.8995C59.0983 18.1763 58.9075 17.3007 58.9075 16.2727C58.9075 15.2417 59.1014 14.3646 59.4892 13.6413C59.877 12.9181 60.4032 12.3672 61.068 11.9886C61.7328 11.607 62.4806 11.4162 63.3116 11.4162C63.8594 11.4162 64.3672 11.4931 64.835 11.647C65.3059 11.8009 65.723 12.0256 66.0861 12.321C66.4493 12.6134 66.7447 12.9719 66.9725 13.3967C67.2033 13.8214 67.351 14.3076 67.4157 14.8555ZM72.016 21.1385C71.2989 21.1385 70.6787 20.9862 70.1555 20.6815C69.6354 20.3737 69.2338 19.9459 68.9506 19.3981C68.6675 18.8472 68.5259 18.2086 68.5259 17.4822C68.5259 16.7498 68.6675 16.1096 68.9506 15.5618C69.2338 15.0109 69.6354 14.5831 70.1555 14.2784C70.6787 13.9706 71.2989 13.8168 72.016 13.8168C72.7331 13.8168 73.3517 13.9706 73.8718 14.2784C74.395 14.5831 74.7982 15.0109 75.0813 15.5618C75.3645 16.1096 75.506 16.7498 75.506 17.4822C75.506 18.2086 75.3645 18.8472 75.0813 19.3981C74.7982 19.9459 74.395 20.3737 73.8718 20.6815C73.3517 20.9862 72.7331 21.1385 72.016 21.1385ZM72.0252 19.6151C72.3514 19.6151 72.6238 19.5227 72.8423 19.3381C73.0608 19.1503 73.2255 18.8949 73.3363 18.5717C73.4502 18.2486 73.5071 17.8808 73.5071 17.4684C73.5071 17.056 73.4502 16.6882 73.3363 16.3651C73.2255 16.0419 73.0608 15.7865 72.8423 15.5987C72.6238 15.411 72.3514 15.3171 72.0252 15.3171C71.6959 15.3171 71.4189 15.411 71.1942 15.5987C70.9727 15.7865 70.8049 16.0419 70.6911 16.3651C70.5803 16.6882 70.5249 17.056 70.5249 17.4684C70.5249 17.8808 70.5803 18.2486 70.6911 18.5717C70.8049 18.8949 70.9727 19.1503 71.1942 19.3381C71.4189 19.5227 71.6959 19.6151 72.0252 19.6151ZM79.3977 21.1154C78.8591 21.1154 78.3713 20.9769 77.9343 20.6999C77.5004 20.4199 77.1557 20.009 76.9002 19.4673C76.6478 18.9226 76.5217 18.2547 76.5217 17.4638C76.5217 16.6513 76.6525 15.9757 76.9141 15.4371C77.1757 14.8955 77.5234 14.4908 77.9574 14.223C78.3944 13.9522 78.873 13.8168 79.3931 13.8168C79.7901 13.8168 80.121 13.8845 80.3857 14.0199C80.6534 14.1522 80.8688 14.3184 81.032 14.5185C81.1982 14.7154 81.3243 14.9093 81.4105 15.1001H81.4705V11.5455H83.4325V21H81.4936V19.8643H81.4105C81.3182 20.0613 81.1874 20.2567 81.0181 20.4506C80.8519 20.6415 80.6349 20.8 80.3672 20.9261C80.1025 21.0523 79.7794 21.1154 79.3977 21.1154ZM80.021 19.5504C80.3379 19.5504 80.6057 19.4643 80.8242 19.2919C81.0458 19.1165 81.2151 18.8718 81.332 18.5579C81.4521 18.244 81.5121 17.8762 81.5121 17.4545C81.5121 17.0329 81.4536 16.6667 81.3366 16.3558C81.2197 16.045 81.0504 15.8049 80.8288 15.6357C80.6072 15.4664 80.3379 15.3817 80.021 15.3817C79.6978 15.3817 79.4254 15.4695 79.2038 15.6449C78.9822 15.8203 78.8145 16.0634 78.7006 16.3743C78.5868 16.6851 78.5298 17.0452 78.5298 17.4545C78.5298 17.867 78.5868 18.2317 78.7006 18.5487C78.8176 18.8626 78.9853 19.1088 79.2038 19.2873C79.4254 19.4627 79.6978 19.5504 80.021 19.5504ZM88.281 21.1385C87.5516 21.1385 86.9237 20.9908 86.3975 20.6953C85.8743 20.3968 85.4711 19.9751 85.1879 19.4304C84.9048 18.8826 84.7632 18.2347 84.7632 17.4869C84.7632 16.7575 84.9048 16.1173 85.1879 15.5664C85.4711 15.0155 85.8696 14.5862 86.3836 14.2784C86.9007 13.9706 87.507 13.8168 88.2025 13.8168C88.6703 13.8168 89.1058 13.8922 89.509 14.043C89.9152 14.1907 90.2691 14.4138 90.5708 14.7124C90.8754 15.0109 91.1124 15.3864 91.2817 15.8388C91.451 16.2881 91.5356 16.8144 91.5356 17.4176V17.9577H85.548V16.739H89.6844C89.6844 16.4558 89.6228 16.205 89.4997 15.9865C89.3766 15.768 89.2058 15.5972 88.9873 15.4741C88.7719 15.3479 88.521 15.2848 88.2348 15.2848C87.9363 15.2848 87.6716 15.354 87.4408 15.4925C87.213 15.628 87.0345 15.8111 86.9053 16.0419C86.776 16.2696 86.7098 16.5236 86.7068 16.8036V17.9624C86.7068 18.3132 86.7714 18.6164 86.9007 18.8718C87.033 19.1272 87.2192 19.3242 87.4593 19.4627C87.6993 19.6012 87.984 19.6705 88.3133 19.6705C88.5318 19.6705 88.7319 19.6397 88.9134 19.5781C89.095 19.5166 89.2504 19.4242 89.3797 19.3011C89.509 19.178 89.6075 19.0272 89.6752 18.8487L91.4941 18.9688C91.4017 19.4058 91.2124 19.7874 90.9262 20.1136C90.6431 20.4368 90.2768 20.6892 89.8275 20.8707C89.3812 21.0492 88.8657 21.1385 88.281 21.1385ZM95.8647 21V11.5455H102.235V13.1935H97.8636V15.4464H101.908V17.0945H97.8636V19.3519H102.254V21H95.8647ZM105.431 13.9091L106.733 16.3881L108.067 13.9091H110.085L108.03 17.4545L110.14 21H108.132L106.733 18.5487L105.357 21H103.326L105.431 17.4545L103.4 13.9091H105.431ZM115.024 13.9091V15.3864H110.754V13.9091H115.024ZM111.723 12.2102H113.69V18.821C113.69 19.0026 113.718 19.1442 113.773 19.2457C113.829 19.3442 113.906 19.4135 114.004 19.4535C114.106 19.4935 114.223 19.5135 114.355 19.5135C114.447 19.5135 114.54 19.5058 114.632 19.4904C114.724 19.4719 114.795 19.4581 114.844 19.4489L115.153 20.9123C115.055 20.9431 114.917 20.9785 114.738 21.0185C114.56 21.0616 114.343 21.0877 114.087 21.0969C113.613 21.1154 113.198 21.0523 112.841 20.9077C112.487 20.763 112.211 20.5384 112.014 20.2337C111.817 19.929 111.72 19.5443 111.723 19.0795V12.2102ZM119.461 21.1385C118.731 21.1385 118.103 20.9908 117.577 20.6953C117.054 20.3968 116.651 19.9751 116.368 19.4304C116.084 18.8826 115.943 18.2347 115.943 17.4869C115.943 16.7575 116.084 16.1173 116.368 15.5664C116.651 15.0155 117.049 14.5862 117.563 14.2784C118.08 13.9706 118.687 13.8168 119.382 13.8168C119.85 13.8168 120.285 13.8922 120.689 14.043C121.095 14.1907 121.449 14.4138 121.75 14.7124C122.055 15.0109 122.292 15.3864 122.461 15.8388C122.631 16.2881 122.715 16.8144 122.715 17.4176V17.9577H116.728V16.739H120.864C120.864 16.4558 120.803 16.205 120.679 15.9865C120.556 15.768 120.386 15.5972 120.167 15.4741C119.952 15.3479 119.701 15.2848 119.415 15.2848C119.116 15.2848 118.851 15.354 118.62 15.4925C118.393 15.628 118.214 15.8111 118.085 16.0419C117.956 16.2696 117.89 16.5236 117.886 16.8036V17.9624C117.886 18.3132 117.951 18.6164 118.08 18.8718C118.213 19.1272 118.399 19.3242 118.639 19.4627C118.879 19.6012 119.164 19.6705 119.493 19.6705C119.711 19.6705 119.912 19.6397 120.093 19.5781C120.275 19.5166 120.43 19.4242 120.559 19.3011C120.689 19.178 120.787 19.0272 120.855 18.8487L122.674 18.9688C122.581 19.4058 122.392 19.7874 122.106 20.1136C121.823 20.4368 121.457 20.6892 121.007 20.8707C120.561 21.0492 120.045 21.1385 119.461 21.1385ZM125.965 16.9006V21H123.999V13.9091H125.873V15.1602H125.956C126.113 14.7478 126.376 14.4215 126.745 14.1815C127.115 13.9383 127.563 13.8168 128.089 13.8168C128.581 13.8168 129.011 13.9245 129.377 14.1399C129.743 14.3554 130.028 14.6631 130.231 15.0632C130.434 15.4602 130.536 15.9342 130.536 16.4851V21H128.569V16.8359C128.572 16.402 128.461 16.0634 128.237 15.8203C128.012 15.5741 127.703 15.451 127.309 15.451C127.044 15.451 126.81 15.5079 126.607 15.6218C126.407 15.7357 126.25 15.9019 126.136 16.1204C126.025 16.3358 125.968 16.5959 125.965 16.9006ZM137.985 15.9311L136.185 16.0419C136.154 15.888 136.088 15.7495 135.987 15.6264C135.885 15.5002 135.751 15.4002 135.585 15.3263C135.422 15.2494 135.226 15.2109 134.999 15.2109C134.694 15.2109 134.437 15.2756 134.228 15.4048C134.018 15.531 133.914 15.7003 133.914 15.9126C133.914 16.0819 133.981 16.225 134.117 16.342C134.252 16.4589 134.485 16.5528 134.814 16.6236L136.097 16.8821C136.787 17.0237 137.301 17.2514 137.639 17.5653C137.978 17.8793 138.147 18.2917 138.147 18.8026C138.147 19.2673 138.01 19.6751 137.736 20.0259C137.465 20.3768 137.093 20.6507 136.619 20.8477C136.148 21.0415 135.605 21.1385 134.989 21.1385C134.051 21.1385 133.303 20.9431 132.746 20.5522C132.192 20.1583 131.867 19.6228 131.772 18.9457L133.706 18.8441C133.764 19.1303 133.906 19.3488 134.131 19.4996C134.355 19.6474 134.643 19.7212 134.994 19.7212C135.339 19.7212 135.616 19.6551 135.825 19.5227C136.037 19.3873 136.145 19.2134 136.148 19.0011C136.145 18.8226 136.07 18.6764 135.922 18.5625C135.774 18.4455 135.546 18.3563 135.239 18.2947L134.011 18.0501C133.318 17.9116 132.803 17.6715 132.464 17.3299C132.129 16.9883 131.961 16.5528 131.961 16.0234C131.961 15.5679 132.084 15.1755 132.33 14.8462C132.58 14.5169 132.929 14.263 133.378 14.0845C133.831 13.906 134.36 13.8168 134.966 13.8168C135.862 13.8168 136.567 14.006 137.081 14.3846C137.598 14.7631 137.899 15.2786 137.985 15.9311ZM139.385 21V13.9091H141.352V21H139.385ZM140.373 12.995C140.081 12.995 139.83 12.8981 139.621 12.7042C139.415 12.5072 139.312 12.2718 139.312 11.9979C139.312 11.727 139.415 11.4947 139.621 11.3008C139.83 11.1038 140.081 11.0053 140.373 11.0053C140.666 11.0053 140.915 11.1038 141.121 11.3008C141.33 11.4947 141.435 11.727 141.435 11.9979C141.435 12.2718 141.33 12.5072 141.121 12.7042C140.915 12.8981 140.666 12.995 140.373 12.995ZM146.131 21.1385C145.414 21.1385 144.794 20.9862 144.271 20.6815C143.751 20.3737 143.349 19.9459 143.066 19.3981C142.783 18.8472 142.641 18.2086 142.641 17.4822C142.641 16.7498 142.783 16.1096 143.066 15.5618C143.349 15.0109 143.751 14.5831 144.271 14.2784C144.794 13.9706 145.414 13.8168 146.131 13.8168C146.848 13.8168 147.467 13.9706 147.987 14.2784C148.51 14.5831 148.913 15.0109 149.197 15.5618C149.48 16.1096 149.621 16.7498 149.621 17.4822C149.621 18.2086 149.48 18.8472 149.197 19.3981C148.913 19.9459 148.51 20.3737 147.987 20.6815C147.467 20.9862 146.848 21.1385 146.131 21.1385ZM146.14 19.6151C146.467 19.6151 146.739 19.5227 146.958 19.3381C147.176 19.1503 147.341 18.8949 147.452 18.5717C147.565 18.2486 147.622 17.8808 147.622 17.4684C147.622 17.056 147.565 16.6882 147.452 16.3651C147.341 16.0419 147.176 15.7865 146.958 15.5987C146.739 15.411 146.467 15.3171 146.14 15.3171C145.811 15.3171 145.534 15.411 145.309 15.5987C145.088 15.7865 144.92 16.0419 144.806 16.3651C144.695 16.6882 144.64 17.056 144.64 17.4684C144.64 17.8808 144.695 18.2486 144.806 18.5717C144.92 18.8949 145.088 19.1503 145.309 19.3381C145.534 19.5227 145.811 19.6151 146.14 19.6151ZM152.867 16.9006V21H150.9V13.9091H152.774V15.1602H152.857C153.014 14.7478 153.278 14.4215 153.647 14.1815C154.016 13.9383 154.464 13.8168 154.99 13.8168C155.483 13.8168 155.912 13.9245 156.278 14.1399C156.644 14.3554 156.929 14.6631 157.132 15.0632C157.335 15.4602 157.437 15.9342 157.437 16.4851V21H155.47V16.8359C155.473 16.402 155.363 16.0634 155.138 15.8203C154.913 15.5741 154.604 15.451 154.21 15.451C153.945 15.451 153.711 15.5079 153.508 15.6218C153.308 15.7357 153.151 15.9019 153.037 16.1204C152.927 16.3358 152.87 16.5959 152.867 16.9006Z" fill="#0D0D0D"/>
<defs>
<linearGradient id="paint0_linear_442_57" x1="163.5" y1="7.50001" x2="10.5" y2="168.5" gradientUnits="userSpaceOnUse">
<stop stop-color="#D9D9D9"/>
<stop offset="0.988787" stop-color="#565656"/>
</linearGradient>
<clipPath id="clip0_442_57">
<rect width="33" height="33" fill="white" transform="translate(32 67)"/>
</clipPath>
<clipPath id="clip1_442_57">
<rect width="77" height="77" fill="white" transform="translate(87 44)"/>
</clipPath>
</defs>
</svg>
