<svg width="175" height="175" viewBox="0 0 175 175" fill="none" xmlns="http://www.w3.org/2000/svg">
<rect width="175" height="175" rx="20" fill="url(#paint0_linear_375_75)"/>
<path d="M97.0491 89.6008L112.312 81.449L95.1835 82.1656L100.271 72.0459L90.9943 78.4029L92.1384 64.4458L85.3901 75.9484L75.2272 62.625L79.5944 79.2236L64.3521 74.3518L76.4987 85.037L61.6875 87.8125L75.8878 90.926L67.9237 104.61L80.9554 97.0311L81.4945 111.375L86.8321 98.2734L94.0141 108.641L93.6167 96.1902L105.979 100.737L97.0491 89.6008ZM90.4163 91.7653L90.4771 97.9988L86.8717 92.8557L83.6798 99.74L83.436 92.2057L74.5522 97.9996L80.3462 89.4416L72.1264 87.6191L81.1081 85.5871L73.8788 79.5778L82.7264 81.7366L80.4061 73.4491L85.7158 80.0239L89.2427 73.5881L89.0486 81.3076L94.2993 78.4102L91.6415 84.0856L101.554 84.3683L92.6152 88.3601L96.9132 94.5075L90.4163 91.7653Z" fill="black" fill-opacity="0.92"/>
<path d="M89.284 87.3414L93.0673 85.6514L88.8722 85.5327L89.9978 83.1294L87.7728 84.3562L87.8555 81.0876L86.3621 83.8127L84.1143 81.0291L85.0964 84.5374L81.351 83.6234L84.413 86.1673L80.6094 87.0286L84.0898 87.7996L81.6362 91.4226L85.3985 88.9696L85.5006 92.1611L86.8514 89.2459L88.3795 91.4226L88.3533 88.7836L91.1031 89.9454L89.284 87.3414Z" fill="black" fill-opacity="0.92"/>
<g clip-path="url(#clip0_375_75)">
<path d="M64 64.7188C51.6914 64.7188 41.7188 74.6914 41.7188 87C41.7188 99.3086 51.6914 109.281 64 109.281C76.3086 109.281 86.2812 99.3086 86.2812 87C86.2812 74.6914 76.3086 64.7188 64 64.7188ZM52.5 81.25C50.9098 81.25 49.625 79.9652 49.625 78.375C49.625 76.7848 50.9098 75.5 52.5 75.5C54.0902 75.5 55.375 76.7848 55.375 78.375C55.375 79.9652 54.0902 81.25 52.5 81.25ZM58.25 72.625C58.25 71.0348 59.5348 69.75 61.125 69.75C62.7152 69.75 64 71.0348 64 72.625C64 74.2152 62.7152 75.5 61.125 75.5C59.5348 75.5 58.25 74.2152 58.25 72.625ZM62.5625 85.5625C60.9723 85.5625 59.6875 84.2777 59.6875 82.6875C59.6875 81.0973 60.9723 79.8125 62.5625 79.8125C64.1527 79.8125 65.4375 81.0973 65.4375 82.6875C65.4375 84.2777 64.1527 85.5625 62.5625 85.5625Z" fill="black"/>
</g>
<g clip-path="url(#clip1_375_75)">
<path d="M110.5 110C123.479 110 134 99.4787 134 86.5C134 73.5213 123.479 63 110.5 63C97.5213 63 87 73.5213 87 86.5C87 99.4787 97.5213 110 110.5 110Z" fill="black"/>
</g>
<path d="M69.7004 123.864H70.1833L70.5882 124.396L70.6947 124.538L71.2984 125.341H70.8154L70.4177 124.808L70.3183 124.673L69.7004 123.864ZM71.5825 123.21C71.5186 123.589 71.396 123.916 71.2149 124.192C71.0338 124.467 70.8125 124.679 70.5509 124.828C70.2893 124.976 70.0058 125.05 69.7004 125.05C69.3855 125.05 69.1174 124.973 68.896 124.819C68.6759 124.664 68.5184 124.445 68.4237 124.162C68.3302 123.878 68.3154 123.542 68.3794 123.153C68.4433 122.775 68.5658 122.448 68.7469 122.173C68.928 121.897 69.1499 121.686 69.4127 121.538C69.6755 121.388 69.9608 121.314 70.2686 121.314C70.5811 121.314 70.8468 121.391 71.0658 121.547C71.286 121.7 71.4428 121.919 71.5363 122.203C71.631 122.486 71.6464 122.822 71.5825 123.21ZM71.1634 123.153C71.2155 122.843 71.2078 122.582 71.1404 122.37C71.0729 122.158 70.961 121.998 70.8048 121.889C70.6485 121.78 70.4627 121.726 70.2472 121.726C70.0223 121.726 69.8093 121.783 69.608 121.898C69.4068 122.012 69.2346 122.179 69.0914 122.401C68.9481 122.621 68.8505 122.891 68.7984 123.21C68.7463 123.52 68.754 123.781 68.8215 123.993C68.8889 124.205 69.0008 124.366 69.157 124.474C69.3133 124.583 69.4991 124.638 69.7146 124.638C69.9395 124.638 70.1526 124.581 70.3538 124.467C70.555 124.353 70.7272 124.185 70.8705 123.965C71.0137 123.743 71.1114 123.473 71.1634 123.153ZM73.968 122.848L74.0319 122.464H76.2194L76.1555 122.848H73.968ZM73.7939 123.899L73.8579 123.516H76.0454L75.9814 123.899H73.7939ZM78.5494 123.466C78.6239 123.018 78.75 122.607 78.9276 122.232C79.1063 121.855 79.3306 121.509 79.6005 121.193H79.9698C79.8656 121.31 79.7621 121.455 79.6591 121.626C79.5573 121.797 79.4614 121.984 79.3714 122.189C79.2827 122.393 79.2045 122.604 79.1371 122.821C79.0696 123.039 79.0181 123.254 78.9826 123.466C78.9353 123.748 78.9145 124.033 78.9205 124.324C78.9276 124.614 78.9566 124.883 79.0075 125.131C79.0595 125.38 79.1294 125.582 79.217 125.739H78.8477C78.6843 125.423 78.5748 125.077 78.5192 124.702C78.4647 124.325 78.4748 123.913 78.5494 123.466ZM79.7856 126.023L80.4142 122.273H80.819L80.748 122.706H80.7977C80.8356 122.659 80.8876 122.598 80.9539 122.525C81.0214 122.45 81.1119 122.384 81.2256 122.326C81.3404 122.267 81.4866 122.237 81.6642 122.237C81.8938 122.237 82.0861 122.295 82.2412 122.409C82.3963 122.524 82.5058 122.687 82.5697 122.898C82.6336 123.108 82.6419 123.357 82.5945 123.643C82.5472 123.932 82.4566 124.183 82.3229 124.395C82.1891 124.605 82.0258 124.769 81.8328 124.885C81.6399 124.999 81.4298 125.057 81.2025 125.057C81.0273 125.057 80.8918 125.028 80.7959 124.97C80.7 124.911 80.6302 124.844 80.5864 124.769C80.5426 124.693 80.5088 124.631 80.4852 124.581H80.4497L80.2082 126.023H79.7856ZM80.5988 123.636C80.5657 123.842 80.5657 124.024 80.5988 124.181C80.6331 124.338 80.7012 124.46 80.803 124.549C80.906 124.637 81.0415 124.68 81.2096 124.68C81.3848 124.68 81.5381 124.634 81.6695 124.542C81.8021 124.448 81.911 124.323 81.9962 124.165C82.0826 124.007 82.1424 123.83 82.1755 123.636C82.2063 123.445 82.2051 123.272 82.172 123.118C82.1388 122.963 82.0713 122.84 81.9695 122.75C81.8677 122.659 81.7281 122.614 81.5505 122.614C81.3801 122.614 81.2291 122.657 81.0977 122.743C80.9675 122.828 80.8598 122.948 80.7746 123.102C80.6905 123.255 80.632 123.433 80.5988 123.636ZM84.8615 123.246L84.7976 123.636H83.2067L83.2706 123.246H84.8615ZM85.1372 126.023L85.7657 122.273H86.1705L86.0995 122.706H86.1492C86.1871 122.659 86.2392 122.598 86.3055 122.525C86.373 122.45 86.4635 122.384 86.5771 122.326C86.692 122.267 86.8382 122.237 87.0157 122.237C87.2454 122.237 87.4377 122.295 87.5928 122.409C87.7478 122.524 87.8573 122.687 87.9213 122.898C87.9852 123.108 87.9935 123.357 87.9461 123.643C87.8988 123.932 87.8082 124.183 87.6744 124.395C87.5407 124.605 87.3773 124.769 87.1844 124.885C86.9914 124.999 86.7813 125.057 86.5541 125.057C86.3789 125.057 86.2433 125.028 86.1475 124.97C86.0516 124.911 85.9817 124.844 85.9379 124.769C85.8941 124.693 85.8604 124.631 85.8367 124.581H85.8012L85.5597 126.023H85.1372ZM85.9504 123.636C85.9172 123.842 85.9172 124.024 85.9504 124.181C85.9847 124.338 86.0528 124.46 86.1546 124.549C86.2575 124.637 86.3931 124.68 86.5612 124.68C86.7364 124.68 86.8896 124.634 87.021 124.542C87.1536 124.448 87.2625 124.323 87.3477 124.165C87.4342 124.007 87.4939 123.83 87.5271 123.636C87.5579 123.445 87.5567 123.272 87.5235 123.118C87.4904 122.963 87.4229 122.84 87.3211 122.75C87.2193 122.659 87.0796 122.614 86.9021 122.614C86.7316 122.614 86.5807 122.657 86.4493 122.743C86.3191 122.828 86.2114 122.948 86.1262 123.102C86.0421 123.255 85.9835 123.433 85.9504 123.636ZM89.8224 121.903L89.4105 121.08H89.9006L90.1918 121.903H89.8224ZM91.9953 123.466C91.9207 123.913 91.7941 124.325 91.6153 124.702C91.4378 125.077 91.214 125.423 90.9442 125.739H90.5748C90.6802 125.621 90.7838 125.477 90.8856 125.305C90.9874 125.135 91.0827 124.948 91.1714 124.744C91.2614 124.54 91.3401 124.328 91.4076 124.11C91.4751 123.891 91.5265 123.677 91.5621 123.466C91.6094 123.184 91.6295 122.898 91.6224 122.608C91.6165 122.318 91.5875 122.049 91.5354 121.8C91.4845 121.552 91.4153 121.349 91.3277 121.193H91.697C91.8604 121.509 91.9693 121.855 92.0237 122.232C92.0793 122.607 92.0699 123.018 91.9953 123.466ZM95.9162 123.246L95.8523 123.636H94.2614L94.3253 123.246H95.9162ZM98.2231 123.182C98.2977 122.734 98.4237 122.323 98.6013 121.948C98.78 121.571 99.0044 121.225 99.2742 120.909H99.6436C99.5394 121.026 99.4358 121.171 99.3328 121.342C99.231 121.513 99.1352 121.7 99.0452 121.905C98.9564 122.109 98.8783 122.319 98.8108 122.537C98.7433 122.755 98.6919 122.97 98.6563 123.182C98.609 123.464 98.5883 123.749 98.5942 124.039C98.6013 124.329 98.6303 124.599 98.6812 124.847C98.7333 125.096 98.8031 125.298 98.8907 125.455H98.5214C98.358 125.138 98.2485 124.793 98.1929 124.418C98.1385 124.041 98.1485 123.629 98.2231 123.182ZM99.6369 125L100.241 121.364H102.435L102.371 121.754H100.617L100.411 122.983H102.052L101.988 123.374H100.347L100.141 124.609H101.924L101.86 125H99.6369ZM104.465 122.987L104.401 123.377H102.81L102.874 122.987H104.465ZM104.925 125L105.529 121.364H107.723L107.659 121.754H105.905L105.699 122.983H107.34L107.276 123.374H105.635L105.429 124.609H107.212L107.148 125H104.925ZM109.32 121.903L108.908 121.08H109.398L109.689 121.903H109.32ZM111.492 123.466C111.418 123.913 111.291 124.325 111.112 124.702C110.935 125.077 110.711 125.423 110.441 125.739H110.072C110.177 125.621 110.281 125.477 110.383 125.305C110.484 125.135 110.58 124.948 110.669 124.744C110.758 124.54 110.837 124.328 110.905 124.11C110.972 123.891 111.024 123.677 111.059 123.466C111.106 123.184 111.127 122.898 111.119 122.608C111.114 122.318 111.085 122.049 111.032 121.8C110.982 121.552 110.912 121.349 110.825 121.193H111.194C111.357 121.509 111.466 121.855 111.521 122.232C111.576 122.607 111.567 123.018 111.492 123.466Z" fill="white"/>
<path d="M83.1061 121.106C83.1646 121.047 83.1646 120.953 83.1061 120.894L82.1515 119.939C82.0929 119.881 81.9979 119.881 81.9393 119.939C81.8808 119.998 81.8808 120.093 81.9393 120.151L82.7879 121L81.9393 121.849C81.8808 121.907 81.8808 122.002 81.9393 122.061C81.9979 122.119 82.0929 122.119 82.1515 122.061L83.1061 121.106ZM80 121.15H83V120.85H80V121.15Z" fill="white"/>
<path d="M89.1061 121.106C89.1646 121.047 89.1646 120.953 89.1061 120.894L88.1515 119.939C88.0929 119.881 87.9979 119.881 87.9393 119.939C87.8808 119.998 87.8808 120.093 87.9393 120.151L88.7879 121L87.9393 121.849C87.8808 121.907 87.8808 122.002 87.9393 122.061C87.9979 122.119 88.0929 122.119 88.1515 122.061L89.1061 121.106ZM86 121.15H89V120.85H86V121.15Z" fill="white"/>
<path d="M71.9542 122L71.9769 121.872L72.5423 121.347C72.6085 121.285 72.6637 121.231 72.7077 121.185C72.7522 121.139 72.7868 121.096 72.8114 121.056C72.8365 121.016 72.8529 120.973 72.8604 120.929C72.869 120.878 72.8645 120.834 72.8469 120.796C72.8294 120.759 72.8017 120.73 72.7638 120.71C72.726 120.689 72.6805 120.679 72.6275 120.679C72.5716 120.679 72.5207 120.691 72.4748 120.714C72.4289 120.737 72.3907 120.769 72.3604 120.81C72.3301 120.852 72.3103 120.9 72.3008 120.955H72.1332C72.1474 120.869 72.1798 120.795 72.2305 120.73C72.2816 120.666 72.3443 120.616 72.4187 120.58C72.4935 120.544 72.5735 120.526 72.6587 120.526C72.744 120.526 72.8162 120.544 72.8754 120.58C72.9345 120.616 72.9774 120.664 73.0039 120.725C73.0304 120.786 73.0375 120.854 73.0252 120.929C73.0157 120.983 72.997 121.035 72.9691 121.086C72.9412 121.137 72.8983 121.193 72.8406 121.256C72.7833 121.318 72.7056 121.393 72.6076 121.483L72.2241 121.832L72.2212 121.844H72.8974L72.8718 122H71.9542Z" fill="white"/>
<path d="M92.9542 122L92.9769 121.872L93.5423 121.347C93.6085 121.285 93.6637 121.231 93.7077 121.185C93.7522 121.139 93.7868 121.096 93.8114 121.056C93.8365 121.016 93.8529 120.973 93.8604 120.929C93.869 120.878 93.8645 120.834 93.8469 120.796C93.8294 120.759 93.8017 120.73 93.7638 120.71C93.726 120.689 93.6805 120.679 93.6275 120.679C93.5716 120.679 93.5207 120.691 93.4748 120.714C93.4289 120.737 93.3907 120.769 93.3604 120.81C93.3301 120.852 93.3103 120.9 93.3008 120.955H93.1332C93.1474 120.869 93.1798 120.795 93.2305 120.73C93.2816 120.666 93.3443 120.616 93.4187 120.58C93.4935 120.544 93.5735 120.526 93.6587 120.526C93.744 120.526 93.8162 120.544 93.8754 120.58C93.9345 120.616 93.9774 120.664 94.0039 120.725C94.0304 120.786 94.0375 120.854 94.0252 120.929C94.0157 120.983 93.997 121.035 93.9691 121.086C93.9412 121.137 93.8983 121.193 93.8406 121.256C93.7833 121.318 93.7056 121.393 93.6076 121.483L93.2241 121.832L93.2212 121.844H93.8974L93.8718 122H92.9542Z" fill="white"/>
<path d="M112.954 122L112.977 121.872L113.542 121.347C113.609 121.285 113.664 121.231 113.708 121.185C113.752 121.139 113.787 121.096 113.811 121.056C113.837 121.016 113.853 120.973 113.86 120.929C113.869 120.878 113.864 120.834 113.847 120.796C113.829 120.759 113.802 120.73 113.764 120.71C113.726 120.689 113.681 120.679 113.627 120.679C113.572 120.679 113.521 120.691 113.475 120.714C113.429 120.737 113.391 120.769 113.36 120.81C113.33 120.852 113.31 120.9 113.301 120.955H113.133C113.147 120.869 113.18 120.795 113.23 120.73C113.282 120.666 113.344 120.616 113.419 120.58C113.493 120.544 113.574 120.526 113.659 120.526C113.744 120.526 113.816 120.544 113.875 120.58C113.935 120.616 113.977 120.664 114.004 120.725C114.03 120.786 114.038 120.854 114.025 120.929C114.016 120.983 113.997 121.035 113.969 121.086C113.941 121.137 113.898 121.193 113.841 121.256C113.783 121.318 113.706 121.393 113.608 121.483L113.224 121.832L113.221 121.844H113.897L113.872 122H112.954Z" fill="white"/>
<path d="M56.9858 57.0227L57.6143 53.2727H58.0192L57.9482 53.706H57.9979C58.0357 53.6586 58.0878 53.5982 58.1541 53.5249C58.2216 53.4503 58.3121 53.384 58.4258 53.326C58.5406 53.2668 58.6868 53.2372 58.8643 53.2372C59.094 53.2372 59.2863 53.2946 59.4414 53.4094C59.5965 53.5243 59.706 53.687 59.7699 53.8977C59.8338 54.1084 59.8421 54.357 59.7947 54.6435C59.7474 54.9323 59.6568 55.1826 59.5231 55.3945C59.3893 55.6052 59.226 55.7686 59.033 55.8846C58.8401 55.9994 58.63 56.0568 58.4027 56.0568C58.2275 56.0568 58.092 56.0278 57.9961 55.9698C57.9002 55.9106 57.8304 55.8437 57.7866 55.7692C57.7428 55.6934 57.709 55.6307 57.6854 55.581H57.6499L57.4084 57.0227H56.9858ZM57.799 54.6364C57.7659 54.8423 57.7659 55.024 57.799 55.1815C57.8333 55.3377 57.9014 55.4602 58.0032 55.549C58.1062 55.6366 58.2417 55.6804 58.4098 55.6804C58.585 55.6804 58.7383 55.6342 58.8697 55.5419C59.0022 55.4484 59.1112 55.3229 59.1964 55.1655C59.2828 55.0069 59.3426 54.8305 59.3757 54.6364C59.4065 54.4446 59.4053 54.2718 59.3722 54.1179C59.339 53.9628 59.2715 53.8403 59.1697 53.7504C59.0679 53.6592 58.9283 53.6136 58.7507 53.6136C58.5803 53.6136 58.4293 53.6568 58.2979 53.7433C58.1677 53.8285 58.06 53.948 57.9748 54.1019C57.8907 54.2546 57.8321 54.4328 57.799 54.6364ZM60.9182 55.5028L60.8543 55.6946C60.8117 55.8295 60.7573 55.974 60.691 56.1278C60.6247 56.2817 60.559 56.4267 60.4939 56.5629C60.4288 56.699 60.3761 56.8073 60.3358 56.8878H60.0162C60.0423 56.812 60.0778 56.712 60.1228 56.5877C60.1678 56.4634 60.2157 56.3249 60.2666 56.1722C60.3175 56.0195 60.3643 55.8627 60.4069 55.7017L60.4637 55.5028H60.9182ZM63.0724 56L63.6761 52.3636H65.8707L65.8068 52.7543H64.0526L63.8466 53.983H65.4872L65.4233 54.3736H63.7827L63.5767 55.6094H65.3594L65.2955 56H63.0724Z" fill="white"/>
<path d="M61.1061 52.1061C61.1646 52.0475 61.1646 51.9525 61.1061 51.8939L60.1515 50.9393C60.0929 50.8808 59.9979 50.8808 59.9393 50.9393C59.8808 50.9979 59.8808 51.0929 59.9393 51.1515L60.7879 52L59.9393 52.8485C59.8808 52.9071 59.8808 53.0021 59.9393 53.0607C59.9979 53.1192 60.0929 53.1192 60.1515 53.0607L61.1061 52.1061ZM57 52.15H61V51.85H57V52.15Z" fill="white"/>
<path d="M106.986 57.0227L107.614 53.2727H108.019L107.948 53.706H107.998C108.036 53.6586 108.088 53.5982 108.154 53.5249C108.222 53.4503 108.312 53.384 108.426 53.326C108.541 53.2668 108.687 53.2372 108.864 53.2372C109.094 53.2372 109.286 53.2946 109.441 53.4094C109.596 53.5243 109.706 53.687 109.77 53.8977C109.834 54.1084 109.842 54.357 109.795 54.6435C109.747 54.9323 109.657 55.1826 109.523 55.3945C109.389 55.6052 109.226 55.7686 109.033 55.8846C108.84 55.9994 108.63 56.0568 108.403 56.0568C108.228 56.0568 108.092 56.0278 107.996 55.9698C107.9 55.9106 107.83 55.8437 107.787 55.7692C107.743 55.6934 107.709 55.6307 107.685 55.581H107.65L107.408 57.0227H106.986ZM107.799 54.6364C107.766 54.8423 107.766 55.024 107.799 55.1815C107.833 55.3377 107.901 55.4602 108.003 55.549C108.106 55.6366 108.242 55.6804 108.41 55.6804C108.585 55.6804 108.738 55.6342 108.87 55.5419C109.002 55.4484 109.111 55.3229 109.196 55.1655C109.283 55.0069 109.343 54.8305 109.376 54.6364C109.406 54.4446 109.405 54.2718 109.372 54.1179C109.339 53.9628 109.272 53.8403 109.17 53.7504C109.068 53.6592 108.928 53.6136 108.751 53.6136C108.58 53.6136 108.429 53.6568 108.298 53.7433C108.168 53.8285 108.06 53.948 107.975 54.1019C107.891 54.2546 107.832 54.4328 107.799 54.6364ZM111.671 52.9034L111.259 52.0795H111.749L112.04 52.9034H111.671ZM113.404 55.5028L113.34 55.6946C113.297 55.8295 113.243 55.974 113.176 56.1278C113.11 56.2817 113.044 56.4267 112.979 56.5629C112.914 56.699 112.861 56.8073 112.821 56.8878H112.502C112.528 56.812 112.563 56.712 112.608 56.5877C112.653 56.4634 112.701 56.3249 112.752 56.1722C112.803 56.0195 112.85 55.8627 112.892 55.7017L112.949 55.5028H113.404ZM115.558 56L116.161 52.3636H118.356L118.292 52.7543H116.538L116.332 53.983H117.973L117.909 54.3736H116.268L116.062 55.6094H117.845L117.781 56H115.558ZM119.952 52.9034L119.54 52.0795H120.03L120.322 52.9034H119.952Z" fill="white"/>
<path d="M111.106 52.1061C111.165 52.0475 111.165 51.9525 111.106 51.8939L110.151 50.9393C110.093 50.8808 109.998 50.8808 109.939 50.9393C109.881 50.9979 109.881 51.0929 109.939 51.1515L110.788 52L109.939 52.8485C109.881 52.9071 109.881 53.0021 109.939 53.0607C109.998 53.1192 110.093 53.1192 110.151 53.0607L111.106 52.1061ZM107 52.15H111V51.85H107V52.15Z" fill="white"/>
<defs>
<linearGradient id="paint0_linear_375_75" x1="163.5" y1="7.50001" x2="10.5" y2="168.5" gradientUnits="userSpaceOnUse">
<stop stop-color="#D9D9D9"/>
<stop offset="0.988787" stop-color="#565656"/>
</linearGradient>
<clipPath id="clip0_375_75">
<rect width="46" height="46" fill="white" transform="translate(41 64)"/>
</clipPath>
<clipPath id="clip1_375_75">
<rect width="47" height="47" fill="white" transform="translate(87 63)"/>
</clipPath>
</defs>
</svg>
