<svg width="175" height="175" viewBox="0 0 175 175" fill="none" xmlns="http://www.w3.org/2000/svg">
<rect width="175" height="175" rx="20" fill="url(#paint0_linear_400_5)"/>
<g clip-path="url(#clip0_400_5)">
<path d="M119.667 104.333V71.6667L131.917 104.333V71.6667" stroke="black" stroke-width="4" stroke-linecap="round" stroke-linejoin="round"/>
<path d="M99.2497 71.6667C101.416 71.6667 103.493 72.5272 105.024 74.0587C106.556 75.5903 107.416 77.6675 107.416 79.8334V96.1667C107.416 98.3327 106.556 100.41 105.024 101.941C103.493 103.473 101.416 104.333 99.2497 104.333C97.0837 104.333 95.0065 103.473 93.475 101.941C91.9434 100.41 91.083 98.3327 91.083 96.1667V79.8334C91.083 77.6675 91.9434 75.5903 93.475 74.0587C95.0065 72.5272 97.0837 71.6667 99.2497 71.6667Z" stroke="black" stroke-width="4" stroke-linecap="round" stroke-linejoin="round"/>
<path d="M42.083 71.6667H54.333V98.2084C54.333 99.8329 53.6877 101.391 52.539 102.539C51.3904 103.688 49.8325 104.333 48.208 104.333C46.5836 104.333 45.0256 103.688 43.877 102.539C42.7283 101.391 42.083 99.8329 42.083 98.2084V96.1667" stroke="black" stroke-width="4" stroke-linecap="round" stroke-linejoin="round"/>
<path d="M66.583 100.25C66.583 101.333 67.0132 102.372 67.779 103.137C68.5448 103.903 69.5834 104.333 70.6663 104.333H74.7497C75.8326 104.333 76.8713 103.903 77.637 103.137C78.4028 102.372 78.833 101.333 78.833 100.25V92.0834C78.833 91.0004 78.4028 89.9618 77.637 89.1961C76.8713 88.4303 75.8326 88.0001 74.7497 88.0001H70.6663C69.5834 88.0001 68.5448 87.5699 67.779 86.8041C67.0132 86.0383 66.583 84.9997 66.583 83.9167V75.7501C66.583 74.6671 67.0132 73.6285 67.779 72.8627C68.5448 72.097 69.5834 71.6667 70.6663 71.6667H74.7497C75.8326 71.6667 76.8713 72.097 77.637 72.8627C78.4028 73.6285 78.833 74.6671 78.833 75.7501" stroke="black" stroke-width="4" stroke-linecap="round" stroke-linejoin="round"/>
</g>
<defs>
<linearGradient id="paint0_linear_400_5" x1="163.5" y1="7.50001" x2="10.5" y2="168.5" gradientUnits="userSpaceOnUse">
<stop stop-color="#D9D9D9"/>
<stop offset="0.988787" stop-color="#565656"/>
</linearGradient>
<clipPath id="clip0_400_5">
<rect width="98" height="98" fill="white" transform="translate(38 39)"/>
</clipPath>
</defs>
</svg>
