<svg width="175" height="175" viewBox="0 0 175 175" fill="none" xmlns="http://www.w3.org/2000/svg">
<rect width="175" height="175" rx="20" fill="url(#paint0_linear_443_148)"/>
<path d="M106.432 80.1093C107.741 80.1093 108.802 79.0481 108.802 77.7391C108.802 76.4301 107.741 75.3689 106.432 75.3689C105.123 75.3689 104.062 76.4301 104.062 77.7391C104.062 79.0481 105.123 80.1093 106.432 80.1093Z" fill="black"/>
<path d="M119.976 64.2493C121.71 64.2493 123.116 62.8432 123.116 61.1087C123.116 59.3741 121.71 57.968 119.976 57.968C118.241 57.968 116.835 59.3741 116.835 61.1087C116.835 62.8432 118.241 64.2493 119.976 64.2493Z" fill="black"/>
<path d="M92.7783 61.2563C95.1039 61.2563 96.9892 59.371 96.9892 57.0454C96.9892 54.7198 95.1039 52.8345 92.7783 52.8345C90.4527 52.8345 88.5674 54.7198 88.5674 57.0454C88.5674 59.371 90.4527 61.2563 92.7783 61.2563Z" fill="black"/>
<path d="M136.759 43.1986C131.653 36.8107 118.392 26 101.073 26C89.4928 26 78.4735 30.8413 68.3219 40.3893C68.3045 40.4059 68.2873 40.4225 68.2707 40.4397C58.371 50.6237 59.6645 60.0312 61.3031 71.9478C61.4037 72.6808 61.506 73.4239 61.6072 74.1783C61.8786 76.2034 60.1062 79.3275 58.3918 82.349C55.8158 86.8886 53.1524 91.583 56.4063 93.8003C61.9667 97.5899 62.9328 105.049 63.8679 112.266C64.0901 113.979 64.3198 115.752 64.6067 117.475C65.102 120.447 67.61 121.892 72.2742 121.892C74.348 121.892 76.5627 121.636 78.7061 121.388C80.5428 121.176 82.2778 120.975 83.6666 120.975C84.4429 120.975 85.0495 121.037 85.5204 121.165C91.1242 122.683 96.0196 134.014 97.7893 140.799C97.9328 141.35 98.3571 141.783 98.9046 141.939C99.0494 141.98 99.1969 142 99.3433 142C99.7507 142 100.15 141.845 100.452 141.556L129.174 114.145C129.619 113.721 129.782 113.08 129.595 112.494C127.059 104.56 132.329 96.8159 136.98 89.9805C139.01 86.9981 140.926 84.1816 142.237 81.4069C148.284 68.6088 143.928 52.1689 136.759 43.1986ZM97.0505 70.2201L95.9807 68.5223C95.1876 68.7435 94.381 68.881 93.5736 68.9338L93.1295 70.8912C92.9699 71.5939 92.2707 72.0345 91.568 71.8747L87.4671 70.9437C86.7641 70.7839 86.3238 70.0849 86.4831 69.3822L86.9274 67.4248C86.2218 67.0286 85.5539 66.5564 84.9339 66.0145L83.2364 67.084C82.6266 67.4681 81.8206 67.2853 81.4364 66.6755L79.195 63.1175C78.8108 62.5074 78.9937 61.7016 79.6035 61.3175L81.301 60.248C81.0798 59.4548 80.9422 58.6483 80.8898 57.8409L78.9321 57.3965C78.2296 57.237 77.789 56.5377 77.9486 55.835L78.8796 51.7341C79.0392 51.0312 79.7384 50.5908 80.4414 50.7504L82.3988 51.1947C82.7947 50.4888 83.2672 49.8209 83.809 49.2009L82.7396 47.5034C82.3554 46.8936 82.5383 46.0878 83.1481 45.7037L86.7061 43.4623C87.3159 43.0778 88.1216 43.2607 88.5061 43.8705L89.5755 45.568C90.3687 45.3471 91.1753 45.2093 91.9829 45.1568L92.427 43.1994C92.5866 42.4967 93.2856 42.056 93.9885 42.2158L98.0891 43.1466C98.7921 43.3065 99.2325 44.0057 99.0729 44.7081L98.6288 46.6655C99.3345 47.0617 100.003 47.5342 100.623 48.076L102.32 47.0066C102.93 46.6224 103.736 46.8053 104.12 47.4151L106.362 50.9731C106.746 51.5829 106.563 52.3889 105.953 52.7731L104.256 53.8425C104.476 54.6357 104.614 55.4423 104.667 56.25L106.624 56.6941C107.327 56.8536 107.768 57.5528 107.608 58.2556L106.677 62.3564C106.517 63.0594 105.818 63.4998 105.115 63.3402L103.158 62.8958C102.762 63.6015 102.29 64.2697 101.748 64.8897L102.817 66.5874C103.201 67.197 103.018 68.003 102.408 68.3871L98.8505 70.6286C98.2399 71.0127 97.4344 70.8296 97.0505 70.2201ZM114.227 77.6337L113.136 77.9266C113.124 78.3819 113.064 78.8386 112.958 79.2894L113.936 79.8538C114.287 80.0564 114.408 80.5056 114.205 80.8574L113.022 82.9077C112.819 83.2591 112.37 83.3796 112.019 83.1767L111.041 82.6124C110.704 82.9304 110.338 83.211 109.95 83.4492L110.243 84.5404C110.349 84.9325 110.116 85.3354 109.724 85.4401L107.438 86.0537C107.046 86.1591 106.643 85.9262 106.538 85.5349L106.245 84.4434C105.79 84.4317 105.333 84.372 104.882 84.2649L104.318 85.2431C104.115 85.5943 103.666 85.715 103.315 85.5118L101.264 84.3291C100.913 84.1262 100.792 83.677 100.995 83.3255L101.559 82.3474C101.241 82.0103 100.961 81.6447 100.722 81.2568L99.6311 81.5496C99.2394 81.6548 98.8363 81.4222 98.7314 81.0306L98.1178 78.7441C98.0126 78.3522 98.2455 77.9491 98.6371 77.8441L99.7283 77.5513C99.7403 77.0962 99.8 76.6395 99.9065 76.1884L98.9286 75.6241C98.5772 75.4215 98.4564 74.972 98.6593 74.6205L99.842 72.5702C100.045 72.2187 100.494 72.0983 100.846 72.3009L101.824 72.8652C102.161 72.5469 102.526 72.2666 102.914 72.0284L102.621 70.9372C102.516 70.5453 102.749 70.1424 103.14 70.0375L105.426 69.4239C105.818 69.319 106.221 69.5514 106.326 69.9433L106.619 71.0344C107.074 71.0462 107.531 71.1062 107.982 71.213L108.546 70.2348C108.749 69.8833 109.199 69.7628 109.55 69.9655L111.6 71.1482C111.951 71.3511 112.072 71.8003 111.869 72.1515L111.305 73.1297C111.623 73.4667 111.903 73.8321 112.142 74.2206L113.233 73.9277C113.625 73.8225 114.028 74.0554 114.133 74.4468L114.746 76.7329C114.852 77.1256 114.619 77.5288 114.227 77.6337ZM130.305 60.9689L128.86 61.3568C128.843 61.9602 128.765 62.5655 128.623 63.163L129.919 63.9107C130.385 64.1795 130.544 64.7746 130.276 65.2403L128.709 67.9572C128.44 68.423 127.845 68.5826 127.379 68.3141L126.083 67.5664C125.636 67.9883 125.152 68.3596 124.638 68.6755L125.026 70.1213C125.165 70.6404 124.857 71.1744 124.338 71.3136L121.309 72.1264C120.789 72.2658 120.255 71.958 120.116 71.4386L119.728 69.9925C119.125 69.9767 118.52 69.8978 117.922 69.7562L117.175 71.0524C116.906 71.5179 116.311 71.6777 115.845 71.4089L113.128 69.8418C112.662 69.573 112.503 68.9774 112.771 68.5124L113.519 67.216C113.097 66.7694 112.726 66.2852 112.41 65.7709L110.964 66.1588C110.446 66.2983 109.911 65.9902 109.772 65.4711L108.959 62.4418C108.82 61.9225 109.128 61.3884 109.647 61.2492L111.093 60.8613C111.109 60.2579 111.188 59.6527 111.33 59.0552L110.033 58.3075C109.568 58.039 109.408 57.4436 109.676 56.9781L111.244 54.2612C111.512 53.7954 112.108 53.6359 112.574 53.9044L113.87 54.6521C114.317 54.2302 114.801 53.8589 115.315 53.543L114.927 52.0974C114.788 51.5781 115.096 51.0443 115.615 50.9048L118.644 50.0918C119.163 49.9523 119.697 50.2605 119.836 50.7801L120.224 52.2256C120.828 52.2414 121.433 52.3204 122.03 52.4623L122.778 51.1661C123.047 50.7003 123.642 50.5407 124.108 50.8092L126.824 52.3764C127.29 52.6451 127.45 53.2405 127.181 53.7057L126.433 55.0019C126.855 55.4485 127.227 55.9327 127.543 56.4472L128.988 56.0594C129.507 55.9199 130.041 56.228 130.18 56.7473L130.993 59.7766C131.133 60.296 130.825 60.8297 130.305 60.9689Z" fill="black"/>
<g clip-path="url(#clip0_443_148)">
<path d="M44 101H35.5C35.0356 101.009 34.5778 100.888 34.1782 100.652C33.7785 100.415 33.4527 100.071 33.2373 99.6599C33.0218 99.2483 32.9253 98.7849 32.9586 98.3216C32.9918 97.8582 33.1535 97.4133 33.4255 97.0368C33.6974 96.6602 34.069 96.3668 34.4983 96.1896C34.9277 96.0124 35.398 95.9583 35.8564 96.0334C36.3148 96.1085 36.7432 96.3098 37.0936 96.6148C37.4439 96.9198 37.7024 97.3164 37.84 97.76" stroke="black" stroke-width="2" stroke-linecap="round" stroke-linejoin="round"/>
<path d="M46 105H30.5C30.0356 104.991 29.5778 105.112 29.1782 105.348C28.7785 105.585 28.4527 105.929 28.2373 106.34C28.0218 106.752 27.9253 107.215 27.9586 107.678C27.9918 108.142 28.1535 108.587 28.4255 108.963C28.6974 109.34 29.069 109.633 29.4983 109.81C29.9277 109.988 30.398 110.042 30.8564 109.967C31.3148 109.892 31.7432 109.69 32.0936 109.385C32.4439 109.08 32.7024 108.684 32.84 108.24" stroke="black" stroke-width="2" stroke-linecap="round" stroke-linejoin="round"/>
<path d="M45 109H39.5C39.0356 108.991 38.5778 109.112 38.1782 109.348C37.7785 109.585 37.4527 109.929 37.2373 110.34C37.0218 110.752 36.9253 111.215 36.9586 111.678C36.9918 112.142 37.1535 112.587 37.4255 112.963C37.6974 113.34 38.069 113.633 38.4983 113.81C38.9277 113.988 39.398 114.042 39.8564 113.967C40.3148 113.892 40.7432 113.69 41.0936 113.385C41.4439 113.08 41.7024 112.684 41.84 112.24" stroke="black" stroke-width="2" stroke-linecap="round" stroke-linejoin="round"/>
</g>
<defs>
<linearGradient id="paint0_linear_443_148" x1="163.5" y1="7.50001" x2="10.5" y2="168.5" gradientUnits="userSpaceOnUse">
<stop stop-color="#D9D9D9"/>
<stop offset="0.988787" stop-color="#565656"/>
</linearGradient>
<clipPath id="clip0_443_148">
<rect width="24" height="24" fill="white" transform="matrix(-1 0 0 1 49 93)"/>
</clipPath>
</defs>
</svg>
