<svg width="189" height="175" viewBox="0 0 189 175" fill="none" xmlns="http://www.w3.org/2000/svg">
<rect x="14" width="175" height="175" rx="20" fill="url(#paint0_linear_440_22)"/>
<g clip-path="url(#clip0_440_22)">
<path d="M135.5 77.25C135.5 75.9902 136 74.782 136.891 73.8912C137.782 73.0004 138.99 72.5 140.25 72.5H168.75C170.01 72.5 171.218 73.0004 172.109 73.8912C173 74.782 173.5 75.9902 173.5 77.25V105.75C173.5 107.01 173 108.218 172.109 109.109C171.218 110 170.01 110.5 168.75 110.5H140.25C138.99 110.5 137.782 110 136.891 109.109C136 108.218 135.5 107.01 135.5 105.75V77.25Z" stroke="black" stroke-width="5" stroke-linecap="round" stroke-linejoin="round"/>
<path d="M145 89.125V101" stroke="black" stroke-width="5" stroke-linecap="round" stroke-linejoin="round"/>
<path d="M145 82V82.0238" stroke="black" stroke-width="5" stroke-linecap="round" stroke-linejoin="round"/>
<path d="M154.5 101V89.125" stroke="black" stroke-width="5" stroke-linecap="round" stroke-linejoin="round"/>
<path d="M164 101V93.875C164 92.6152 163.5 91.407 162.609 90.5162C161.718 89.6254 160.51 89.125 159.25 89.125C157.99 89.125 156.782 89.6254 155.891 90.5162C155 91.407 154.5 92.6152 154.5 93.875" stroke="black" stroke-width="5" stroke-linecap="round" stroke-linejoin="round"/>
</g>
<g clip-path="url(#clip1_440_22)">
<path d="M80.6667 88.6667L90.75 33.2084L70.5833 53.3751L60.5 28.1667L50.4167 53.3751L30.25 33.2084L40.3333 88.6667" stroke="black" stroke-width="7" stroke-linecap="round" stroke-linejoin="round"/>
<path d="M40.3333 88.6667L33.038 92.3169C32.2007 92.7353 31.4964 93.3786 31.004 94.1746C30.5116 94.9707 30.2505 95.8881 30.25 96.8242V108.833H90.75V96.8242C90.7495 95.8881 90.4884 94.9707 89.996 94.1746C89.5036 93.3786 88.7993 92.7353 87.962 92.3169L80.6667 88.6667H40.3333Z" stroke="black" stroke-width="7" stroke-linecap="round" stroke-linejoin="round"/>
<path d="M55.458 28.1667C55.458 29.5038 55.9892 30.7862 56.9347 31.7317C57.8802 32.6772 59.1625 33.2083 60.4997 33.2083C61.8368 33.2083 63.1192 32.6772 64.0647 31.7317C65.0102 30.7862 65.5413 29.5038 65.5413 28.1667C65.5413 26.8295 65.0102 25.5472 64.0647 24.6017C63.1192 23.6562 61.8368 23.125 60.4997 23.125C59.1625 23.125 57.8802 23.6562 56.9347 24.6017C55.9892 25.5472 55.458 26.8295 55.458 28.1667Z" stroke="black" stroke-width="7" stroke-linecap="round" stroke-linejoin="round"/>
<path d="M25.208 33.2084C25.208 34.5455 25.7392 35.8279 26.6847 36.7734C27.6302 37.7189 28.9125 38.2501 30.2497 38.2501C31.5868 38.2501 32.8692 37.7189 33.8147 36.7734C34.7602 35.8279 35.2913 34.5455 35.2913 33.2084C35.2913 31.8713 34.7602 30.5889 33.8147 29.6434C32.8692 28.6979 31.5868 28.1667 30.2497 28.1667C28.9125 28.1667 27.6302 28.6979 26.6847 29.6434C25.7392 30.5889 25.208 31.8713 25.208 33.2084Z" stroke="black" stroke-width="7" stroke-linecap="round" stroke-linejoin="round"/>
<path d="M85.708 33.2084C85.708 34.5455 86.2392 35.8279 87.1847 36.7734C88.1302 37.7189 89.4125 38.2501 90.7497 38.2501C92.0868 38.2501 93.3692 37.7189 94.3147 36.7734C95.2602 35.8279 95.7913 34.5455 95.7913 33.2084C95.7913 31.8713 95.2602 30.5889 94.3147 29.6434C93.3692 28.6979 92.0868 28.1667 90.7497 28.1667C89.4125 28.1667 88.1302 28.6979 87.1847 29.6434C86.2392 30.5889 85.708 31.8713 85.708 33.2084Z" stroke="black" stroke-width="7" stroke-linecap="round" stroke-linejoin="round"/>
</g>
<path d="M105.822 96V86.5455H107.788V90.1001H107.848C107.935 89.9093 108.059 89.7154 108.222 89.5185C108.388 89.3184 108.604 89.1522 108.869 89.0199C109.136 88.8845 109.469 88.8168 109.866 88.8168C110.383 88.8168 110.86 88.9522 111.297 89.223C111.734 89.4908 112.083 89.8955 112.345 90.4371C112.606 90.9757 112.737 91.6513 112.737 92.4638C112.737 93.2547 112.609 93.9226 112.354 94.4673C112.102 95.009 111.757 95.4199 111.32 95.6999C110.886 95.9769 110.4 96.1154 109.861 96.1154C109.48 96.1154 109.155 96.0523 108.887 95.9261C108.622 95.8 108.405 95.6415 108.236 95.4506C108.067 95.2567 107.938 95.0613 107.848 94.8643H107.761V96H105.822ZM107.747 92.4545C107.747 92.8762 107.805 93.244 107.922 93.5579C108.039 93.8718 108.208 94.1165 108.43 94.2919C108.652 94.4643 108.921 94.5504 109.238 94.5504C109.558 94.5504 109.829 94.4627 110.05 94.2873C110.272 94.1088 110.44 93.8626 110.554 93.5487C110.671 93.2317 110.729 92.867 110.729 92.4545C110.729 92.0452 110.672 91.6851 110.558 91.3743C110.444 91.0634 110.277 90.8203 110.055 90.6449C109.833 90.4695 109.561 90.3817 109.238 90.3817C108.918 90.3817 108.647 90.4664 108.425 90.6357C108.207 90.8049 108.039 91.045 107.922 91.3558C107.805 91.6667 107.747 92.0329 107.747 92.4545ZM115.035 98.6591C114.786 98.6591 114.552 98.6391 114.333 98.5991C114.118 98.5621 113.939 98.5144 113.798 98.456L114.241 96.9879C114.472 97.0587 114.68 97.0972 114.864 97.1033C115.052 97.1095 115.214 97.0664 115.349 96.9741C115.487 96.8817 115.6 96.7248 115.686 96.5032L115.801 96.2031L113.258 88.9091H115.326L116.794 94.1165H116.868L118.35 88.9091H120.432L117.676 96.7663C117.543 97.148 117.363 97.4804 117.136 97.7635C116.911 98.0497 116.626 98.2698 116.282 98.4237C115.937 98.5806 115.521 98.6591 115.035 98.6591Z" fill="#0D0D0D"/>
<path d="M66.8217 162V152.545H70.5518C71.2659 152.545 71.8752 152.673 72.38 152.929C72.8878 153.181 73.274 153.54 73.5387 154.004C73.8065 154.466 73.9403 155.009 73.9403 155.634C73.9403 156.262 73.8049 156.802 73.5341 157.254C73.2633 157.704 72.8709 158.048 72.3569 158.288C71.846 158.528 71.2274 158.648 70.5011 158.648H68.0036V157.042H70.1779C70.5595 157.042 70.8765 156.99 71.1289 156.885C71.3813 156.78 71.569 156.623 71.6921 156.414C71.8183 156.205 71.8814 155.945 71.8814 155.634C71.8814 155.32 71.8183 155.055 71.6921 154.84C71.569 154.624 71.3797 154.461 71.1243 154.35C70.8719 154.237 70.5534 154.18 70.1687 154.18H68.8207V162H66.8217ZM71.9276 157.697L74.2773 162H72.0707L69.7717 157.697H71.9276ZM78.4333 162.138C77.7039 162.138 77.0761 161.991 76.5498 161.695C76.0266 161.397 75.6234 160.975 75.3403 160.43C75.0571 159.883 74.9156 159.235 74.9156 158.487C74.9156 157.757 75.0571 157.117 75.3403 156.566C75.6234 156.016 76.022 155.586 76.536 155.278C77.053 154.971 77.6593 154.817 78.3548 154.817C78.8227 154.817 79.2581 154.892 79.6613 155.043C80.0676 155.191 80.4215 155.414 80.7231 155.712C81.0278 156.011 81.2648 156.386 81.434 156.839C81.6033 157.288 81.6879 157.814 81.6879 158.418V158.958H75.7004V157.739H79.8367C79.8367 157.456 79.7752 157.205 79.6521 156.987C79.529 156.768 79.3582 156.597 79.1396 156.474C78.9242 156.348 78.6734 156.285 78.3872 156.285C78.0886 156.285 77.824 156.354 77.5931 156.493C77.3654 156.628 77.1869 156.811 77.0576 157.042C76.9284 157.27 76.8622 157.524 76.8591 157.804V158.962C76.8591 159.313 76.9237 159.616 77.053 159.872C77.1853 160.127 77.3715 160.324 77.6116 160.463C77.8517 160.601 78.1363 160.67 78.4656 160.67C78.6842 160.67 78.8842 160.64 79.0658 160.578C79.2474 160.517 79.4028 160.424 79.532 160.301C79.6613 160.178 79.7598 160.027 79.8275 159.849L81.6464 159.969C81.5541 160.406 81.3648 160.787 81.0786 161.114C80.7954 161.437 80.4292 161.689 79.9798 161.871C79.5336 162.049 79.0181 162.138 78.4333 162.138ZM82.9713 164.659V154.909H84.9102V156.1H84.998C85.0841 155.909 85.2088 155.715 85.3719 155.518C85.5381 155.318 85.7535 155.152 86.0182 155.02C86.286 154.884 86.6183 154.817 87.0154 154.817C87.5324 154.817 88.0094 154.952 88.4465 155.223C88.8835 155.491 89.2328 155.895 89.4944 156.437C89.756 156.976 89.8868 157.651 89.8868 158.464C89.8868 159.255 89.7591 159.923 89.5036 160.467C89.2513 161.009 88.9066 161.42 88.4695 161.7C88.0356 161.977 87.5493 162.115 87.0107 162.115C86.6291 162.115 86.3044 162.052 86.0367 161.926C85.772 161.8 85.555 161.641 85.3857 161.451C85.2165 161.257 85.0872 161.061 84.998 160.864H84.9379V164.659H82.9713ZM84.8964 158.455C84.8964 158.876 84.9549 159.244 85.0718 159.558C85.1888 159.872 85.358 160.116 85.5796 160.292C85.8012 160.464 86.0705 160.55 86.3875 160.55C86.7076 160.55 86.9784 160.463 87.2 160.287C87.4216 160.109 87.5893 159.863 87.7032 159.549C87.8202 159.232 87.8786 158.867 87.8786 158.455C87.8786 158.045 87.8217 157.685 87.7078 157.374C87.594 157.063 87.4262 156.82 87.2046 156.645C86.983 156.469 86.7107 156.382 86.3875 156.382C86.0674 156.382 85.7966 156.466 85.575 156.636C85.3565 156.805 85.1888 157.045 85.0718 157.356C84.9549 157.667 84.8964 158.033 84.8964 158.455ZM93.1645 152.545V162H91.1979V152.545H93.1645ZM96.7619 162.134C96.3095 162.134 95.9063 162.055 95.5524 161.898C95.1984 161.738 94.9184 161.503 94.7122 161.192C94.5091 160.878 94.4075 160.487 94.4075 160.02C94.4075 159.626 94.4798 159.295 94.6245 159.027C94.7691 158.759 94.9661 158.544 95.2154 158.381C95.4647 158.218 95.7478 158.094 96.0648 158.011C96.3849 157.928 96.7203 157.87 97.0712 157.836C97.4836 157.793 97.816 157.753 98.0684 157.716C98.3207 157.676 98.5038 157.617 98.6177 157.54C98.7316 157.464 98.7885 157.35 98.7885 157.199V157.171C98.7885 156.879 98.6962 156.653 98.5115 156.493C98.33 156.333 98.0714 156.252 97.736 156.252C97.382 156.252 97.1004 156.331 96.8912 156.488C96.6819 156.642 96.5434 156.836 96.4757 157.07L94.6568 156.922C94.7491 156.491 94.9307 156.119 95.2015 155.805C95.4724 155.488 95.8217 155.245 96.2495 155.075C96.6803 154.903 97.1789 154.817 97.7452 154.817C98.1391 154.817 98.5162 154.863 98.8762 154.955C99.2394 155.048 99.561 155.191 99.8411 155.385C100.124 155.578 100.347 155.828 100.51 156.132C100.674 156.434 100.755 156.796 100.755 157.217V162H98.8901V161.017H98.8347C98.7208 161.238 98.5685 161.434 98.3777 161.603C98.1868 161.769 97.9576 161.9 97.6898 161.995C97.4221 162.088 97.1127 162.134 96.7619 162.134ZM97.3251 160.777C97.6144 160.777 97.8699 160.72 98.0914 160.606C98.313 160.489 98.4869 160.332 98.6131 160.135C98.7393 159.938 98.8024 159.715 98.8024 159.466V158.713C98.7408 158.753 98.6562 158.79 98.5485 158.824C98.4438 158.855 98.3253 158.884 98.193 158.912C98.0607 158.936 97.9283 158.959 97.796 158.981C97.6636 158.999 97.5436 159.016 97.4359 159.032C97.2051 159.065 97.0035 159.119 96.8311 159.193C96.6588 159.267 96.5249 159.367 96.4295 159.493C96.3341 159.616 96.2864 159.77 96.2864 159.955C96.2864 160.223 96.3833 160.427 96.5772 160.569C96.7742 160.707 97.0235 160.777 97.3251 160.777ZM103.241 164.659C102.992 164.659 102.758 164.639 102.539 164.599C102.324 164.562 102.145 164.514 102.004 164.456L102.447 162.988C102.678 163.059 102.886 163.097 103.07 163.103C103.258 163.109 103.42 163.066 103.555 162.974C103.694 162.882 103.806 162.725 103.892 162.503L104.007 162.203L101.464 154.909H103.532L105 160.116H105.074L106.556 154.909H108.638L105.882 162.766C105.749 163.148 105.569 163.48 105.342 163.763C105.117 164.05 104.832 164.27 104.488 164.424C104.143 164.581 103.727 164.659 103.241 164.659ZM116.258 158.713H117.957L118.811 159.812L119.652 160.79L121.235 162.776H119.37L118.28 161.437L117.722 160.643L116.258 158.713ZM121.378 157.273C121.378 158.304 121.183 159.181 120.792 159.904C120.404 160.627 119.875 161.18 119.204 161.561C118.536 161.94 117.785 162.129 116.951 162.129C116.111 162.129 115.357 161.938 114.689 161.557C114.021 161.175 113.493 160.623 113.105 159.9C112.718 159.176 112.524 158.301 112.524 157.273C112.524 156.242 112.718 155.365 113.105 154.641C113.493 153.918 114.021 153.367 114.689 152.989C115.357 152.607 116.111 152.416 116.951 152.416C117.785 152.416 118.536 152.607 119.204 152.989C119.875 153.367 120.404 153.918 120.792 154.641C121.183 155.365 121.378 156.242 121.378 157.273ZM119.351 157.273C119.351 156.605 119.251 156.042 119.051 155.583C118.854 155.125 118.576 154.777 118.216 154.54C117.856 154.303 117.434 154.184 116.951 154.184C116.468 154.184 116.046 154.303 115.686 154.54C115.326 154.777 115.046 155.125 114.846 155.583C114.649 156.042 114.55 156.605 114.55 157.273C114.55 157.941 114.649 158.504 114.846 158.962C115.046 159.421 115.326 159.769 115.686 160.006C116.046 160.243 116.468 160.361 116.951 160.361C117.434 160.361 117.856 160.243 118.216 160.006C118.576 159.769 118.854 159.421 119.051 158.962C119.251 158.504 119.351 157.941 119.351 157.273ZM127.369 158.981V154.909H129.336V162H127.448V160.712H127.374C127.214 161.127 126.948 161.461 126.575 161.714C126.206 161.966 125.755 162.092 125.222 162.092C124.749 162.092 124.331 161.985 123.971 161.769C123.611 161.554 123.33 161.248 123.127 160.85C122.927 160.453 122.825 159.978 122.822 159.424V154.909H124.789V159.073C124.792 159.492 124.904 159.823 125.126 160.066C125.347 160.309 125.644 160.43 126.017 160.43C126.253 160.43 126.475 160.377 126.681 160.269C126.887 160.158 127.054 159.995 127.18 159.779C127.309 159.564 127.372 159.298 127.369 158.981ZM134.14 162.138C133.411 162.138 132.783 161.991 132.257 161.695C131.734 161.397 131.33 160.975 131.047 160.43C130.764 159.883 130.623 159.235 130.623 158.487C130.623 157.757 130.764 157.117 131.047 156.566C131.33 156.016 131.729 155.586 132.243 155.278C132.76 154.971 133.366 154.817 134.062 154.817C134.53 154.817 134.965 154.892 135.368 155.043C135.775 155.191 136.129 155.414 136.43 155.712C136.735 156.011 136.972 156.386 137.141 156.839C137.31 157.288 137.395 157.814 137.395 158.418V158.958H131.407V157.739H135.544C135.544 157.456 135.482 157.205 135.359 156.987C135.236 156.768 135.065 156.597 134.847 156.474C134.631 156.348 134.38 156.285 134.094 156.285C133.796 156.285 133.531 156.354 133.3 156.493C133.072 156.628 132.894 156.811 132.765 157.042C132.635 157.27 132.569 157.524 132.566 157.804V158.962C132.566 159.313 132.631 159.616 132.76 159.872C132.892 160.127 133.079 160.324 133.319 160.463C133.559 160.601 133.843 160.67 134.173 160.67C134.391 160.67 134.591 160.64 134.773 160.578C134.954 160.517 135.11 160.424 135.239 160.301C135.368 160.178 135.467 160.027 135.535 159.849L137.353 159.969C137.261 160.406 137.072 160.787 136.786 161.114C136.502 161.437 136.136 161.689 135.687 161.871C135.241 162.049 134.725 162.138 134.14 162.138ZM141.91 162.138C141.18 162.138 140.553 161.991 140.026 161.695C139.503 161.397 139.1 160.975 138.817 160.43C138.534 159.883 138.392 159.235 138.392 158.487C138.392 157.757 138.534 157.117 138.817 156.566C139.1 156.016 139.499 155.586 140.013 155.278C140.53 154.971 141.136 154.817 141.831 154.817C142.299 154.817 142.735 154.892 143.138 155.043C143.544 155.191 143.898 155.414 144.2 155.712C144.504 156.011 144.741 156.386 144.911 156.839C145.08 157.288 145.165 157.814 145.165 158.418V158.958H139.177V157.739H143.313C143.313 157.456 143.252 157.205 143.129 156.987C143.006 156.768 142.835 156.597 142.616 156.474C142.401 156.348 142.15 156.285 141.864 156.285C141.565 156.285 141.301 156.354 141.07 156.493C140.842 156.628 140.663 156.811 140.534 157.042C140.405 157.27 140.339 157.524 140.336 157.804V158.962C140.336 159.313 140.4 159.616 140.53 159.872C140.662 160.127 140.848 160.324 141.088 160.463C141.328 160.601 141.613 160.67 141.942 160.67C142.161 160.67 142.361 160.64 142.542 160.578C142.724 160.517 142.879 160.424 143.009 160.301C143.138 160.178 143.236 160.027 143.304 159.849L145.123 159.969C145.031 160.406 144.841 160.787 144.555 161.114C144.272 161.437 143.906 161.689 143.456 161.871C143.01 162.049 142.495 162.138 141.91 162.138ZM148.415 157.901V162H146.448V154.909H148.322V156.16H148.405C148.562 155.748 148.825 155.422 149.195 155.181C149.564 154.938 150.012 154.817 150.538 154.817C151.031 154.817 151.46 154.924 151.826 155.14C152.192 155.355 152.477 155.663 152.68 156.063C152.883 156.46 152.985 156.934 152.985 157.485V162H151.018V157.836C151.021 157.402 150.91 157.063 150.686 156.82C150.461 156.574 150.152 156.451 149.758 156.451C149.493 156.451 149.259 156.508 149.056 156.622C148.856 156.736 148.699 156.902 148.585 157.12C148.475 157.336 148.418 157.596 148.415 157.901ZM160.435 156.931L158.634 157.042C158.603 156.888 158.537 156.75 158.436 156.626C158.334 156.5 158.2 156.4 158.034 156.326C157.871 156.249 157.676 156.211 157.448 156.211C157.143 156.211 156.886 156.276 156.677 156.405C156.468 156.531 156.363 156.7 156.363 156.913C156.363 157.082 156.431 157.225 156.566 157.342C156.701 157.459 156.934 157.553 157.263 157.624L158.547 157.882C159.236 158.024 159.75 158.251 160.088 158.565C160.427 158.879 160.596 159.292 160.596 159.803C160.596 160.267 160.459 160.675 160.185 161.026C159.915 161.377 159.542 161.651 159.068 161.848C158.597 162.042 158.054 162.138 157.439 162.138C156.5 162.138 155.752 161.943 155.195 161.552C154.641 161.158 154.316 160.623 154.221 159.946L156.155 159.844C156.214 160.13 156.355 160.349 156.58 160.5C156.805 160.647 157.092 160.721 157.443 160.721C157.788 160.721 158.065 160.655 158.274 160.523C158.487 160.387 158.594 160.213 158.597 160.001C158.594 159.823 158.519 159.676 158.371 159.562C158.223 159.446 157.996 159.356 157.688 159.295L156.46 159.05C155.767 158.912 155.252 158.672 154.913 158.33C154.578 157.988 154.41 157.553 154.41 157.023C154.41 156.568 154.533 156.176 154.779 155.846C155.029 155.517 155.378 155.263 155.827 155.085C156.28 154.906 156.809 154.817 157.415 154.817C158.311 154.817 159.016 155.006 159.53 155.385C160.047 155.763 160.348 156.279 160.435 156.931Z" fill="#0D0D0D"/>
<g clip-path="url(#clip2_440_22)">
<path d="M42 149V165C41.9999 165.178 42.0474 165.353 42.1374 165.506C42.2274 165.66 42.3567 165.786 42.512 165.873C42.6673 165.96 42.843 166.004 43.0209 166C43.1988 165.996 43.3725 165.945 43.524 165.852L56.524 157.852C56.6696 157.763 56.7898 157.637 56.8733 157.488C56.9567 157.339 57.0005 157.171 57.0005 157C57.0005 156.829 56.9567 156.661 56.8733 156.512C56.7898 156.363 56.6696 156.238 56.524 156.148L43.524 148.148C43.3725 148.055 43.1988 148.004 43.0209 148C42.843 147.996 42.6673 148.04 42.512 148.127C42.3567 148.214 42.2274 148.34 42.1374 148.494C42.0474 148.647 41.9999 148.822 42 149Z" fill="black"/>
</g>
<defs>
<linearGradient id="paint0_linear_440_22" x1="177.5" y1="7.50001" x2="24.5" y2="168.5" gradientUnits="userSpaceOnUse">
<stop stop-color="#D9D9D9"/>
<stop offset="0.988787" stop-color="#565656"/>
</linearGradient>
<clipPath id="clip0_440_22">
<rect width="57" height="57" fill="white" transform="translate(126 63)"/>
</clipPath>
<clipPath id="clip1_440_22">
<rect width="121" height="121" fill="white" transform="translate(0 8)"/>
</clipPath>
<clipPath id="clip2_440_22">
<rect width="24" height="24" fill="white" transform="translate(36 145)"/>
</clipPath>
</defs>
</svg>
