<svg width="177" height="182" viewBox="0 0 177 182" fill="none" xmlns="http://www.w3.org/2000/svg">
<rect x="2" y="7" width="175" height="175" rx="20" fill="url(#paint0_linear_375_74)"/>
<g clip-path="url(#clip0_375_74)">
<path d="M21.9091 26.6405L12.2702 44.8548L19.2799 56.9545L21.5691 50.9727L22.0724 49.6594L23.2605 50.4124L27.426 53.0553L30.4656 54.9803L26.8739 55.1734L24.2772 55.3122L24.6362 60.5816L48.7074 60.1764L46.0072 55.7959L43.8891 52.3675L47.4973 54.1647L66.492 63.6373L78.1184 47.4326L64.4419 25.7949L44.1448 20.213L21.9091 26.6405ZM21.2293 35.9992L22.2815 41.8913L28.3885 48.5639L18.2846 43.1909L21.2293 35.9992ZM30.9089 42.5737L54.2594 46.2389L66.3345 40.0587L56.9187 49.3277L36.1539 47.8186L30.9091 42.5738L30.9089 42.5737ZM35.6344 66.3811L61.1493 67.5122L54.9337 62.2646L35.6344 66.3811Z" fill="black"/>
</g>
<g clip-path="url(#clip1_375_74)">
<path d="M149.328 57.9988V69.3621C149.328 73.0781 151.934 76.2499 155.394 76.2499L165.297 76.2488V124.156C165.297 127.936 162.233 131 158.453 131H110.547C106.767 131 103.703 127.936 103.703 124.156V64.8437C103.703 61.064 106.767 57.9999 110.547 57.9999L149.328 57.9988ZM154.664 59.1377L163.749 67.1344C164.733 68.0006 165.297 69.2481 165.297 70.5591V71.6863L155.394 71.6874C154.674 71.6874 153.891 70.7344 153.891 69.3621L153.893 58.5895C154.167 58.7439 154.425 58.9273 154.664 59.1377Z" fill="#1C1C1F"/>
</g>
<g clip-path="url(#clip2_375_74)">
<path fill-rule="evenodd" clip-rule="evenodd" d="M68.2198 111.37C68.2198 111.37 62.2259 110.556 61.6589 111.227L45.2335 134.745L34.6834 131.48C33.4759 128.025 28.952 125.289 23.2063 124.917C20.3823 124.726 17.5936 125.16 15.3591 126.135C12.3845 127.434 10.5968 129.578 10.4613 132.014C10.207 136.429 15.409 140.233 22.2942 140.692C25.1167 140.879 27.9054 140.445 30.1434 139.468C31.8121 138.74 33.0523 137.728 33.8968 136.567L41.8869 139.548L38.7653 147.176C37.2863 146.932 35.6191 147.13 33.8542 147.901C31.6162 148.878 29.4149 150.618 27.6363 152.822C23.3505 158.133 22.6599 164.45 26.07 167.206C27.9322 168.706 30.688 168.837 33.6198 167.557C35.8543 166.582 38.0596 164.831 39.8347 162.629C43.2842 158.352 44.3616 153.455 42.8832 150.263L47.6831 140.356L76.0982 144.303C76.9743 144.34 80.4519 139.39 80.4519 139.39L51.1095 135.522L68.2198 111.37ZM30.845 133.342C30.8111 133.992 30.4349 134.605 29.8625 135.147C28.4153 136.529 25.5524 137.452 22.5168 137.253C18.1159 136.963 14.5095 134.669 14.6426 132.247C14.7141 131.043 15.7322 129.921 17.4472 129.172C18.9985 128.495 20.9593 128.202 22.9779 128.333C26.1298 128.537 28.8466 129.783 30.1012 131.366C30.5937 131.99 30.8806 132.657 30.845 133.342ZM37.2449 160.578C34.5446 163.921 30.3953 165.576 28.585 164.117C26.6695 162.572 27.4154 158.333 30.2198 154.859C31.5096 153.262 33.0931 151.999 34.6765 151.308C35.4984 150.949 36.2797 150.769 36.9704 150.76C37.7258 150.743 38.3821 150.927 38.8711 151.319C39.5067 151.834 39.8237 152.657 39.893 153.631C40.0399 155.617 39.1095 158.26 37.2449 160.578Z" fill="#1C1C1F"/>
</g>
<defs>
<linearGradient id="paint0_linear_375_74" x1="165.5" y1="14.5" x2="12.5" y2="175.5" gradientUnits="userSpaceOnUse">
<stop stop-color="#D9D9D9"/>
<stop offset="0.988787" stop-color="#565656"/>
</linearGradient>
<clipPath id="clip0_375_74">
<rect width="63" height="63" fill="white" transform="translate(0 44.5476) rotate(-45)"/>
</clipPath>
<clipPath id="clip1_375_74">
<rect width="73" height="73" fill="white" transform="translate(98 58)"/>
</clipPath>
<clipPath id="clip2_375_74">
<rect width="66" height="66" fill="white" transform="translate(5 121.406) rotate(-23.5837)"/>
</clipPath>
</defs>
</svg>
