<svg width="175" height="175" viewBox="0 0 175 175" fill="none" xmlns="http://www.w3.org/2000/svg">
<rect width="175" height="175" rx="20" fill="url(#paint0_linear_442_91)"/>
<g clip-path="url(#clip0_442_91)">
<path d="M82 61.5L78 65.5L74 67L72.5 68.5L79.5 75.5L81 74L82.5 70L86.5 66" stroke="black" stroke-width="2" stroke-linecap="round" stroke-linejoin="round"/>
<path d="M76 72L71.5 76.5" stroke="black" stroke-width="2" stroke-linecap="round" stroke-linejoin="round"/>
<path d="M81.5 61L87 66.5" stroke="black" stroke-width="2" stroke-linecap="round" stroke-linejoin="round"/>
</g>
<g clip-path="url(#clip1_442_91)">
<path d="M94 113L122 87" stroke="black" stroke-width="4" stroke-linecap="round" stroke-linejoin="round"/>
<path d="M94.875 113V91.25C94.875 90.2886 95.2833 89.3666 96.01 88.6867C96.7367 88.0069 97.7223 87.625 98.75 87.625H122V62.25C122 60.3272 121.183 58.4831 119.73 57.1235C118.277 55.7638 116.305 55 114.25 55H67.75C65.6946 55 63.7233 55.7638 62.2699 57.1235C60.8165 58.4831 60 60.3272 60 62.25V105.75C60 107.673 60.8165 109.517 62.2699 110.877C63.7233 112.236 65.6946 113 67.75 113H94.875Z" stroke="black" stroke-width="4" stroke-linecap="round" stroke-linejoin="round"/>
</g>
<g clip-path="url(#clip2_442_91)">
<path d="M46 15C46 16.1819 46.2328 17.3522 46.6851 18.4442C47.1374 19.5361 47.8003 20.5282 48.636 21.364C49.4718 22.1997 50.4639 22.8626 51.5558 23.3149C52.6478 23.7672 53.8181 24 55 24C56.1819 24 57.3522 23.7672 58.4442 23.3149C59.5361 22.8626 60.5282 22.1997 61.364 21.364C62.1997 20.5282 62.8626 19.5361 63.3149 18.4442C63.7672 17.3522 64 16.1819 64 15C64 13.8181 63.7672 12.6478 63.3149 11.5558C62.8626 10.4639 62.1997 9.47177 61.364 8.63604C60.5282 7.80031 59.5361 7.13738 58.4442 6.68508C57.3522 6.23279 56.1819 6 55 6C53.8181 6 52.6478 6.23279 51.5558 6.68508C50.4639 7.13738 49.4718 7.80031 48.636 8.63604C47.8003 9.47177 47.1374 10.4639 46.6851 11.5558C46.2328 12.6478 46 13.8181 46 15Z" stroke="black" stroke-width="2" stroke-linecap="round" stroke-linejoin="round"/>
<path d="M52 15C52 15.7956 52.3161 16.5587 52.8787 17.1213C53.4413 17.6839 54.2044 18 55 18C55.7956 18 56.5587 17.6839 57.1213 17.1213C57.6839 16.5587 58 15.7956 58 15C58 14.2044 57.6839 13.4413 57.1213 12.8787C56.5587 12.3161 55.7956 12 55 12C54.2044 12 53.4413 12.3161 52.8787 12.8787C52.3161 13.4413 52 14.2044 52 15Z" stroke="black" stroke-width="2" stroke-linecap="round" stroke-linejoin="round"/>
<path d="M55 12H63.4" stroke="black" stroke-width="2" stroke-linecap="round" stroke-linejoin="round"/>
<path d="M57.5984 16.5L53.3984 23.775" stroke="black" stroke-width="2" stroke-linecap="round" stroke-linejoin="round"/>
<path d="M52.4021 16.5001L48.2021 9.2251" stroke="black" stroke-width="2" stroke-linecap="round" stroke-linejoin="round"/>
</g>
<path d="M74.8305 21V11.5455H81.2013V13.1935H76.8295V15.4464H80.8735V17.0945H76.8295V19.3519H81.2197V21H74.8305ZM84.397 13.9091L85.6989 16.3881L87.033 13.9091H89.0504L86.9961 17.4545L89.1058 21H87.0977L85.6989 18.5487L84.3232 21H82.2919L84.397 17.4545L82.3658 13.9091H84.397ZM93.9901 13.9091V15.3864H89.7198V13.9091H93.9901ZM90.6893 12.2102H92.6559V18.821C92.6559 19.0026 92.6836 19.1442 92.739 19.2457C92.7944 19.3442 92.8713 19.4135 92.9698 19.4535C93.0714 19.4935 93.1883 19.5135 93.3207 19.5135C93.413 19.5135 93.5053 19.5058 93.5977 19.4904C93.69 19.4719 93.7608 19.4581 93.81 19.4489L94.1193 20.9123C94.0208 20.9431 93.8823 20.9785 93.7038 21.0185C93.5253 21.0616 93.3084 21.0877 93.0529 21.0969C92.579 21.1154 92.1635 21.0523 91.8065 20.9077C91.4525 20.763 91.1771 20.5384 90.9801 20.2337C90.7831 19.929 90.6862 19.5443 90.6893 19.0795V12.2102ZM98.4265 21.1385C97.6971 21.1385 97.0692 20.9908 96.543 20.6953C96.0198 20.3968 95.6166 19.9751 95.3335 19.4304C95.0503 18.8826 94.9087 18.2347 94.9087 17.4869C94.9087 16.7575 95.0503 16.1173 95.3335 15.5664C95.6166 15.0155 96.0152 14.5862 96.5291 14.2784C97.0462 13.9706 97.6525 13.8168 98.348 13.8168C98.8158 13.8168 99.2513 13.8922 99.6545 14.043C100.061 14.1907 100.415 14.4138 100.716 14.7124C101.021 15.0109 101.258 15.3864 101.427 15.8388C101.596 16.2881 101.681 16.8144 101.681 17.4176V17.9577H95.6935V16.739H99.8299C99.8299 16.4558 99.7683 16.205 99.6452 15.9865C99.5221 15.768 99.3513 15.5972 99.1328 15.4741C98.9174 15.3479 98.6665 15.2848 98.3803 15.2848C98.0818 15.2848 97.8171 15.354 97.5863 15.4925C97.3585 15.628 97.18 15.8111 97.0508 16.0419C96.9215 16.2696 96.8554 16.5236 96.8523 16.8036V17.9624C96.8523 18.3132 96.9169 18.6164 97.0462 18.8718C97.1785 19.1272 97.3647 19.3242 97.6048 19.4627C97.8448 19.6012 98.1295 19.6705 98.4588 19.6705C98.6773 19.6705 98.8774 19.6397 99.0589 19.5781C99.2405 19.5166 99.396 19.4242 99.5252 19.3011C99.6545 19.178 99.753 19.0272 99.8207 18.8487L101.64 18.9688C101.547 19.4058 101.358 19.7874 101.072 20.1136C100.789 20.4368 100.422 20.6892 99.973 20.8707C99.5268 21.0492 99.0112 21.1385 98.4265 21.1385ZM104.931 16.9006V21H102.964V13.9091H104.839V15.1602H104.922C105.079 14.7478 105.342 14.4215 105.711 14.1815C106.081 13.9383 106.528 13.8168 107.055 13.8168C107.547 13.8168 107.976 13.9245 108.343 14.1399C108.709 14.3554 108.994 14.6631 109.197 15.0632C109.4 15.4602 109.501 15.9342 109.501 16.4851V21H107.535V16.8359C107.538 16.402 107.427 16.0634 107.202 15.8203C106.978 15.5741 106.668 15.451 106.275 15.451C106.01 15.451 105.776 15.5079 105.573 15.6218C105.373 15.7357 105.216 15.9019 105.102 16.1204C104.991 16.3358 104.934 16.5959 104.931 16.9006ZM116.951 15.9311L115.151 16.0419C115.12 15.888 115.054 15.7495 114.952 15.6264C114.851 15.5002 114.717 15.4002 114.551 15.3263C114.388 15.2494 114.192 15.2109 113.964 15.2109C113.66 15.2109 113.403 15.2756 113.193 15.4048C112.984 15.531 112.88 15.7003 112.88 15.9126C112.88 16.0819 112.947 16.225 113.083 16.342C113.218 16.4589 113.45 16.5528 113.78 16.6236L115.063 16.8821C115.753 17.0237 116.266 17.2514 116.605 17.5653C116.944 17.8793 117.113 18.2917 117.113 18.8026C117.113 19.2673 116.976 19.6751 116.702 20.0259C116.431 20.3768 116.059 20.6507 115.585 20.8477C115.114 21.0415 114.571 21.1385 113.955 21.1385C113.016 21.1385 112.269 20.9431 111.712 20.5522C111.158 20.1583 110.833 19.6228 110.737 18.9457L112.672 18.8441C112.73 19.1303 112.872 19.3488 113.097 19.4996C113.321 19.6474 113.609 19.7212 113.96 19.7212C114.304 19.7212 114.581 19.6551 114.791 19.5227C115.003 19.3873 115.111 19.2134 115.114 19.0011C115.111 18.8226 115.035 18.6764 114.888 18.5625C114.74 18.4455 114.512 18.3563 114.204 18.2947L112.976 18.0501C112.284 17.9116 111.768 17.6715 111.43 17.3299C111.094 16.9883 110.927 16.5528 110.927 16.0234C110.927 15.5679 111.05 15.1755 111.296 14.8462C111.545 14.5169 111.895 14.263 112.344 14.0845C112.796 13.906 113.326 13.8168 113.932 13.8168C114.828 13.8168 115.532 14.006 116.046 14.3846C116.563 14.7631 116.865 15.2786 116.951 15.9311ZM118.351 21V13.9091H120.318V21H118.351ZM119.339 12.995C119.047 12.995 118.796 12.8981 118.587 12.7042C118.38 12.5072 118.277 12.2718 118.277 11.9979C118.277 11.727 118.38 11.4947 118.587 11.3008C118.796 11.1038 119.047 11.0053 119.339 11.0053C119.632 11.0053 119.881 11.1038 120.087 11.3008C120.296 11.4947 120.401 11.727 120.401 11.9979C120.401 12.2718 120.296 12.5072 120.087 12.7042C119.881 12.8981 119.632 12.995 119.339 12.995ZM125.097 21.1385C124.38 21.1385 123.76 20.9862 123.237 20.6815C122.716 20.3737 122.315 19.9459 122.032 19.3981C121.749 18.8472 121.607 18.2086 121.607 17.4822C121.607 16.7498 121.749 16.1096 122.032 15.5618C122.315 15.0109 122.716 14.5831 123.237 14.2784C123.76 13.9706 124.38 13.8168 125.097 13.8168C125.814 13.8168 126.433 13.9706 126.953 14.2784C127.476 14.5831 127.879 15.0109 128.162 15.5618C128.446 16.1096 128.587 16.7498 128.587 17.4822C128.587 18.2086 128.446 18.8472 128.162 19.3981C127.879 19.9459 127.476 20.3737 126.953 20.6815C126.433 20.9862 125.814 21.1385 125.097 21.1385ZM125.106 19.6151C125.432 19.6151 125.705 19.5227 125.923 19.3381C126.142 19.1503 126.307 18.8949 126.417 18.5717C126.531 18.2486 126.588 17.8808 126.588 17.4684C126.588 17.056 126.531 16.6882 126.417 16.3651C126.307 16.0419 126.142 15.7865 125.923 15.5987C125.705 15.411 125.432 15.3171 125.106 15.3171C124.777 15.3171 124.5 15.411 124.275 15.5987C124.054 15.7865 123.886 16.0419 123.772 16.3651C123.661 16.6882 123.606 17.056 123.606 17.4684C123.606 17.8808 123.661 18.2486 123.772 18.5717C123.886 18.8949 124.054 19.1503 124.275 19.3381C124.5 19.5227 124.777 19.6151 125.106 19.6151ZM131.832 16.9006V21H129.866V13.9091H131.74V15.1602H131.823C131.98 14.7478 132.243 14.4215 132.613 14.1815C132.982 13.9383 133.43 13.8168 133.956 13.8168C134.448 13.8168 134.878 13.9245 135.244 14.1399C135.61 14.3554 135.895 14.6631 136.098 15.0632C136.301 15.4602 136.403 15.9342 136.403 16.4851V21H134.436V16.8359C134.439 16.402 134.328 16.0634 134.104 15.8203C133.879 15.5741 133.57 15.451 133.176 15.451C132.911 15.451 132.677 15.5079 132.474 15.6218C132.274 15.7357 132.117 15.9019 132.003 16.1204C131.892 16.3358 131.836 16.5959 131.832 16.9006Z" fill="#0D0D0D"/>
<defs>
<linearGradient id="paint0_linear_442_91" x1="163.5" y1="7.50001" x2="10.5" y2="168.5" gradientUnits="userSpaceOnUse">
<stop stop-color="#D9D9D9"/>
<stop offset="0.988787" stop-color="#565656"/>
</linearGradient>
<clipPath id="clip0_442_91">
<rect width="24" height="24" fill="white" transform="translate(67 57)"/>
</clipPath>
<clipPath id="clip1_442_91">
<rect width="87" height="87" fill="white" transform="translate(44 49)"/>
</clipPath>
<clipPath id="clip2_442_91">
<rect width="24" height="24" fill="white" transform="translate(43 3)"/>
</clipPath>
</defs>
</svg>
