<svg width="175" height="175" viewBox="0 0 175 175" fill="none" xmlns="http://www.w3.org/2000/svg">
<rect width="175" height="175" rx="20" fill="url(#paint0_linear_375_76)"/>
<path fill-rule="evenodd" clip-rule="evenodd" d="M39.3189 85.0891C35.6995 85.0891 32.7698 88.0188 32.7698 91.6382C32.7698 95.2576 35.6995 98.1873 39.3189 98.1873C42.9382 98.1873 45.8679 95.2576 45.8679 91.6382C45.8679 88.0188 42.9382 85.0891 39.3189 85.0891ZM51.7517 79.8584C52.1118 80.6336 52.3987 81.5003 52.6184 82.4402C53.1189 84.0088 52.3804 84.3384 50.6714 83.6975C49.4141 82.9468 48.1567 82.19 46.8994 81.4392C46.2586 80.9876 45.9534 80.542 46.0571 80.1026C46.2647 79.2359 47.937 78.7842 49.3103 78.5156C51.0559 78.1677 50.9338 78.0945 51.7517 79.8584ZM85.437 88.5925C83.7585 88.5925 82.3914 89.9536 82.3914 91.6382C82.3914 93.3167 83.7524 94.6839 85.437 94.6839C87.1155 94.6839 88.4827 93.3228 88.4827 91.6382C88.4827 89.9536 87.1216 88.5925 85.437 88.5925ZM39.3189 88.5925C37.6404 88.5925 36.2732 89.9536 36.2732 91.6382C36.2732 93.3167 37.6343 94.6839 39.3189 94.6839C40.9973 94.6839 42.3645 93.3228 42.3645 91.6382C42.3645 89.9536 41.0034 88.5925 39.3189 88.5925ZM71.8384 84.4361C70.1477 82.6233 68.1946 81.4453 65.9363 80.3101C60.9924 77.8198 57.9651 78.125 52.7161 78.125L54.48 82.7027C55.2185 83.6792 56.0547 84.3689 57.3242 84.4361H71.8384ZM85.437 85.0891C81.8176 85.0891 78.8879 88.0188 78.8879 91.6382C78.8879 95.2576 81.8176 98.1873 85.437 98.1873C89.0564 98.1873 91.9861 95.2576 91.9861 91.6382C91.9861 88.0188 89.0564 85.0891 85.437 85.0891ZM75.0855 83.0933C72.937 81.7566 70.5994 80.5603 68.0115 79.541C60.1318 76.4343 54.1077 75.8789 45.8435 78.3814C43.3533 79.3274 40.863 80.2735 38.3728 80.8594C35.9131 81.4453 25.2625 82.0069 25 83.7952L27.6306 86.9385C26.6724 87.7686 25.8911 88.7879 25.6043 90.3809C25.6836 91.3635 25.9522 92.1875 26.416 92.8467C27.2034 93.9759 29.5105 95.1416 30.7556 94.4763C31.1524 94.2627 31.3782 93.8355 31.3721 93.1092C31.3355 78.5217 48.9441 80.1819 47.6196 94.8303H78.3447C72.6563 80.1575 96.9238 80.1026 92.6147 94.3238C94.1284 95.9595 97.699 93.4937 100 88.2508C99.3713 87.6282 98.6816 87.0362 97.9126 86.4868C97.9492 86.4563 97.876 86.6028 98.0042 86.3831C98.1323 86.1634 97.6929 85.2417 96.7896 84.7107C92.0532 81.9336 80.6335 82.0069 75.0855 83.0933Z" fill="black"/>
<path d="M139.518 70.0601C139.436 70.0501 139.364 70.0341 139.294 70.014L139.304 70.016C134.155 69.8918 130.031 65.6834 130.031 60.509C130.031 55.2565 134.281 51 139.526 51C143.88 51 147.552 53.9359 148.671 57.9399L148.687 58.006L148.705 58.0421C148.915 58.7876 149.035 59.6453 149.035 60.5291C149.035 61.3587 148.363 62.0321 147.534 62.0321C146.706 62.0321 146.033 61.3587 146.033 60.5291C146.031 59.9299 145.951 59.3507 145.801 58.7996L145.811 58.8457L145.797 58.8156C145.025 56.02 142.508 54.002 139.518 54.002C135.926 54.002 133.015 56.9178 133.015 60.515C133.015 64.1122 135.926 67.0281 139.518 67.0281C139.556 67.0281 139.586 67.0461 139.624 67.0501L161.499 67.0281C162.328 67.0281 163 67.7014 163 68.5311C163 69.3607 162.328 70.0341 161.501 70.0341L139.52 70.0561L139.518 70.0601ZM116.568 59.2545C122.321 59.2605 127.17 63.1343 128.665 68.4168L128.687 68.505L128.717 68.5651C128.993 69.5471 129.151 70.6754 129.151 71.8397C129.151 71.8457 129.151 71.8497 129.151 71.8557C129.151 72.6854 128.478 73.3587 127.65 73.3587C126.822 73.3587 126.149 72.6854 126.149 71.8557C126.149 71.8517 126.149 71.8477 126.149 71.8437C126.149 70.9619 126.029 70.1082 125.803 69.3006L125.819 69.3667L125.805 69.3387C124.669 65.2265 120.965 62.2585 116.57 62.2585C111.286 62.2585 107.004 66.5491 107.004 71.8397C107.004 77.1303 111.288 81.4208 116.57 81.4208C116.628 81.4289 116.676 81.4389 116.724 81.4529L116.714 81.4509L157.415 81.4108C158.244 81.4108 158.916 82.0842 158.916 82.9138C158.916 83.7435 158.244 84.4168 157.417 84.4168L116.57 84.4589C116.462 84.4489 116.364 84.4269 116.268 84.3968L116.278 84.3988C109.465 84.2445 104 78.6754 104 71.8277C104 64.8838 109.621 59.2545 116.554 59.2545C116.56 59.2545 116.564 59.2545 116.568 59.2545ZM120.072 88.1924C120.138 88.1723 120.216 88.1563 120.298 88.1463H120.304L157.415 88.1824C158.244 88.1824 158.916 88.8557 158.916 89.6854C158.916 90.515 158.244 91.1884 157.415 91.1884L120.42 91.1523C120.38 91.1563 120.346 91.1764 120.304 91.1764C115.946 91.1764 112.414 94.7134 112.414 99.0782C112.414 103.443 115.946 106.98 120.304 106.98C123.93 106.98 126.984 104.531 127.908 101.196L127.922 101.14L127.936 101.11C128.106 100.497 128.206 99.7936 128.206 99.0661C128.206 99.0641 128.206 99.0601 128.206 99.0581C128.206 98.2285 128.879 97.5551 129.707 97.5551C130.535 97.5551 131.208 98.2285 131.208 99.0581C131.208 99.0601 131.208 99.0641 131.208 99.0661C131.208 99.0721 131.208 99.0782 131.208 99.0862C131.208 100.092 131.072 101.068 130.814 101.992L130.832 101.916L130.812 101.944C129.517 106.623 125.303 110 120.3 110C114.287 110 109.411 105.118 109.411 99.0942C109.411 93.1523 114.157 88.3206 120.058 88.1924H120.072Z" fill="black" fill-opacity="0.35"/>
<defs>
<linearGradient id="paint0_linear_375_76" x1="163.5" y1="7.50001" x2="10.5" y2="168.5" gradientUnits="userSpaceOnUse">
<stop stop-color="#D9D9D9"/>
<stop offset="0.988787" stop-color="#565656"/>
</linearGradient>
</defs>
</svg>
