<svg width="383" height="158" viewBox="0 0 383 158" fill="none" xmlns="http://www.w3.org/2000/svg">
<rect width="383.001" height="158" rx="34" fill="#272831"/>
<rect x="0.5" y="0.5" width="382.001" height="157" rx="33.5" stroke="#686868" stroke-opacity="0.43"/>
<rect x="4.0918" y="2.88208" width="374.818" height="152.236" rx="32.5" stroke="black" stroke-width="3"/>
<g clip-path="url(#clip0_397_20)">
<path d="M189 15.2266C190.273 15.2266 191.46 15.8492 192.186 16.8892L192.326 17.1026L203.145 35.1666C203.474 35.736 203.653 36.3796 203.665 37.037C203.677 37.6944 203.522 38.3442 203.215 38.9255C202.908 39.5068 202.458 40.0005 201.907 40.3605C201.357 40.7205 200.725 40.935 200.069 40.9839L199.809 40.9946H178.176C177.519 40.9872 176.875 40.8136 176.304 40.49C175.733 40.1665 175.253 39.7035 174.909 39.1443C174.566 38.5851 174.369 37.9479 174.338 37.2921C174.307 36.6364 174.443 35.9836 174.733 35.3946L174.865 35.1479L185.678 17.0972C186.024 16.5263 186.512 16.0543 187.094 15.7266C187.676 15.3989 188.332 15.2267 189 15.2266ZM189.013 32.9999L188.844 33.0092C188.52 33.0478 188.221 33.2038 188.004 33.4478C187.787 33.6919 187.668 34.0069 187.668 34.3332C187.668 34.6596 187.787 34.9746 188.004 35.2186C188.221 35.4626 188.52 35.6187 188.844 35.6572L189 35.6666L189.169 35.6572C189.493 35.6187 189.792 35.4626 190.008 35.2186C190.225 34.9746 190.345 34.6596 190.345 34.3332C190.345 34.0069 190.225 33.6919 190.008 33.4478C189.792 33.2038 189.493 33.0478 189.169 33.0092L189.013 32.9999ZM189 23.6666C188.673 23.6666 188.358 23.7865 188.114 24.0035C187.87 24.2205 187.714 24.5196 187.676 24.8439L187.666 24.9999V30.3332L187.676 30.4892C187.714 30.8133 187.87 31.112 188.114 31.3287C188.358 31.5454 188.673 31.6651 189 31.6651C189.326 31.6651 189.641 31.5454 189.885 31.3287C190.129 31.112 190.285 30.8133 190.324 30.4892L190.333 30.3332V24.9999L190.324 24.8439C190.285 24.5196 190.129 24.2205 189.885 24.0035C189.641 23.7865 189.326 23.6666 189 23.6666Z" fill="#D9D9D9"/>
</g>
<path d="M90.6465 53.47C91.7565 53.47 92.7265 53.69 93.5565 54.13C94.3865 54.57 95.0265 55.19 95.4765 55.99C95.9365 56.78 96.1665 57.695 96.1665 58.735C96.1665 59.765 95.9365 60.68 95.4765 61.48C95.0265 62.28 94.3815 62.9 93.5415 63.34C92.7115 63.78 91.7465 64 90.6465 64H86.7015V53.47H90.6465ZM90.4815 61.78C91.4515 61.78 92.2065 61.515 92.7465 60.985C93.2865 60.455 93.5565 59.705 93.5565 58.735C93.5565 57.765 93.2865 57.01 92.7465 56.47C92.2065 55.93 91.4515 55.66 90.4815 55.66H89.2665V61.78H90.4815ZM97.0899 59.8C97.0899 58.94 97.2499 58.185 97.5699 57.535C97.8999 56.885 98.3449 56.385 98.9049 56.035C99.4649 55.685 100.09 55.51 100.78 55.51C101.37 55.51 101.885 55.63 102.325 55.87C102.775 56.11 103.12 56.425 103.36 56.815V55.63H105.925V64H103.36V62.815C103.11 63.205 102.76 63.52 102.31 63.76C101.87 64 101.355 64.12 100.765 64.12C100.085 64.12 99.4649 63.945 98.9049 63.595C98.3449 63.235 97.8999 62.73 97.5699 62.08C97.2499 61.42 97.0899 60.66 97.0899 59.8ZM103.36 59.815C103.36 59.175 103.18 58.67 102.82 58.3C102.47 57.93 102.04 57.745 101.53 57.745C101.02 57.745 100.585 57.93 100.225 58.3C99.8749 58.66 99.6999 59.16 99.6999 59.8C99.6999 60.44 99.8749 60.95 100.225 61.33C100.585 61.7 101.02 61.885 101.53 61.885C102.04 61.885 102.47 61.7 102.82 61.33C103.18 60.96 103.36 60.455 103.36 59.815ZM110.346 57.025C110.646 56.565 111.021 56.205 111.471 55.945C111.921 55.675 112.421 55.54 112.971 55.54V58.255H112.266C111.626 58.255 111.146 58.395 110.826 58.675C110.506 58.945 110.346 59.425 110.346 60.115V64H107.781V55.63H110.346V57.025ZM119.312 64L116.762 60.49V64H114.197V52.9H116.762V59.035L119.297 55.63H122.462L118.982 59.83L122.492 64H119.312ZM137.328 55.54C138.368 55.54 139.193 55.855 139.803 56.485C140.423 57.115 140.733 57.99 140.733 59.11V64H138.183V59.455C138.183 58.915 138.038 58.5 137.748 58.21C137.468 57.91 137.078 57.76 136.578 57.76C136.078 57.76 135.683 57.91 135.393 58.21C135.113 58.5 134.973 58.915 134.973 59.455V64H132.423V59.455C132.423 58.915 132.278 58.5 131.988 58.21C131.708 57.91 131.318 57.76 130.818 57.76C130.318 57.76 129.923 57.91 129.633 58.21C129.353 58.5 129.213 58.915 129.213 59.455V64H126.648V55.63H129.213V56.68C129.473 56.33 129.813 56.055 130.233 55.855C130.653 55.645 131.128 55.54 131.658 55.54C132.288 55.54 132.848 55.675 133.338 55.945C133.838 56.215 134.228 56.6 134.508 57.1C134.798 56.64 135.193 56.265 135.693 55.975C136.193 55.685 136.738 55.54 137.328 55.54ZM146.337 64.12C145.517 64.12 144.777 63.945 144.117 63.595C143.467 63.245 142.952 62.745 142.572 62.095C142.202 61.445 142.017 60.685 142.017 59.815C142.017 58.955 142.207 58.2 142.587 57.55C142.967 56.89 143.487 56.385 144.147 56.035C144.807 55.685 145.547 55.51 146.367 55.51C147.187 55.51 147.927 55.685 148.587 56.035C149.247 56.385 149.767 56.89 150.147 57.55C150.527 58.2 150.717 58.955 150.717 59.815C150.717 60.675 150.522 61.435 150.132 62.095C149.752 62.745 149.227 63.245 148.557 63.595C147.897 63.945 147.157 64.12 146.337 64.12ZM146.337 61.9C146.827 61.9 147.242 61.72 147.582 61.36C147.932 61 148.107 60.485 148.107 59.815C148.107 59.145 147.937 58.63 147.597 58.27C147.267 57.91 146.857 57.73 146.367 57.73C145.867 57.73 145.452 57.91 145.122 58.27C144.792 58.62 144.627 59.135 144.627 59.815C144.627 60.485 144.787 61 145.107 61.36C145.437 61.72 145.847 61.9 146.337 61.9ZM151.567 59.8C151.567 58.94 151.727 58.185 152.047 57.535C152.377 56.885 152.822 56.385 153.382 56.035C153.942 55.685 154.567 55.51 155.257 55.51C155.807 55.51 156.307 55.625 156.757 55.855C157.217 56.085 157.577 56.395 157.837 56.785V52.9H160.402V64H157.837V62.8C157.597 63.2 157.252 63.52 156.802 63.76C156.362 64 155.847 64.12 155.257 64.12C154.567 64.12 153.942 63.945 153.382 63.595C152.822 63.235 152.377 62.73 152.047 62.08C151.727 61.42 151.567 60.66 151.567 59.8ZM157.837 59.815C157.837 59.175 157.657 58.67 157.297 58.3C156.947 57.93 156.517 57.745 156.007 57.745C155.497 57.745 155.062 57.93 154.702 58.3C154.352 58.66 154.177 59.16 154.177 59.8C154.177 60.44 154.352 60.95 154.702 61.33C155.062 61.7 155.497 61.885 156.007 61.885C156.517 61.885 156.947 61.7 157.297 61.33C157.657 60.96 157.837 60.455 157.837 59.815ZM170.148 59.68C170.148 59.92 170.133 60.17 170.103 60.43H164.298C164.338 60.95 164.503 61.35 164.793 61.63C165.093 61.9 165.458 62.035 165.888 62.035C166.528 62.035 166.973 61.765 167.223 61.225H169.953C169.813 61.775 169.558 62.27 169.188 62.71C168.828 63.15 168.373 63.495 167.823 63.745C167.273 63.995 166.658 64.12 165.978 64.12C165.158 64.12 164.428 63.945 163.788 63.595C163.148 63.245 162.648 62.745 162.288 62.095C161.928 61.445 161.748 60.685 161.748 59.815C161.748 58.945 161.923 58.185 162.273 57.535C162.633 56.885 163.133 56.385 163.773 56.035C164.413 55.685 165.148 55.51 165.978 55.51C166.788 55.51 167.508 55.68 168.138 56.02C168.768 56.36 169.258 56.845 169.608 57.475C169.968 58.105 170.148 58.84 170.148 59.68ZM167.523 59.005C167.523 58.565 167.373 58.215 167.073 57.955C166.773 57.695 166.398 57.565 165.948 57.565C165.518 57.565 165.153 57.69 164.853 57.94C164.563 58.19 164.383 58.545 164.313 59.005H167.523ZM175.97 54.76C175.52 54.76 175.15 54.63 174.86 54.37C174.58 54.1 174.44 53.77 174.44 53.38C174.44 52.98 174.58 52.65 174.86 52.39C175.15 52.12 175.52 51.985 175.97 51.985C176.41 51.985 176.77 52.12 177.05 52.39C177.34 52.65 177.485 52.98 177.485 53.38C177.485 53.77 177.34 54.1 177.05 54.37C176.77 54.63 176.41 54.76 175.97 54.76ZM177.245 55.63V64H174.68V55.63H177.245ZM184.204 55.54C185.184 55.54 185.964 55.86 186.544 56.5C187.134 57.13 187.429 58 187.429 59.11V64H184.879V59.455C184.879 58.895 184.734 58.46 184.444 58.15C184.154 57.84 183.764 57.685 183.274 57.685C182.784 57.685 182.394 57.84 182.104 58.15C181.814 58.46 181.669 58.895 181.669 59.455V64H179.104V55.63H181.669V56.74C181.929 56.37 182.279 56.08 182.719 55.87C183.159 55.65 183.654 55.54 184.204 55.54ZM191.88 59.8C191.88 58.94 192.04 58.185 192.36 57.535C192.69 56.885 193.135 56.385 193.695 56.035C194.255 55.685 194.88 55.51 195.57 55.51C196.12 55.51 196.62 55.625 197.07 55.855C197.53 56.085 197.89 56.395 198.15 56.785V52.9H200.715V64H198.15V62.8C197.91 63.2 197.565 63.52 197.115 63.76C196.675 64 196.16 64.12 195.57 64.12C194.88 64.12 194.255 63.945 193.695 63.595C193.135 63.235 192.69 62.73 192.36 62.08C192.04 61.42 191.88 60.66 191.88 59.8ZM198.15 59.815C198.15 59.175 197.97 58.67 197.61 58.3C197.26 57.93 196.83 57.745 196.32 57.745C195.81 57.745 195.375 57.93 195.015 58.3C194.665 58.66 194.49 59.16 194.49 59.8C194.49 60.44 194.665 60.95 195.015 61.33C195.375 61.7 195.81 61.885 196.32 61.885C196.83 61.885 197.26 61.7 197.61 61.33C197.97 60.96 198.15 60.455 198.15 59.815ZM210.461 59.68C210.461 59.92 210.446 60.17 210.416 60.43H204.611C204.651 60.95 204.816 61.35 205.106 61.63C205.406 61.9 205.771 62.035 206.201 62.035C206.841 62.035 207.286 61.765 207.536 61.225H210.266C210.126 61.775 209.871 62.27 209.501 62.71C209.141 63.15 208.686 63.495 208.136 63.745C207.586 63.995 206.971 64.12 206.291 64.12C205.471 64.12 204.741 63.945 204.101 63.595C203.461 63.245 202.961 62.745 202.601 62.095C202.241 61.445 202.061 60.685 202.061 59.815C202.061 58.945 202.236 58.185 202.586 57.535C202.946 56.885 203.446 56.385 204.086 56.035C204.726 55.685 205.461 55.51 206.291 55.51C207.101 55.51 207.821 55.68 208.451 56.02C209.081 56.36 209.571 56.845 209.921 57.475C210.281 58.105 210.461 58.84 210.461 59.68ZM207.836 59.005C207.836 58.565 207.686 58.215 207.386 57.955C207.086 57.695 206.711 57.565 206.261 57.565C205.831 57.565 205.466 57.69 205.166 57.94C204.876 58.19 204.696 58.545 204.626 59.005H207.836ZM215.579 61.6L217.394 55.63H220.124L217.154 64H213.989L211.019 55.63H213.764L215.579 61.6ZM229.093 59.68C229.093 59.92 229.078 60.17 229.048 60.43H223.243C223.283 60.95 223.448 61.35 223.738 61.63C224.038 61.9 224.403 62.035 224.833 62.035C225.473 62.035 225.918 61.765 226.168 61.225H228.898C228.758 61.775 228.503 62.27 228.133 62.71C227.773 63.15 227.318 63.495 226.768 63.745C226.218 63.995 225.603 64.12 224.923 64.12C224.103 64.12 223.373 63.945 222.733 63.595C222.093 63.245 221.593 62.745 221.233 62.095C220.873 61.445 220.693 60.685 220.693 59.815C220.693 58.945 220.868 58.185 221.218 57.535C221.578 56.885 222.078 56.385 222.718 56.035C223.358 55.685 224.093 55.51 224.923 55.51C225.733 55.51 226.453 55.68 227.083 56.02C227.713 56.36 228.203 56.845 228.553 57.475C228.913 58.105 229.093 58.84 229.093 59.68ZM226.468 59.005C226.468 58.565 226.318 58.215 226.018 57.955C225.718 57.695 225.343 57.565 224.893 57.565C224.463 57.565 224.098 57.69 223.798 57.94C223.508 58.19 223.328 58.545 223.258 59.005H226.468ZM233.012 52.9V64H230.447V52.9H233.012ZM238.68 64.12C237.86 64.12 237.12 63.945 236.46 63.595C235.81 63.245 235.295 62.745 234.915 62.095C234.545 61.445 234.36 60.685 234.36 59.815C234.36 58.955 234.55 58.2 234.93 57.55C235.31 56.89 235.83 56.385 236.49 56.035C237.15 55.685 237.89 55.51 238.71 55.51C239.53 55.51 240.27 55.685 240.93 56.035C241.59 56.385 242.11 56.89 242.49 57.55C242.87 58.2 243.06 58.955 243.06 59.815C243.06 60.675 242.865 61.435 242.475 62.095C242.095 62.745 241.57 63.245 240.9 63.595C240.24 63.945 239.5 64.12 238.68 64.12ZM238.68 61.9C239.17 61.9 239.585 61.72 239.925 61.36C240.275 61 240.45 60.485 240.45 59.815C240.45 59.145 240.28 58.63 239.94 58.27C239.61 57.91 239.2 57.73 238.71 57.73C238.21 57.73 237.795 57.91 237.465 58.27C237.135 58.62 236.97 59.135 236.97 59.815C236.97 60.485 237.13 61 237.45 61.36C237.78 61.72 238.19 61.9 238.68 61.9ZM246.986 56.815C247.236 56.425 247.581 56.11 248.021 55.87C248.461 55.63 248.976 55.51 249.566 55.51C250.256 55.51 250.881 55.685 251.441 56.035C252.001 56.385 252.441 56.885 252.761 57.535C253.091 58.185 253.256 58.94 253.256 59.8C253.256 60.66 253.091 61.42 252.761 62.08C252.441 62.73 252.001 63.235 251.441 63.595C250.881 63.945 250.256 64.12 249.566 64.12C248.986 64.12 248.471 64 248.021 63.76C247.581 63.52 247.236 63.21 246.986 62.83V67.99H244.421V55.63H246.986V56.815ZM250.646 59.8C250.646 59.16 250.466 58.66 250.106 58.3C249.756 57.93 249.321 57.745 248.801 57.745C248.291 57.745 247.856 57.93 247.496 58.3C247.146 58.67 246.971 59.175 246.971 59.815C246.971 60.455 247.146 60.96 247.496 61.33C247.856 61.7 248.291 61.885 248.801 61.885C249.311 61.885 249.746 61.7 250.106 61.33C250.466 60.95 250.646 60.44 250.646 59.8ZM265.282 55.54C266.322 55.54 267.147 55.855 267.757 56.485C268.377 57.115 268.687 57.99 268.687 59.11V64H266.137V59.455C266.137 58.915 265.992 58.5 265.702 58.21C265.422 57.91 265.032 57.76 264.532 57.76C264.032 57.76 263.637 57.91 263.347 58.21C263.067 58.5 262.927 58.915 262.927 59.455V64H260.377V59.455C260.377 58.915 260.232 58.5 259.942 58.21C259.662 57.91 259.272 57.76 258.772 57.76C258.272 57.76 257.877 57.91 257.587 58.21C257.307 58.5 257.167 58.915 257.167 59.455V64H254.602V55.63H257.167V56.68C257.427 56.33 257.767 56.055 258.187 55.855C258.607 55.645 259.082 55.54 259.612 55.54C260.242 55.54 260.802 55.675 261.292 55.945C261.792 56.215 262.182 56.6 262.462 57.1C262.752 56.64 263.147 56.265 263.647 55.975C264.147 55.685 264.692 55.54 265.282 55.54ZM278.371 59.68C278.371 59.92 278.356 60.17 278.326 60.43H272.521C272.561 60.95 272.726 61.35 273.016 61.63C273.316 61.9 273.681 62.035 274.111 62.035C274.751 62.035 275.196 61.765 275.446 61.225H278.176C278.036 61.775 277.781 62.27 277.411 62.71C277.051 63.15 276.596 63.495 276.046 63.745C275.496 63.995 274.881 64.12 274.201 64.12C273.381 64.12 272.651 63.945 272.011 63.595C271.371 63.245 270.871 62.745 270.511 62.095C270.151 61.445 269.971 60.685 269.971 59.815C269.971 58.945 270.146 58.185 270.496 57.535C270.856 56.885 271.356 56.385 271.996 56.035C272.636 55.685 273.371 55.51 274.201 55.51C275.011 55.51 275.731 55.68 276.361 56.02C276.991 56.36 277.481 56.845 277.831 57.475C278.191 58.105 278.371 58.84 278.371 59.68ZM275.746 59.005C275.746 58.565 275.596 58.215 275.296 57.955C274.996 57.695 274.621 57.565 274.171 57.565C273.741 57.565 273.376 57.69 273.076 57.94C272.786 58.19 272.606 58.545 272.536 59.005H275.746ZM284.824 55.54C285.804 55.54 286.584 55.86 287.164 56.5C287.754 57.13 288.049 58 288.049 59.11V64H285.499V59.455C285.499 58.895 285.354 58.46 285.064 58.15C284.774 57.84 284.384 57.685 283.894 57.685C283.404 57.685 283.014 57.84 282.724 58.15C282.434 58.46 282.289 58.895 282.289 59.455V64H279.724V55.63H282.289V56.74C282.549 56.37 282.899 56.08 283.339 55.87C283.779 55.65 284.274 55.54 284.824 55.54ZM294.496 61.825V64H293.191C292.261 64 291.536 63.775 291.016 63.325C290.496 62.865 290.236 62.12 290.236 61.09V57.76H289.216V55.63H290.236V53.59H292.801V55.63H294.481V57.76H292.801V61.12C292.801 61.37 292.861 61.55 292.981 61.66C293.101 61.77 293.301 61.825 293.581 61.825H294.496ZM297.125 64.12C296.675 64.12 296.305 63.99 296.015 63.73C295.735 63.46 295.595 63.13 295.595 62.74C295.595 62.34 295.735 62.005 296.015 61.735C296.305 61.465 296.675 61.33 297.125 61.33C297.565 61.33 297.925 61.465 298.205 61.735C298.495 62.005 298.64 62.34 298.64 62.74C298.64 63.13 298.495 63.46 298.205 63.73C297.925 63.99 297.565 64.12 297.125 64.12ZM34.7485 79.86C34.7485 80.47 34.6085 81.03 34.3285 81.54C34.0485 82.04 33.6185 82.445 33.0385 82.755C32.4585 83.065 31.7385 83.22 30.8785 83.22H29.2885V87H26.7235V76.47H30.8785C31.7185 76.47 32.4285 76.615 33.0085 76.905C33.5885 77.195 34.0235 77.595 34.3135 78.105C34.6035 78.615 34.7485 79.2 34.7485 79.86ZM30.6835 81.18C31.1735 81.18 31.5385 81.065 31.7785 80.835C32.0185 80.605 32.1385 80.28 32.1385 79.86C32.1385 79.44 32.0185 79.115 31.7785 78.885C31.5385 78.655 31.1735 78.54 30.6835 78.54H29.2885V81.18H30.6835ZM38.6488 75.9V87H36.0838V75.9H38.6488ZM48.3976 82.68C48.3976 82.92 48.3826 83.17 48.3526 83.43H42.5476C42.5876 83.95 42.7526 84.35 43.0426 84.63C43.3426 84.9 43.7076 85.035 44.1376 85.035C44.7776 85.035 45.2226 84.765 45.4726 84.225H48.2026C48.0626 84.775 47.8076 85.27 47.4376 85.71C47.0776 86.15 46.6226 86.495 46.0726 86.745C45.5226 86.995 44.9076 87.12 44.2276 87.12C43.4076 87.12 42.6776 86.945 42.0376 86.595C41.3976 86.245 40.8976 85.745 40.5376 85.095C40.1776 84.445 39.9976 83.685 39.9976 82.815C39.9976 81.945 40.1726 81.185 40.5226 80.535C40.8826 79.885 41.3826 79.385 42.0226 79.035C42.6626 78.685 43.3976 78.51 44.2276 78.51C45.0376 78.51 45.7576 78.68 46.3876 79.02C47.0176 79.36 47.5076 79.845 47.8576 80.475C48.2176 81.105 48.3976 81.84 48.3976 82.68ZM45.7726 82.005C45.7726 81.565 45.6226 81.215 45.3226 80.955C45.0226 80.695 44.6476 80.565 44.1976 80.565C43.7676 80.565 43.4026 80.69 43.1026 80.94C42.8126 81.19 42.6326 81.545 42.5626 82.005H45.7726ZM49.2408 82.8C49.2408 81.94 49.4008 81.185 49.7208 80.535C50.0508 79.885 50.4958 79.385 51.0558 79.035C51.6158 78.685 52.2408 78.51 52.9308 78.51C53.5208 78.51 54.0358 78.63 54.4758 78.87C54.9258 79.11 55.2708 79.425 55.5108 79.815V78.63H58.0758V87H55.5108V85.815C55.2608 86.205 54.9108 86.52 54.4608 86.76C54.0208 87 53.5058 87.12 52.9158 87.12C52.2358 87.12 51.6158 86.945 51.0558 86.595C50.4958 86.235 50.0508 85.73 49.7208 85.08C49.4008 84.42 49.2408 83.66 49.2408 82.8ZM55.5108 82.815C55.5108 82.175 55.3308 81.67 54.9708 81.3C54.6208 80.93 54.1908 80.745 53.6808 80.745C53.1708 80.745 52.7358 80.93 52.3758 81.3C52.0258 81.66 51.8508 82.16 51.8508 82.8C51.8508 83.44 52.0258 83.95 52.3758 84.33C52.7358 84.7 53.1708 84.885 53.6808 84.885C54.1908 84.885 54.6208 84.7 54.9708 84.33C55.3308 83.96 55.5108 83.455 55.5108 82.815ZM63.3365 87.12C62.6065 87.12 61.9565 86.995 61.3865 86.745C60.8165 86.495 60.3665 86.155 60.0365 85.725C59.7065 85.285 59.5215 84.795 59.4815 84.255H62.0165C62.0465 84.545 62.1815 84.78 62.4215 84.96C62.6615 85.14 62.9565 85.23 63.3065 85.23C63.6265 85.23 63.8715 85.17 64.0415 85.05C64.2215 84.92 64.3115 84.755 64.3115 84.555C64.3115 84.315 64.1865 84.14 63.9365 84.03C63.6865 83.91 63.2815 83.78 62.7215 83.64C62.1215 83.5 61.6215 83.355 61.2215 83.205C60.8215 83.045 60.4765 82.8 60.1865 82.47C59.8965 82.13 59.7515 81.675 59.7515 81.105C59.7515 80.625 59.8815 80.19 60.1415 79.8C60.4115 79.4 60.8015 79.085 61.3115 78.855C61.8315 78.625 62.4465 78.51 63.1565 78.51C64.2065 78.51 65.0315 78.77 65.6315 79.29C66.2415 79.81 66.5915 80.5 66.6815 81.36H64.3115C64.2715 81.07 64.1415 80.84 63.9215 80.67C63.7115 80.5 63.4315 80.415 63.0815 80.415C62.7815 80.415 62.5515 80.475 62.3915 80.595C62.2315 80.705 62.1515 80.86 62.1515 81.06C62.1515 81.3 62.2765 81.48 62.5265 81.6C62.7865 81.72 63.1865 81.84 63.7265 81.96C64.3465 82.12 64.8515 82.28 65.2415 82.44C65.6315 82.59 65.9715 82.84 66.2615 83.19C66.5615 83.53 66.7165 83.99 66.7265 84.57C66.7265 85.06 66.5865 85.5 66.3065 85.89C66.0365 86.27 65.6415 86.57 65.1215 86.79C64.6115 87.01 64.0165 87.12 63.3365 87.12ZM76.1857 82.68C76.1857 82.92 76.1707 83.17 76.1407 83.43H70.3357C70.3757 83.95 70.5407 84.35 70.8307 84.63C71.1307 84.9 71.4957 85.035 71.9257 85.035C72.5657 85.035 73.0107 84.765 73.2607 84.225H75.9907C75.8507 84.775 75.5957 85.27 75.2257 85.71C74.8657 86.15 74.4107 86.495 73.8607 86.745C73.3107 86.995 72.6957 87.12 72.0157 87.12C71.1957 87.12 70.4657 86.945 69.8257 86.595C69.1857 86.245 68.6857 85.745 68.3257 85.095C67.9657 84.445 67.7857 83.685 67.7857 82.815C67.7857 81.945 67.9607 81.185 68.3107 80.535C68.6707 79.885 69.1707 79.385 69.8107 79.035C70.4507 78.685 71.1857 78.51 72.0157 78.51C72.8257 78.51 73.5457 78.68 74.1757 79.02C74.8057 79.36 75.2957 79.845 75.6457 80.475C76.0057 81.105 76.1857 81.84 76.1857 82.68ZM73.5607 82.005C73.5607 81.565 73.4107 81.215 73.1107 80.955C72.8107 80.695 72.4357 80.565 71.9857 80.565C71.5557 80.565 71.1907 80.69 70.8907 80.94C70.6007 81.19 70.4207 81.545 70.3507 82.005H73.5607ZM88.9826 78.63V87H86.4176V85.86C86.1576 86.23 85.8026 86.53 85.3526 86.76C84.9126 86.98 84.4226 87.09 83.8826 87.09C83.2426 87.09 82.6776 86.95 82.1876 86.67C81.6976 86.38 81.3176 85.965 81.0476 85.425C80.7776 84.885 80.6426 84.25 80.6426 83.52V78.63H83.1926V83.175C83.1926 83.735 83.3376 84.17 83.6276 84.48C83.9176 84.79 84.3076 84.945 84.7976 84.945C85.2976 84.945 85.6926 84.79 85.9826 84.48C86.2726 84.17 86.4176 83.735 86.4176 83.175V78.63H88.9826ZM94.23 87.12C93.5 87.12 92.85 86.995 92.28 86.745C91.71 86.495 91.26 86.155 90.93 85.725C90.6 85.285 90.415 84.795 90.375 84.255H92.91C92.94 84.545 93.075 84.78 93.315 84.96C93.555 85.14 93.85 85.23 94.2 85.23C94.52 85.23 94.765 85.17 94.935 85.05C95.115 84.92 95.205 84.755 95.205 84.555C95.205 84.315 95.08 84.14 94.83 84.03C94.58 83.91 94.175 83.78 93.615 83.64C93.015 83.5 92.515 83.355 92.115 83.205C91.715 83.045 91.37 82.8 91.08 82.47C90.79 82.13 90.645 81.675 90.645 81.105C90.645 80.625 90.775 80.19 91.035 79.8C91.305 79.4 91.695 79.085 92.205 78.855C92.725 78.625 93.34 78.51 94.05 78.51C95.1 78.51 95.925 78.77 96.525 79.29C97.135 79.81 97.485 80.5 97.575 81.36H95.205C95.165 81.07 95.035 80.84 94.815 80.67C94.605 80.5 94.325 80.415 93.975 80.415C93.675 80.415 93.445 80.475 93.285 80.595C93.125 80.705 93.045 80.86 93.045 81.06C93.045 81.3 93.17 81.48 93.42 81.6C93.68 81.72 94.08 81.84 94.62 81.96C95.24 82.12 95.745 82.28 96.135 82.44C96.525 82.59 96.865 82.84 97.155 83.19C97.455 83.53 97.61 83.99 97.62 84.57C97.62 85.06 97.48 85.5 97.2 85.89C96.93 86.27 96.535 86.57 96.015 86.79C95.505 87.01 94.91 87.12 94.23 87.12ZM107.079 82.68C107.079 82.92 107.064 83.17 107.034 83.43H101.229C101.269 83.95 101.434 84.35 101.724 84.63C102.024 84.9 102.389 85.035 102.819 85.035C103.459 85.035 103.904 84.765 104.154 84.225H106.884C106.744 84.775 106.489 85.27 106.119 85.71C105.759 86.15 105.304 86.495 104.754 86.745C104.204 86.995 103.589 87.12 102.909 87.12C102.089 87.12 101.359 86.945 100.719 86.595C100.079 86.245 99.5793 85.745 99.2193 85.095C98.8593 84.445 98.6793 83.685 98.6793 82.815C98.6793 81.945 98.8543 81.185 99.2043 80.535C99.5643 79.885 100.064 79.385 100.704 79.035C101.344 78.685 102.079 78.51 102.909 78.51C103.719 78.51 104.439 78.68 105.069 79.02C105.699 79.36 106.189 79.845 106.539 80.475C106.899 81.105 107.079 81.84 107.079 82.68ZM104.454 82.005C104.454 81.565 104.304 81.215 104.004 80.955C103.704 80.695 103.329 80.565 102.879 80.565C102.449 80.565 102.084 80.69 101.784 80.94C101.494 81.19 101.314 81.545 101.244 82.005H104.454ZM116.276 84.825V87H114.971C114.041 87 113.316 86.775 112.796 86.325C112.276 85.865 112.016 85.12 112.016 84.09V80.76H110.996V78.63H112.016V76.59H114.581V78.63H116.261V80.76H114.581V84.12C114.581 84.37 114.641 84.55 114.761 84.66C114.881 84.77 115.081 84.825 115.361 84.825H116.276ZM122.85 78.54C123.81 78.54 124.58 78.86 125.16 79.5C125.74 80.13 126.03 81 126.03 82.11V87H123.48V82.455C123.48 81.895 123.335 81.46 123.045 81.15C122.755 80.84 122.365 80.685 121.875 80.685C121.385 80.685 120.995 80.84 120.705 81.15C120.415 81.46 120.27 81.895 120.27 82.455V87H117.705V75.9H120.27V79.755C120.53 79.385 120.885 79.09 121.335 78.87C121.785 78.65 122.29 78.54 122.85 78.54ZM135.702 82.68C135.702 82.92 135.687 83.17 135.657 83.43H129.852C129.892 83.95 130.057 84.35 130.347 84.63C130.647 84.9 131.012 85.035 131.442 85.035C132.082 85.035 132.527 84.765 132.777 84.225H135.507C135.367 84.775 135.112 85.27 134.742 85.71C134.382 86.15 133.927 86.495 133.377 86.745C132.827 86.995 132.212 87.12 131.532 87.12C130.712 87.12 129.982 86.945 129.342 86.595C128.702 86.245 128.202 85.745 127.842 85.095C127.482 84.445 127.302 83.685 127.302 82.815C127.302 81.945 127.477 81.185 127.827 80.535C128.187 79.885 128.687 79.385 129.327 79.035C129.967 78.685 130.702 78.51 131.532 78.51C132.342 78.51 133.062 78.68 133.692 79.02C134.322 79.36 134.812 79.845 135.162 80.475C135.522 81.105 135.702 81.84 135.702 82.68ZM133.077 82.005C133.077 81.565 132.927 81.215 132.627 80.955C132.327 80.695 131.952 80.565 131.502 80.565C131.072 80.565 130.707 80.69 130.407 80.94C130.117 81.19 129.937 81.545 129.867 82.005H133.077ZM144.899 84.825V87H143.594C142.664 87 141.939 86.775 141.419 86.325C140.899 85.865 140.639 85.12 140.639 84.09V80.76H139.619V78.63H140.639V76.59H143.204V78.63H144.884V80.76H143.204V84.12C143.204 84.37 143.264 84.55 143.384 84.66C143.504 84.77 143.704 84.825 143.984 84.825H144.899ZM150.138 87.12C149.318 87.12 148.578 86.945 147.918 86.595C147.268 86.245 146.753 85.745 146.373 85.095C146.003 84.445 145.818 83.685 145.818 82.815C145.818 81.955 146.008 81.2 146.388 80.55C146.768 79.89 147.288 79.385 147.948 79.035C148.608 78.685 149.348 78.51 150.168 78.51C150.988 78.51 151.728 78.685 152.388 79.035C153.048 79.385 153.568 79.89 153.948 80.55C154.328 81.2 154.518 81.955 154.518 82.815C154.518 83.675 154.323 84.435 153.933 85.095C153.553 85.745 153.028 86.245 152.358 86.595C151.698 86.945 150.958 87.12 150.138 87.12ZM150.138 84.9C150.628 84.9 151.043 84.72 151.383 84.36C151.733 84 151.908 83.485 151.908 82.815C151.908 82.145 151.738 81.63 151.398 81.27C151.068 80.91 150.658 80.73 150.168 80.73C149.668 80.73 149.253 80.91 148.923 81.27C148.593 81.62 148.428 82.135 148.428 82.815C148.428 83.485 148.588 84 148.908 84.36C149.238 84.72 149.648 84.9 150.138 84.9ZM158.444 80.025C158.744 79.565 159.119 79.205 159.569 78.945C160.019 78.675 160.519 78.54 161.069 78.54V81.255H160.364C159.724 81.255 159.244 81.395 158.924 81.675C158.604 81.945 158.444 82.425 158.444 83.115V87H155.879V78.63H158.444V80.025ZM161.785 82.815C161.785 81.945 161.96 81.185 162.31 80.535C162.67 79.885 163.165 79.385 163.795 79.035C164.435 78.685 165.165 78.51 165.985 78.51C167.035 78.51 167.91 78.785 168.61 79.335C169.32 79.885 169.785 80.66 170.005 81.66H167.275C167.045 81.02 166.6 80.7 165.94 80.7C165.47 80.7 165.095 80.885 164.815 81.255C164.535 81.615 164.395 82.135 164.395 82.815C164.395 83.495 164.535 84.02 164.815 84.39C165.095 84.75 165.47 84.93 165.94 84.93C166.6 84.93 167.045 84.61 167.275 83.97H170.005C169.785 84.95 169.32 85.72 168.61 86.28C167.9 86.84 167.025 87.12 165.985 87.12C165.165 87.12 164.435 86.945 163.795 86.595C163.165 86.245 162.67 85.745 162.31 85.095C161.96 84.445 161.785 83.685 161.785 82.815ZM176.522 78.54C177.482 78.54 178.252 78.86 178.832 79.5C179.412 80.13 179.702 81 179.702 82.11V87H177.152V82.455C177.152 81.895 177.007 81.46 176.717 81.15C176.427 80.84 176.037 80.685 175.547 80.685C175.057 80.685 174.667 80.84 174.377 81.15C174.087 81.46 173.942 81.895 173.942 82.455V87H171.377V75.9H173.942V79.755C174.202 79.385 174.557 79.09 175.007 78.87C175.457 78.65 175.962 78.54 176.522 78.54ZM188.473 87.12C187.653 87.12 186.913 86.945 186.253 86.595C185.603 86.245 185.088 85.745 184.708 85.095C184.338 84.445 184.153 83.685 184.153 82.815C184.153 81.955 184.343 81.2 184.723 80.55C185.103 79.89 185.623 79.385 186.283 79.035C186.943 78.685 187.683 78.51 188.503 78.51C189.323 78.51 190.063 78.685 190.723 79.035C191.383 79.385 191.903 79.89 192.283 80.55C192.663 81.2 192.853 81.955 192.853 82.815C192.853 83.675 192.658 84.435 192.268 85.095C191.888 85.745 191.363 86.245 190.693 86.595C190.033 86.945 189.293 87.12 188.473 87.12ZM188.473 84.9C188.963 84.9 189.378 84.72 189.718 84.36C190.068 84 190.243 83.485 190.243 82.815C190.243 82.145 190.073 81.63 189.733 81.27C189.403 80.91 188.993 80.73 188.503 80.73C188.003 80.73 187.588 80.91 187.258 81.27C186.928 81.62 186.763 82.135 186.763 82.815C186.763 83.485 186.923 84 187.243 84.36C187.573 84.72 187.983 84.9 188.473 84.9ZM196.779 80.025C197.079 79.565 197.454 79.205 197.904 78.945C198.354 78.675 198.854 78.54 199.404 78.54V81.255H198.699C198.059 81.255 197.579 81.395 197.259 81.675C196.939 81.945 196.779 82.425 196.779 83.115V87H194.214V78.63H196.779V80.025ZM207.213 87.12C206.483 87.12 205.833 86.995 205.263 86.745C204.693 86.495 204.243 86.155 203.913 85.725C203.583 85.285 203.398 84.795 203.358 84.255H205.893C205.923 84.545 206.058 84.78 206.298 84.96C206.538 85.14 206.833 85.23 207.183 85.23C207.503 85.23 207.748 85.17 207.918 85.05C208.098 84.92 208.188 84.755 208.188 84.555C208.188 84.315 208.063 84.14 207.813 84.03C207.563 83.91 207.158 83.78 206.598 83.64C205.998 83.5 205.498 83.355 205.098 83.205C204.698 83.045 204.353 82.8 204.063 82.47C203.773 82.13 203.628 81.675 203.628 81.105C203.628 80.625 203.758 80.19 204.018 79.8C204.288 79.4 204.678 79.085 205.188 78.855C205.708 78.625 206.323 78.51 207.033 78.51C208.083 78.51 208.908 78.77 209.508 79.29C210.118 79.81 210.468 80.5 210.558 81.36H208.188C208.148 81.07 208.018 80.84 207.798 80.67C207.588 80.5 207.308 80.415 206.958 80.415C206.658 80.415 206.428 80.475 206.268 80.595C206.108 80.705 206.028 80.86 206.028 81.06C206.028 81.3 206.153 81.48 206.403 81.6C206.663 81.72 207.063 81.84 207.603 81.96C208.223 82.12 208.728 82.28 209.118 82.44C209.508 82.59 209.848 82.84 210.138 83.19C210.438 83.53 210.593 83.99 210.603 84.57C210.603 85.06 210.463 85.5 210.183 85.89C209.913 86.27 209.518 86.57 208.998 86.79C208.488 87.01 207.893 87.12 207.213 87.12ZM224.188 78.63L221.923 87H219.088L217.768 81.57L216.403 87H213.583L211.303 78.63H213.868L215.053 84.615L216.463 78.63H219.178L220.603 84.585L221.773 78.63H224.188ZM226.456 77.76C226.006 77.76 225.636 77.63 225.346 77.37C225.066 77.1 224.926 76.77 224.926 76.38C224.926 75.98 225.066 75.65 225.346 75.39C225.636 75.12 226.006 74.985 226.456 74.985C226.896 74.985 227.256 75.12 227.536 75.39C227.826 75.65 227.971 75.98 227.971 76.38C227.971 76.77 227.826 77.1 227.536 77.37C227.256 77.63 226.896 77.76 226.456 77.76ZM227.731 78.63V87H225.166V78.63H227.731ZM234.255 84.825V87H232.95C232.02 87 231.295 86.775 230.775 86.325C230.255 85.865 229.995 85.12 229.995 84.09V80.76H228.975V78.63H229.995V76.59H232.56V78.63H234.24V80.76H232.56V84.12C232.56 84.37 232.62 84.55 232.74 84.66C232.86 84.77 233.06 84.825 233.34 84.825H234.255ZM235.173 82.815C235.173 81.945 235.348 81.185 235.698 80.535C236.058 79.885 236.553 79.385 237.183 79.035C237.823 78.685 238.553 78.51 239.373 78.51C240.423 78.51 241.298 78.785 241.998 79.335C242.708 79.885 243.173 80.66 243.393 81.66H240.663C240.433 81.02 239.988 80.7 239.328 80.7C238.858 80.7 238.483 80.885 238.203 81.255C237.923 81.615 237.783 82.135 237.783 82.815C237.783 83.495 237.923 84.02 238.203 84.39C238.483 84.75 238.858 84.93 239.328 84.93C239.988 84.93 240.433 84.61 240.663 83.97H243.393C243.173 84.95 242.708 85.72 241.998 86.28C241.288 86.84 240.413 87.12 239.373 87.12C238.553 87.12 237.823 86.945 237.183 86.595C236.553 86.245 236.058 85.745 235.698 85.095C235.348 84.445 235.173 83.685 235.173 82.815ZM249.91 78.54C250.87 78.54 251.64 78.86 252.22 79.5C252.8 80.13 253.09 81 253.09 82.11V87H250.54V82.455C250.54 81.895 250.395 81.46 250.105 81.15C249.815 80.84 249.425 80.685 248.935 80.685C248.445 80.685 248.055 80.84 247.765 81.15C247.475 81.46 247.33 81.895 247.33 82.455V87H244.765V75.9H247.33V79.755C247.59 79.385 247.945 79.09 248.395 78.87C248.845 78.65 249.35 78.54 249.91 78.54ZM262.717 84.825V87H261.412C260.482 87 259.757 86.775 259.237 86.325C258.717 85.865 258.457 85.12 258.457 84.09V80.76H257.437V78.63H258.457V76.59H261.022V78.63H262.702V80.76H261.022V84.12C261.022 84.37 261.082 84.55 261.202 84.66C261.322 84.77 261.522 84.825 261.802 84.825H262.717ZM267.955 87.12C267.135 87.12 266.395 86.945 265.735 86.595C265.085 86.245 264.57 85.745 264.19 85.095C263.82 84.445 263.635 83.685 263.635 82.815C263.635 81.955 263.825 81.2 264.205 80.55C264.585 79.89 265.105 79.385 265.765 79.035C266.425 78.685 267.165 78.51 267.985 78.51C268.805 78.51 269.545 78.685 270.205 79.035C270.865 79.385 271.385 79.89 271.765 80.55C272.145 81.2 272.335 81.955 272.335 82.815C272.335 83.675 272.14 84.435 271.75 85.095C271.37 85.745 270.845 86.245 270.175 86.595C269.515 86.945 268.775 87.12 267.955 87.12ZM267.955 84.9C268.445 84.9 268.86 84.72 269.2 84.36C269.55 84 269.725 83.485 269.725 82.815C269.725 82.145 269.555 81.63 269.215 81.27C268.885 80.91 268.475 80.73 267.985 80.73C267.485 80.73 267.07 80.91 266.74 81.27C266.41 81.62 266.245 82.135 266.245 82.815C266.245 83.485 266.405 84 266.725 84.36C267.055 84.72 267.465 84.9 267.955 84.9ZM279.44 75.9V87H276.875V75.9H279.44ZM282.589 77.76C282.139 77.76 281.769 77.63 281.479 77.37C281.199 77.1 281.059 76.77 281.059 76.38C281.059 75.98 281.199 75.65 281.479 75.39C281.769 75.12 282.139 74.985 282.589 74.985C283.029 74.985 283.389 75.12 283.669 75.39C283.959 75.65 284.104 75.98 284.104 76.38C284.104 76.77 283.959 77.1 283.669 77.37C283.389 77.63 283.029 77.76 282.589 77.76ZM283.864 78.63V87H281.299V78.63H283.864ZM288.902 78.51C289.492 78.51 290.007 78.63 290.447 78.87C290.897 79.11 291.242 79.425 291.482 79.815V78.63H294.047V86.985C294.047 87.755 293.892 88.45 293.582 89.07C293.282 89.7 292.817 90.2 292.187 90.57C291.567 90.94 290.792 91.125 289.862 91.125C288.622 91.125 287.617 90.83 286.847 90.24C286.077 89.66 285.637 88.87 285.527 87.87H288.062C288.142 88.19 288.332 88.44 288.632 88.62C288.932 88.81 289.302 88.905 289.742 88.905C290.272 88.905 290.692 88.75 291.002 88.44C291.322 88.14 291.482 87.655 291.482 86.985V85.8C291.232 86.19 290.887 86.51 290.447 86.76C290.007 87 289.492 87.12 288.902 87.12C288.212 87.12 287.587 86.945 287.027 86.595C286.467 86.235 286.022 85.73 285.692 85.08C285.372 84.42 285.212 83.66 285.212 82.8C285.212 81.94 285.372 81.185 285.692 80.535C286.022 79.885 286.467 79.385 287.027 79.035C287.587 78.685 288.212 78.51 288.902 78.51ZM291.482 82.815C291.482 82.175 291.302 81.67 290.942 81.3C290.592 80.93 290.162 80.745 289.652 80.745C289.142 80.745 288.707 80.93 288.347 81.3C287.997 81.66 287.822 82.16 287.822 82.8C287.822 83.44 287.997 83.95 288.347 84.33C288.707 84.7 289.142 84.885 289.652 84.885C290.162 84.885 290.592 84.7 290.942 84.33C291.302 83.96 291.482 83.455 291.482 82.815ZM301.048 78.54C302.008 78.54 302.778 78.86 303.358 79.5C303.938 80.13 304.228 81 304.228 82.11V87H301.678V82.455C301.678 81.895 301.533 81.46 301.243 81.15C300.953 80.84 300.563 80.685 300.073 80.685C299.583 80.685 299.193 80.84 298.903 81.15C298.613 81.46 298.468 81.895 298.468 82.455V87H295.903V75.9H298.468V79.755C298.728 79.385 299.083 79.09 299.533 78.87C299.983 78.65 300.488 78.54 301.048 78.54ZM310.676 84.825V87H309.371C308.441 87 307.716 86.775 307.196 86.325C306.676 85.865 306.416 85.12 306.416 84.09V80.76H305.396V78.63H306.416V76.59H308.981V78.63H310.661V80.76H308.981V84.12C308.981 84.37 309.041 84.55 309.161 84.66C309.281 84.77 309.481 84.825 309.761 84.825H310.676ZM325.963 78.54C327.003 78.54 327.828 78.855 328.438 79.485C329.058 80.115 329.368 80.99 329.368 82.11V87H326.818V82.455C326.818 81.915 326.673 81.5 326.383 81.21C326.103 80.91 325.713 80.76 325.213 80.76C324.713 80.76 324.318 80.91 324.028 81.21C323.748 81.5 323.608 81.915 323.608 82.455V87H321.058V82.455C321.058 81.915 320.913 81.5 320.623 81.21C320.343 80.91 319.953 80.76 319.453 80.76C318.953 80.76 318.558 80.91 318.268 81.21C317.988 81.5 317.848 81.915 317.848 82.455V87H315.283V78.63H317.848V79.68C318.108 79.33 318.448 79.055 318.868 78.855C319.288 78.645 319.763 78.54 320.293 78.54C320.923 78.54 321.483 78.675 321.973 78.945C322.473 79.215 322.863 79.6 323.143 80.1C323.433 79.64 323.828 79.265 324.328 78.975C324.828 78.685 325.373 78.54 325.963 78.54ZM334.972 87.12C334.152 87.12 333.412 86.945 332.752 86.595C332.102 86.245 331.587 85.745 331.207 85.095C330.837 84.445 330.652 83.685 330.652 82.815C330.652 81.955 330.842 81.2 331.222 80.55C331.602 79.89 332.122 79.385 332.782 79.035C333.442 78.685 334.182 78.51 335.002 78.51C335.822 78.51 336.562 78.685 337.222 79.035C337.882 79.385 338.402 79.89 338.782 80.55C339.162 81.2 339.352 81.955 339.352 82.815C339.352 83.675 339.157 84.435 338.767 85.095C338.387 85.745 337.862 86.245 337.192 86.595C336.532 86.945 335.792 87.12 334.972 87.12ZM334.972 84.9C335.462 84.9 335.877 84.72 336.217 84.36C336.567 84 336.742 83.485 336.742 82.815C336.742 82.145 336.572 81.63 336.232 81.27C335.902 80.91 335.492 80.73 335.002 80.73C334.502 80.73 334.087 80.91 333.757 81.27C333.427 81.62 333.262 82.135 333.262 82.815C333.262 83.485 333.422 84 333.742 84.36C334.072 84.72 334.482 84.9 334.972 84.9ZM340.203 82.8C340.203 81.94 340.363 81.185 340.683 80.535C341.013 79.885 341.458 79.385 342.018 79.035C342.578 78.685 343.203 78.51 343.893 78.51C344.443 78.51 344.943 78.625 345.393 78.855C345.853 79.085 346.213 79.395 346.473 79.785V75.9H349.038V87H346.473V85.8C346.233 86.2 345.888 86.52 345.438 86.76C344.998 87 344.483 87.12 343.893 87.12C343.203 87.12 342.578 86.945 342.018 86.595C341.458 86.235 341.013 85.73 340.683 85.08C340.363 84.42 340.203 83.66 340.203 82.8ZM346.473 82.815C346.473 82.175 346.293 81.67 345.933 81.3C345.583 80.93 345.153 80.745 344.643 80.745C344.133 80.745 343.698 80.93 343.338 81.3C342.988 81.66 342.813 82.16 342.813 82.8C342.813 83.44 342.988 83.95 343.338 84.33C343.698 84.7 344.133 84.885 344.643 84.885C345.153 84.885 345.583 84.7 345.933 84.33C346.293 83.96 346.473 83.455 346.473 82.815ZM358.783 82.68C358.783 82.92 358.768 83.17 358.738 83.43H352.933C352.973 83.95 353.138 84.35 353.428 84.63C353.728 84.9 354.093 85.035 354.523 85.035C355.163 85.035 355.608 84.765 355.858 84.225H358.588C358.448 84.775 358.193 85.27 357.823 85.71C357.463 86.15 357.008 86.495 356.458 86.745C355.908 86.995 355.293 87.12 354.613 87.12C353.793 87.12 353.063 86.945 352.423 86.595C351.783 86.245 351.283 85.745 350.923 85.095C350.563 84.445 350.383 83.685 350.383 82.815C350.383 81.945 350.558 81.185 350.908 80.535C351.268 79.885 351.768 79.385 352.408 79.035C353.048 78.685 353.783 78.51 354.613 78.51C355.423 78.51 356.143 78.68 356.773 79.02C357.403 79.36 357.893 79.845 358.243 80.475C358.603 81.105 358.783 81.84 358.783 82.68ZM356.158 82.005C356.158 81.565 356.008 81.215 355.708 80.955C355.408 80.695 355.033 80.565 354.583 80.565C354.153 80.565 353.788 80.69 353.488 80.94C353.198 81.19 353.018 81.545 352.948 82.005H356.158Z" fill="#D9D9D9"/>
<path d="M41.8208 132.077C41.0948 132.077 40.4275 131.908 39.8188 131.571C39.2175 131.234 38.7371 130.764 38.3778 130.163C38.0258 129.554 37.8498 128.872 37.8498 128.117C37.8498 127.362 38.0258 126.683 38.3778 126.082C38.7371 125.481 39.2175 125.011 39.8188 124.674C40.4275 124.337 41.0948 124.168 41.8208 124.168C42.5468 124.168 43.2105 124.337 43.8118 124.674C44.4205 125.011 44.8972 125.481 45.2418 126.082C45.5938 126.683 45.7698 127.362 45.7698 128.117C45.7698 128.872 45.5938 129.554 45.2418 130.163C44.8898 130.764 44.4131 131.234 43.8118 131.571C43.2105 131.908 42.5468 132.077 41.8208 132.077ZM41.8208 130.361C42.4368 130.361 42.9281 130.156 43.2948 129.745C43.6688 129.334 43.8558 128.792 43.8558 128.117C43.8558 127.435 43.6688 126.892 43.2948 126.489C42.9281 126.078 42.4368 125.873 41.8208 125.873C41.1975 125.873 40.6988 126.075 40.3248 126.478C39.9581 126.881 39.7748 127.428 39.7748 128.117C39.7748 128.799 39.9581 129.345 40.3248 129.756C40.6988 130.159 41.1975 130.361 41.8208 130.361ZM48.6973 126.885C48.9173 126.548 49.1923 126.284 49.5223 126.093C49.8523 125.895 50.2189 125.796 50.6223 125.796V127.787H50.1053C49.6359 127.787 49.2839 127.89 49.0493 128.095C48.8146 128.293 48.6973 128.645 48.6973 129.151V132H46.8163V125.862H48.6973V126.885ZM55.7334 123.86V132H53.8524V123.86H55.7334ZM62.8826 128.832C62.8826 129.008 62.8716 129.191 62.8496 129.382H58.5926C58.6219 129.763 58.7429 130.057 58.9556 130.262C59.1756 130.46 59.4432 130.559 59.7586 130.559C60.2279 130.559 60.5542 130.361 60.7376 129.965H62.7396C62.6369 130.368 62.4499 130.731 62.1786 131.054C61.9146 131.377 61.5809 131.63 61.1776 131.813C60.7742 131.996 60.3232 132.088 59.8246 132.088C59.2232 132.088 58.6879 131.96 58.2186 131.703C57.7492 131.446 57.3826 131.08 57.1186 130.603C56.8546 130.126 56.7226 129.569 56.7226 128.931C56.7226 128.293 56.8509 127.736 57.1076 127.259C57.3716 126.782 57.7382 126.416 58.2076 126.159C58.6769 125.902 59.2159 125.774 59.8246 125.774C60.4186 125.774 60.9466 125.899 61.4086 126.148C61.8706 126.397 62.2299 126.753 62.4866 127.215C62.7506 127.677 62.8826 128.216 62.8826 128.832ZM60.9576 128.337C60.9576 128.014 60.8476 127.758 60.6276 127.567C60.4076 127.376 60.1326 127.281 59.8026 127.281C59.4872 127.281 59.2196 127.373 58.9996 127.556C58.7869 127.739 58.6549 128 58.6036 128.337H60.9576ZM67.2959 130.405V132H66.3389C65.6569 132 65.1252 131.835 64.7439 131.505C64.3625 131.168 64.1719 130.621 64.1719 129.866V127.424H63.4239V125.862H64.1719V124.366H66.0529V125.862H67.2849V127.424H66.0529V129.888C66.0529 130.071 66.0969 130.203 66.1849 130.284C66.2729 130.365 66.4195 130.405 66.6249 130.405H67.2959ZM78.5067 125.796C79.2693 125.796 79.8743 126.027 80.3217 126.489C80.7763 126.951 81.0037 127.593 81.0037 128.414V132H79.1337V128.667C79.1337 128.271 79.0273 127.967 78.8147 127.754C78.6093 127.534 78.3233 127.424 77.9567 127.424C77.59 127.424 77.3003 127.534 77.0877 127.754C76.8823 127.967 76.7797 128.271 76.7797 128.667V132H74.9097V128.667C74.9097 128.271 74.8033 127.967 74.5907 127.754C74.3853 127.534 74.0993 127.424 73.7327 127.424C73.366 127.424 73.0763 127.534 72.8637 127.754C72.6583 127.967 72.5557 128.271 72.5557 128.667V132H70.6747V125.862H72.5557V126.632C72.7463 126.375 72.9957 126.174 73.3037 126.027C73.6117 125.873 73.96 125.796 74.3487 125.796C74.8107 125.796 75.2213 125.895 75.5807 126.093C75.9473 126.291 76.2333 126.573 76.4387 126.94C76.6513 126.603 76.941 126.328 77.3077 126.115C77.6743 125.902 78.074 125.796 78.5067 125.796ZM88.1052 128.832C88.1052 129.008 88.0942 129.191 88.0722 129.382H83.8152C83.8445 129.763 83.9655 130.057 84.1782 130.262C84.3982 130.46 84.6659 130.559 84.9812 130.559C85.4505 130.559 85.7769 130.361 85.9602 129.965H87.9622C87.8595 130.368 87.6725 130.731 87.4012 131.054C87.1372 131.377 86.8035 131.63 86.4002 131.813C85.9969 131.996 85.5459 132.088 85.0472 132.088C84.4459 132.088 83.9105 131.96 83.4412 131.703C82.9719 131.446 82.6052 131.08 82.3412 130.603C82.0772 130.126 81.9452 129.569 81.9452 128.931C81.9452 128.293 82.0735 127.736 82.3302 127.259C82.5942 126.782 82.9609 126.416 83.4302 126.159C83.8995 125.902 84.4385 125.774 85.0472 125.774C85.6412 125.774 86.1692 125.899 86.6312 126.148C87.0932 126.397 87.4525 126.753 87.7092 127.215C87.9732 127.677 88.1052 128.216 88.1052 128.832ZM86.1802 128.337C86.1802 128.014 86.0702 127.758 85.8502 127.567C85.6302 127.376 85.3552 127.281 85.0252 127.281C84.7099 127.281 84.4422 127.373 84.2222 127.556C84.0095 127.739 83.8775 128 83.8262 128.337H86.1802ZM95.1796 132L93.3096 129.426V132H91.4286V123.86H93.3096V128.359L95.1686 125.862H97.4896L94.9376 128.942L97.5116 132H95.1796ZM101.968 125.796C102.687 125.796 103.259 126.031 103.684 126.5C104.117 126.962 104.333 127.6 104.333 128.414V132H102.463V128.667C102.463 128.256 102.357 127.937 102.144 127.71C101.932 127.483 101.646 127.369 101.286 127.369C100.927 127.369 100.641 127.483 100.428 127.71C100.216 127.937 100.109 128.256 100.109 128.667V132H98.2284V125.862H100.109V126.676C100.3 126.405 100.557 126.192 100.879 126.038C101.202 125.877 101.565 125.796 101.968 125.796ZM108.434 132.088C107.833 132.088 107.29 131.96 106.806 131.703C106.33 131.446 105.952 131.08 105.673 130.603C105.402 130.126 105.266 129.569 105.266 128.931C105.266 128.3 105.406 127.747 105.684 127.27C105.963 126.786 106.344 126.416 106.828 126.159C107.312 125.902 107.855 125.774 108.456 125.774C109.058 125.774 109.6 125.902 110.084 126.159C110.568 126.416 110.95 126.786 111.228 127.27C111.507 127.747 111.646 128.3 111.646 128.931C111.646 129.562 111.503 130.119 111.217 130.603C110.939 131.08 110.554 131.446 110.062 131.703C109.578 131.96 109.036 132.088 108.434 132.088ZM108.434 130.46C108.794 130.46 109.098 130.328 109.347 130.064C109.604 129.8 109.732 129.422 109.732 128.931C109.732 128.44 109.608 128.062 109.358 127.798C109.116 127.534 108.816 127.402 108.456 127.402C108.09 127.402 107.785 127.534 107.543 127.798C107.301 128.055 107.18 128.432 107.18 128.931C107.18 129.422 107.298 129.8 107.532 130.064C107.774 130.328 108.075 130.46 108.434 130.46ZM121.455 125.862L119.794 132H117.715L116.747 128.018L115.746 132H113.678L112.006 125.862H113.887L114.756 130.251L115.79 125.862H117.781L118.826 130.229L119.684 125.862H121.455ZM125.45 125.224C125.12 125.224 124.848 125.129 124.636 124.938C124.43 124.74 124.328 124.498 124.328 124.212C124.328 123.919 124.43 123.677 124.636 123.486C124.848 123.288 125.12 123.189 125.45 123.189C125.772 123.189 126.036 123.288 126.242 123.486C126.454 123.677 126.561 123.919 126.561 124.212C126.561 124.498 126.454 124.74 126.242 124.938C126.036 125.129 125.772 125.224 125.45 125.224ZM126.385 125.862V132H124.504V125.862H126.385ZM130.828 127.424H129.816V132H127.935V127.424H127.253V125.862H127.935V125.686C127.935 124.931 128.151 124.359 128.584 123.97C129.017 123.574 129.651 123.376 130.487 123.376C130.626 123.376 130.729 123.38 130.795 123.387V124.982C130.436 124.96 130.183 125.011 130.036 125.136C129.889 125.261 129.816 125.484 129.816 125.807V125.862H130.828V127.424ZM140.313 125.862L136.463 134.915H134.439L135.847 131.791L133.35 125.862H135.451L136.87 129.701L138.278 125.862H140.313ZM143.787 132.088C143.186 132.088 142.643 131.96 142.159 131.703C141.682 131.446 141.305 131.08 141.026 130.603C140.755 130.126 140.619 129.569 140.619 128.931C140.619 128.3 140.758 127.747 141.037 127.27C141.316 126.786 141.697 126.416 142.181 126.159C142.665 125.902 143.208 125.774 143.809 125.774C144.41 125.774 144.953 125.902 145.437 126.159C145.921 126.416 146.302 126.786 146.581 127.27C146.86 127.747 146.999 128.3 146.999 128.931C146.999 129.562 146.856 130.119 146.57 130.603C146.291 131.08 145.906 131.446 145.415 131.703C144.931 131.96 144.388 132.088 143.787 132.088ZM143.787 130.46C144.146 130.46 144.451 130.328 144.7 130.064C144.957 129.8 145.085 129.422 145.085 128.931C145.085 128.44 144.96 128.062 144.711 127.798C144.469 127.534 144.168 127.402 143.809 127.402C143.442 127.402 143.138 127.534 142.896 127.798C142.654 128.055 142.533 128.432 142.533 128.931C142.533 129.422 142.65 129.8 142.885 130.064C143.127 130.328 143.428 130.46 143.787 130.46ZM154.058 125.862V132H152.177V131.164C151.986 131.435 151.726 131.655 151.396 131.824C151.073 131.985 150.714 132.066 150.318 132.066C149.849 132.066 149.434 131.963 149.075 131.758C148.716 131.545 148.437 131.241 148.239 130.845C148.041 130.449 147.942 129.983 147.942 129.448V125.862H149.812V129.195C149.812 129.606 149.918 129.925 150.131 130.152C150.344 130.379 150.63 130.493 150.989 130.493C151.356 130.493 151.645 130.379 151.858 130.152C152.071 129.925 152.177 129.606 152.177 129.195V125.862H154.058ZM166.551 125.862L164.89 132H162.811L161.843 128.018L160.842 132H158.774L157.102 125.862H158.983L159.852 130.251L160.886 125.862H162.877L163.922 130.229L164.78 125.862H166.551ZM170.062 132.088C169.461 132.088 168.918 131.96 168.434 131.703C167.958 131.446 167.58 131.08 167.301 130.603C167.03 130.126 166.894 129.569 166.894 128.931C166.894 128.3 167.034 127.747 167.312 127.27C167.591 126.786 167.972 126.416 168.456 126.159C168.94 125.902 169.483 125.774 170.084 125.774C170.686 125.774 171.228 125.902 171.712 126.159C172.196 126.416 172.578 126.786 172.856 127.27C173.135 127.747 173.274 128.3 173.274 128.931C173.274 129.562 173.131 130.119 172.845 130.603C172.567 131.08 172.182 131.446 171.69 131.703C171.206 131.96 170.664 132.088 170.062 132.088ZM170.062 130.46C170.422 130.46 170.726 130.328 170.975 130.064C171.232 129.8 171.36 129.422 171.36 128.931C171.36 128.44 171.236 128.062 170.986 127.798C170.744 127.534 170.444 127.402 170.084 127.402C169.718 127.402 169.413 127.534 169.171 127.798C168.929 128.055 168.808 128.432 168.808 128.931C168.808 129.422 168.926 129.8 169.16 130.064C169.402 130.328 169.703 130.46 170.062 130.46ZM180.333 125.862V132H178.452V131.164C178.262 131.435 178.001 131.655 177.671 131.824C177.349 131.985 176.989 132.066 176.593 132.066C176.124 132.066 175.71 131.963 175.35 131.758C174.991 131.545 174.712 131.241 174.514 130.845C174.316 130.449 174.217 129.983 174.217 129.448V125.862H176.087V129.195C176.087 129.606 176.194 129.925 176.406 130.152C176.619 130.379 176.905 130.493 177.264 130.493C177.631 130.493 177.921 130.379 178.133 130.152C178.346 129.925 178.452 129.606 178.452 129.195V125.862H180.333ZM183.565 123.86V132H181.684V123.86H183.565ZM184.555 128.92C184.555 128.289 184.672 127.736 184.907 127.259C185.149 126.782 185.475 126.416 185.886 126.159C186.296 125.902 186.755 125.774 187.261 125.774C187.664 125.774 188.031 125.858 188.361 126.027C188.698 126.196 188.962 126.423 189.153 126.709V123.86H191.034V132H189.153V131.12C188.977 131.413 188.724 131.648 188.394 131.824C188.071 132 187.693 132.088 187.261 132.088C186.755 132.088 186.296 131.96 185.886 131.703C185.475 131.439 185.149 131.069 184.907 130.592C184.672 130.108 184.555 129.551 184.555 128.92ZM189.153 128.931C189.153 128.462 189.021 128.091 188.757 127.82C188.5 127.549 188.185 127.413 187.811 127.413C187.437 127.413 187.118 127.549 186.854 127.82C186.597 128.084 186.469 128.451 186.469 128.92C186.469 129.389 186.597 129.763 186.854 130.042C187.118 130.313 187.437 130.449 187.811 130.449C188.185 130.449 188.5 130.313 188.757 130.042C189.021 129.771 189.153 129.4 189.153 128.931ZM196.606 123.86V132H194.725V123.86H196.606ZM198.916 125.224C198.586 125.224 198.314 125.129 198.102 124.938C197.896 124.74 197.794 124.498 197.794 124.212C197.794 123.919 197.896 123.677 198.102 123.486C198.314 123.288 198.586 123.189 198.916 123.189C199.238 123.189 199.502 123.288 199.708 123.486C199.92 123.677 200.027 123.919 200.027 124.212C200.027 124.498 199.92 124.74 199.708 124.938C199.502 125.129 199.238 125.224 198.916 125.224ZM199.851 125.862V132H197.97V125.862H199.851ZM204.965 132L203.095 129.426V132H201.214V123.86H203.095V128.359L204.954 125.862H207.275L204.723 128.942L207.297 132H204.965ZM213.8 128.832C213.8 129.008 213.789 129.191 213.767 129.382H209.51C209.539 129.763 209.66 130.057 209.873 130.262C210.093 130.46 210.36 130.559 210.676 130.559C211.145 130.559 211.471 130.361 211.655 129.965H213.657C213.554 130.368 213.367 130.731 213.096 131.054C212.832 131.377 212.498 131.63 212.095 131.813C211.691 131.996 211.24 132.088 210.742 132.088C210.14 132.088 209.605 131.96 209.136 131.703C208.666 131.446 208.3 131.08 208.036 130.603C207.772 130.126 207.64 129.569 207.64 128.931C207.64 128.293 207.768 127.736 208.025 127.259C208.289 126.782 208.655 126.416 209.125 126.159C209.594 125.902 210.133 125.774 210.742 125.774C211.336 125.774 211.864 125.899 212.326 126.148C212.788 126.397 213.147 126.753 213.404 127.215C213.668 127.677 213.8 128.216 213.8 128.832ZM211.875 128.337C211.875 128.014 211.765 127.758 211.545 127.567C211.325 127.376 211.05 127.281 210.72 127.281C210.404 127.281 210.137 127.373 209.917 127.556C209.704 127.739 209.572 128 209.521 128.337H211.875ZM220.544 130.405V132H219.587C218.905 132 218.373 131.835 217.992 131.505C217.611 131.168 217.42 130.621 217.42 129.866V127.424H216.672V125.862H217.42V124.366H219.301V125.862H220.533V127.424H219.301V129.888C219.301 130.071 219.345 130.203 219.433 130.284C219.521 130.365 219.668 130.405 219.873 130.405H220.544ZM224.386 132.088C223.784 132.088 223.242 131.96 222.758 131.703C222.281 131.446 221.903 131.08 221.625 130.603C221.353 130.126 221.218 129.569 221.218 128.931C221.218 128.3 221.357 127.747 221.636 127.27C221.914 126.786 222.296 126.416 222.78 126.159C223.264 125.902 223.806 125.774 224.408 125.774C225.009 125.774 225.552 125.902 226.036 126.159C226.52 126.416 226.901 126.786 227.18 127.27C227.458 127.747 227.598 128.3 227.598 128.931C227.598 129.562 227.455 130.119 227.169 130.603C226.89 131.08 226.505 131.446 226.014 131.703C225.53 131.96 224.987 132.088 224.386 132.088ZM224.386 130.46C224.745 130.46 225.049 130.328 225.299 130.064C225.555 129.8 225.684 129.422 225.684 128.931C225.684 128.44 225.559 128.062 225.31 127.798C225.068 127.534 224.767 127.402 224.408 127.402C224.041 127.402 223.737 127.534 223.495 127.798C223.253 128.055 223.132 128.432 223.132 128.931C223.132 129.422 223.249 129.8 223.484 130.064C223.726 130.328 224.026 130.46 224.386 130.46ZM238.759 125.796C239.521 125.796 240.126 126.027 240.574 126.489C241.028 126.951 241.256 127.593 241.256 128.414V132H239.386V128.667C239.386 128.271 239.279 127.967 239.067 127.754C238.861 127.534 238.575 127.424 238.209 127.424C237.842 127.424 237.552 127.534 237.34 127.754C237.134 127.967 237.032 128.271 237.032 128.667V132H235.162V128.667C235.162 128.271 235.055 127.967 234.843 127.754C234.637 127.534 234.351 127.424 233.985 127.424C233.618 127.424 233.328 127.534 233.116 127.754C232.91 127.967 232.808 128.271 232.808 128.667V132H230.927V125.862H232.808V126.632C232.998 126.375 233.248 126.174 233.556 126.027C233.864 125.873 234.212 125.796 234.601 125.796C235.063 125.796 235.473 125.895 235.833 126.093C236.199 126.291 236.485 126.573 236.691 126.94C236.903 126.603 237.193 126.328 237.56 126.115C237.926 125.902 238.326 125.796 238.759 125.796ZM242.197 128.92C242.197 128.289 242.314 127.736 242.549 127.259C242.791 126.782 243.117 126.416 243.528 126.159C243.939 125.902 244.397 125.774 244.903 125.774C245.336 125.774 245.713 125.862 246.036 126.038C246.366 126.214 246.619 126.445 246.795 126.731V125.862H248.676V132H246.795V131.131C246.612 131.417 246.355 131.648 246.025 131.824C245.702 132 245.325 132.088 244.892 132.088C244.393 132.088 243.939 131.96 243.528 131.703C243.117 131.439 242.791 131.069 242.549 130.592C242.314 130.108 242.197 129.551 242.197 128.92ZM246.795 128.931C246.795 128.462 246.663 128.091 246.399 127.82C246.142 127.549 245.827 127.413 245.453 127.413C245.079 127.413 244.76 127.549 244.496 127.82C244.239 128.084 244.111 128.451 244.111 128.92C244.111 129.389 244.239 129.763 244.496 130.042C244.76 130.313 245.079 130.449 245.453 130.449C245.827 130.449 246.142 130.313 246.399 130.042C246.663 129.771 246.795 129.4 246.795 128.931ZM253.788 132L251.918 129.426V132H250.037V123.86H251.918V128.359L253.777 125.862H256.098L253.546 128.942L256.12 132H253.788ZM262.623 128.832C262.623 129.008 262.612 129.191 262.59 129.382H258.333C258.362 129.763 258.483 130.057 258.696 130.262C258.916 130.46 259.183 130.559 259.499 130.559C259.968 130.559 260.294 130.361 260.478 129.965H262.48C262.377 130.368 262.19 130.731 261.919 131.054C261.655 131.377 261.321 131.63 260.918 131.813C260.514 131.996 260.063 132.088 259.565 132.088C258.963 132.088 258.428 131.96 257.959 131.703C257.489 131.446 257.123 131.08 256.859 130.603C256.595 130.126 256.463 129.569 256.463 128.931C256.463 128.293 256.591 127.736 256.848 127.259C257.112 126.782 257.478 126.416 257.948 126.159C258.417 125.902 258.956 125.774 259.565 125.774C260.159 125.774 260.687 125.899 261.149 126.148C261.611 126.397 261.97 126.753 262.227 127.215C262.491 127.677 262.623 128.216 262.623 128.832ZM260.698 128.337C260.698 128.014 260.588 127.758 260.368 127.567C260.148 127.376 259.873 127.281 259.543 127.281C259.227 127.281 258.96 127.373 258.74 127.556C258.527 127.739 258.395 128 258.344 128.337H260.698ZM273.778 125.796C274.541 125.796 275.146 126.027 275.593 126.489C276.048 126.951 276.275 127.593 276.275 128.414V132H274.405V128.667C274.405 128.271 274.299 127.967 274.086 127.754C273.881 127.534 273.595 127.424 273.228 127.424C272.861 127.424 272.572 127.534 272.359 127.754C272.154 127.967 272.051 128.271 272.051 128.667V132H270.181V128.667C270.181 128.271 270.075 127.967 269.862 127.754C269.657 127.534 269.371 127.424 269.004 127.424C268.637 127.424 268.348 127.534 268.135 127.754C267.93 127.967 267.827 128.271 267.827 128.667V132H265.946V125.862H267.827V126.632C268.018 126.375 268.267 126.174 268.575 126.027C268.883 125.873 269.231 125.796 269.62 125.796C270.082 125.796 270.493 125.895 270.852 126.093C271.219 126.291 271.505 126.573 271.71 126.94C271.923 126.603 272.212 126.328 272.579 126.115C272.946 125.902 273.345 125.796 273.778 125.796ZM283.861 125.862L280.011 134.915H277.987L279.395 131.791L276.898 125.862H278.999L280.418 129.701L281.826 125.862H283.861ZM288.753 123.86V132H286.872V123.86H288.753ZM291.062 125.224C290.732 125.224 290.461 125.129 290.248 124.938C290.043 124.74 289.94 124.498 289.94 124.212C289.94 123.919 290.043 123.677 290.248 123.486C290.461 123.288 290.732 123.189 291.062 123.189C291.385 123.189 291.649 123.288 291.854 123.486C292.067 123.677 292.173 123.919 292.173 124.212C292.173 124.498 292.067 124.74 291.854 124.938C291.649 125.129 291.385 125.224 291.062 125.224ZM291.997 125.862V132H290.116V125.862H291.997ZM296.44 127.424H295.428V132H293.547V127.424H292.865V125.862H293.547V125.686C293.547 124.931 293.764 124.359 294.196 123.97C294.629 123.574 295.263 123.376 296.099 123.376C296.239 123.376 296.341 123.38 296.407 123.387V124.982C296.048 124.96 295.795 125.011 295.648 125.136C295.502 125.261 295.428 125.484 295.428 125.807V125.862H296.44V127.424ZM303.11 128.832C303.11 129.008 303.099 129.191 303.077 129.382H298.82C298.849 129.763 298.97 130.057 299.183 130.262C299.403 130.46 299.671 130.559 299.986 130.559C300.455 130.559 300.782 130.361 300.965 129.965H302.967C302.864 130.368 302.677 130.731 302.406 131.054C302.142 131.377 301.808 131.63 301.405 131.813C301.002 131.996 300.551 132.088 300.052 132.088C299.451 132.088 298.915 131.96 298.446 131.703C297.977 131.446 297.61 131.08 297.346 130.603C297.082 130.126 296.95 129.569 296.95 128.931C296.95 128.293 297.078 127.736 297.335 127.259C297.599 126.782 297.966 126.416 298.435 126.159C298.904 125.902 299.443 125.774 300.052 125.774C300.646 125.774 301.174 125.899 301.636 126.148C302.098 126.397 302.457 126.753 302.714 127.215C302.978 127.677 303.11 128.216 303.11 128.832ZM301.185 128.337C301.185 128.014 301.075 127.758 300.855 127.567C300.635 127.376 300.36 127.281 300.03 127.281C299.715 127.281 299.447 127.373 299.227 127.556C299.014 127.739 298.882 128 298.831 128.337H301.185ZM308.314 126.731C308.49 126.445 308.743 126.214 309.073 126.038C309.403 125.862 309.781 125.774 310.206 125.774C310.712 125.774 311.171 125.902 311.581 126.159C311.992 126.416 312.315 126.782 312.549 127.259C312.791 127.736 312.912 128.289 312.912 128.92C312.912 129.551 312.791 130.108 312.549 130.592C312.315 131.069 311.992 131.439 311.581 131.703C311.171 131.96 310.712 132.088 310.206 132.088C309.774 132.088 309.396 132.004 309.073 131.835C308.751 131.659 308.498 131.428 308.314 131.142V132H306.433V123.86H308.314V126.731ZM310.998 128.92C310.998 128.451 310.866 128.084 310.602 127.82C310.346 127.549 310.027 127.413 309.645 127.413C309.271 127.413 308.952 127.549 308.688 127.82C308.432 128.091 308.303 128.462 308.303 128.931C308.303 129.4 308.432 129.771 308.688 130.042C308.952 130.313 309.271 130.449 309.645 130.449C310.019 130.449 310.338 130.313 310.602 130.042C310.866 129.763 310.998 129.389 310.998 128.92ZM315.78 126.885C316 126.548 316.275 126.284 316.605 126.093C316.935 125.895 317.302 125.796 317.705 125.796V127.787H317.188C316.719 127.787 316.367 127.89 316.132 128.095C315.898 128.293 315.78 128.645 315.78 129.151V132H313.899V125.862H315.78V126.885ZM319.55 125.224C319.22 125.224 318.949 125.129 318.736 124.938C318.531 124.74 318.428 124.498 318.428 124.212C318.428 123.919 318.531 123.677 318.736 123.486C318.949 123.288 319.22 123.189 319.55 123.189C319.873 123.189 320.137 123.288 320.342 123.486C320.555 123.677 320.661 123.919 320.661 124.212C320.661 124.498 320.555 124.74 320.342 124.938C320.137 125.129 319.873 125.224 319.55 125.224ZM320.485 125.862V132H318.604V125.862H320.485ZM324.181 125.774C324.613 125.774 324.991 125.862 325.314 126.038C325.644 126.214 325.897 126.445 326.073 126.731V125.862H327.954V131.989C327.954 132.554 327.84 133.063 327.613 133.518C327.393 133.98 327.052 134.347 326.59 134.618C326.135 134.889 325.567 135.025 324.885 135.025C323.975 135.025 323.238 134.809 322.674 134.376C322.109 133.951 321.786 133.371 321.706 132.638H323.565C323.623 132.873 323.763 133.056 323.983 133.188C324.203 133.327 324.474 133.397 324.797 133.397C325.185 133.397 325.493 133.283 325.721 133.056C325.955 132.836 326.073 132.48 326.073 131.989V131.12C325.889 131.406 325.636 131.641 325.314 131.824C324.991 132 324.613 132.088 324.181 132.088C323.675 132.088 323.216 131.96 322.806 131.703C322.395 131.439 322.069 131.069 321.827 130.592C321.592 130.108 321.475 129.551 321.475 128.92C321.475 128.289 321.592 127.736 321.827 127.259C322.069 126.782 322.395 126.416 322.806 126.159C323.216 125.902 323.675 125.774 324.181 125.774ZM326.073 128.931C326.073 128.462 325.941 128.091 325.677 127.82C325.42 127.549 325.105 127.413 324.731 127.413C324.357 127.413 324.038 127.549 323.774 127.82C323.517 128.084 323.389 128.451 323.389 128.92C323.389 129.389 323.517 129.763 323.774 130.042C324.038 130.313 324.357 130.449 324.731 130.449C325.105 130.449 325.42 130.313 325.677 130.042C325.941 129.771 326.073 129.4 326.073 128.931ZM333.087 125.796C333.791 125.796 334.356 126.031 334.781 126.5C335.207 126.962 335.419 127.6 335.419 128.414V132H333.549V128.667C333.549 128.256 333.443 127.937 333.23 127.71C333.018 127.483 332.732 127.369 332.372 127.369C332.013 127.369 331.727 127.483 331.514 127.71C331.302 127.937 331.195 128.256 331.195 128.667V132H329.314V123.86H331.195V126.687C331.386 126.416 331.646 126.199 331.976 126.038C332.306 125.877 332.677 125.796 333.087 125.796ZM340.147 130.405V132H339.19C338.508 132 337.977 131.835 337.595 131.505C337.214 131.168 337.023 130.621 337.023 129.866V127.424H336.275V125.862H337.023V124.366H338.904V125.862H340.136V127.424H338.904V129.888C338.904 130.071 338.948 130.203 339.036 130.284C339.124 130.365 339.271 130.405 339.476 130.405H340.147Z" fill="#D9D9D9"/>
<defs>
<clipPath id="clip0_397_20">
<rect width="32" height="32" fill="white" transform="translate(173 13)"/>
</clipPath>
</defs>
</svg>
